<ttFont>
<head>
    <!-- Most of this table will be recalculated by the compiler -->
    <tableVersion value="1.0"/>
    <fontRevision value="1.0"/>
    <checkSumAdjustment value="0x5dc89719"/>
    <magicNumber value="0x5f0f3cf5"/>
    <flags value="00000000 00011111"/>
    <unitsPerEm value="2048"/>
    <created value="Thu Nov 10 07:06:31 2011"/>
    <modified value="Thu Nov 10 07:06:31 2011"/>
    <xMin value="-66"/>
    <yMin value="-512"/>
    <xMax value="1591"/>
    <yMax value="1905"/>
    <macStyle value="00000000 00000000"/>
    <lowestRecPPEM value="8"/>
    <fontDirectionHint value="2"/>
    <indexToLocFormat value="0"/>
    <glyphDataFormat value="0"/>
  </head>
    <TTGlyph name="A" xMin="20" yMin="0" xMax="745" yMax="1505">
      <contour>
        <pt x="20" y="0" on="1"/>
        <pt x="248" y="1505" on="1"/>
        <pt x="518" y="1505" on="1"/>
        <pt x="745" y="0" on="1"/>
        <pt x="530" y="0" on="1"/>
        <pt x="489" y="307" on="1"/>
        <pt x="276" y="307" on="1"/>
        <pt x="236" y="0" on="1"/>
      </contour>
      <contour>
        <pt x="307" y="541" on="1"/>
        <pt x="459" y="541" on="1"/>
        <pt x="395" y="1016" on="1"/>
        <pt x="389" y="1055" on="1"/>
        <pt x="377" y="1055" on="1"/>
        <pt x="371" y="1016" on="1"/>
      </contour>
    </TTGlyph>
    <TTGlyph name="AE" xMin="16" yMin="0" xMax="1059" yMax="1505">
      <contour>
        <pt x="16" y="0" on="1"/>
        <pt x="436" y="1505" on="1"/>
        <pt x="1059" y="1505" on="1"/>
        <pt x="1059" y="1278" on="1"/>
        <pt x="774" y="1278" on="1"/>
        <pt x="774" y="883" on="1"/>
        <pt x="979" y="883" on="1"/>
        <pt x="979" y="641" on="1"/>
        <pt x="774" y="641" on="1"/>
        <pt x="774" y="227" on="1"/>
        <pt x="1059" y="227" on="1"/>
        <pt x="1059" y="0" on="1"/>
        <pt x="553" y="0" on="1"/>
        <pt x="553" y="307" on="1"/>
        <pt x="326" y="307" on="1"/>
        <pt x="236" y="0" on="1"/>
      </contour>
      <contour>
        <pt x="393" y="541" on="1"/>
        <pt x="553" y="541" on="1"/>
        <pt x="553" y="1055" on="1"/>
        <pt x="543" y="1055" on="1"/>
      </contour>
    </TTGlyph>
    <TTGlyph name="Aacute" xMin="20" yMin="0" xMax="745" yMax="1823">
      <contour>
        <pt x="20" y="0" on="1"/>
        <pt x="248" y="1505" on="1"/>
        <pt x="518" y="1505" on="1"/>
        <pt x="745" y="0" on="1"/>
        <pt x="530" y="0" on="1"/>
        <pt x="489" y="307" on="1"/>
        <pt x="276" y="307" on="1"/>
        <pt x="236" y="0" on="1"/>
      </contour>
      <contour>
        <pt x="293" y="1638" on="1"/>
        <pt x="399" y="1823" on="1"/>
        <pt x="614" y="1823" on="1"/>
        <pt x="453" y="1638" on="1"/>
      </contour>
      <contour>
        <pt x="307" y="541" on="1"/>
        <pt x="459" y="541" on="1"/>
        <pt x="395" y="1016" on="1"/>
        <pt x="389" y="1055" on="1"/>
        <pt x="377" y="1055" on="1"/>
        <pt x="371" y="1016" on="1"/>
      </contour>
    </TTGlyph>
    <TTGlyph name="Acircumflex" xMin="20" yMin="0" xMax="745" yMax="1823">
      <contour>
        <pt x="20" y="0" on="1"/>
        <pt x="248" y="1505" on="1"/>
        <pt x="518" y="1505" on="1"/>
        <pt x="745" y="0" on="1"/>
        <pt x="530" y="0" on="1"/>
        <pt x="489" y="307" on="1"/>
        <pt x="276" y="307" on="1"/>
        <pt x="236" y="0" on="1"/>
      </contour>
      <contour>
        <pt x="133" y="1638" on="1"/>
        <pt x="274" y="1823" on="1"/>
        <pt x="494" y="1823" on="1"/>
        <pt x="635" y="1638" on="1"/>
        <pt x="446" y="1638" on="1"/>
        <pt x="383" y="1710" on="1"/>
        <pt x="322" y="1638" on="1"/>
      </contour>
      <contour>
        <pt x="307" y="541" on="1"/>
        <pt x="459" y="541" on="1"/>
        <pt x="395" y="1016" on="1"/>
        <pt x="389" y="1055" on="1"/>
        <pt x="377" y="1055" on="1"/>
        <pt x="371" y="1016" on="1"/>
      </contour>
    </TTGlyph>
    <TTGlyph name="Adieresis" xMin="20" yMin="0" xMax="745" yMax="1839">
      <contour>
        <pt x="20" y="0" on="1"/>
        <pt x="248" y="1505" on="1"/>
        <pt x="518" y="1505" on="1"/>
        <pt x="745" y="0" on="1"/>
        <pt x="530" y="0" on="1"/>
        <pt x="489" y="307" on="1"/>
        <pt x="276" y="307" on="1"/>
        <pt x="236" y="0" on="1"/>
      </contour>
      <contour>
        <pt x="143" y="1638" on="1"/>
        <pt x="143" y="1839" on="1"/>
        <pt x="334" y="1839" on="1"/>
        <pt x="334" y="1638" on="1"/>
      </contour>
      <contour>
        <pt x="307" y="541" on="1"/>
        <pt x="459" y="541" on="1"/>
        <pt x="395" y="1016" on="1"/>
        <pt x="389" y="1055" on="1"/>
        <pt x="377" y="1055" on="1"/>
        <pt x="371" y="1016" on="1"/>
      </contour>
      <contour>
        <pt x="432" y="1638" on="1"/>
        <pt x="432" y="1839" on="1"/>
        <pt x="623" y="1839" on="1"/>
        <pt x="623" y="1638" on="1"/>
      </contour>
    </TTGlyph>
    <TTGlyph name="Agrave" xMin="20" yMin="0" xMax="745" yMax="1823">
      <contour>
        <pt x="20" y="0" on="1"/>
        <pt x="248" y="1505" on="1"/>
        <pt x="518" y="1505" on="1"/>
        <pt x="745" y="0" on="1"/>
        <pt x="530" y="0" on="1"/>
        <pt x="489" y="307" on="1"/>
        <pt x="276" y="307" on="1"/>
        <pt x="236" y="0" on="1"/>
      </contour>
      <contour>
        <pt x="141" y="1823" on="1"/>
        <pt x="356" y="1823" on="1"/>
        <pt x="463" y="1638" on="1"/>
        <pt x="303" y="1638" on="1"/>
      </contour>
      <contour>
        <pt x="307" y="541" on="1"/>
        <pt x="459" y="541" on="1"/>
        <pt x="395" y="1016" on="1"/>
        <pt x="389" y="1055" on="1"/>
        <pt x="377" y="1055" on="1"/>
        <pt x="371" y="1016" on="1"/>
      </contour>
    </TTGlyph>
    <TTGlyph name="Aring" xMin="20" yMin="0" xMax="745" yMax="1905">
      <contour>
        <pt x="20" y="0" on="1"/>
        <pt x="248" y="1505" on="1"/>
        <pt x="518" y="1505" on="1"/>
        <pt x="745" y="0" on="1"/>
        <pt x="530" y="0" on="1"/>
        <pt x="489" y="307" on="1"/>
        <pt x="276" y="307" on="1"/>
        <pt x="236" y="0" on="1"/>
      </contour>
      <contour>
        <pt x="231" y="1700" on="0"/>
        <pt x="231" y="1823" on="0"/>
        <pt x="322" y="1905" on="0"/>
        <pt x="449" y="1905" on="0"/>
        <pt x="537" y="1823" on="0"/>
        <pt x="537" y="1700" on="0"/>
        <pt x="449" y="1618" on="0"/>
        <pt x="322" y="1618" on="0"/>
      </contour>
      <contour>
        <pt x="307" y="541" on="1"/>
        <pt x="459" y="541" on="1"/>
        <pt x="395" y="1016" on="1"/>
        <pt x="389" y="1055" on="1"/>
        <pt x="377" y="1055" on="1"/>
        <pt x="371" y="1016" on="1"/>
      </contour>
      <contour>
        <pt x="309" y="1790" on="0"/>
        <pt x="309" y="1733" on="0"/>
        <pt x="356" y="1690" on="0"/>
        <pt x="414" y="1690" on="0"/>
        <pt x="461" y="1733" on="0"/>
        <pt x="461" y="1790" on="0"/>
        <pt x="414" y="1833" on="0"/>
        <pt x="356" y="1833" on="0"/>
      </contour>
    </TTGlyph>
    <TTGlyph name="Atilde" xMin="20" yMin="0" xMax="745" yMax="1823">
      <contour>
        <pt x="20" y="0" on="1"/>
        <pt x="248" y="1505" on="1"/>
        <pt x="518" y="1505" on="1"/>
        <pt x="745" y="0" on="1"/>
        <pt x="530" y="0" on="1"/>
        <pt x="489" y="307" on="1"/>
        <pt x="276" y="307" on="1"/>
        <pt x="236" y="0" on="1"/>
      </contour>
      <contour>
        <pt x="184" y="1632" on="1"/>
        <pt x="184" y="1784" on="1"/>
        <pt x="233" y="1823" on="0"/>
        <pt x="293" y="1823" on="1"/>
        <pt x="326" y="1823" on="0"/>
        <pt x="442" y="1786" on="0"/>
        <pt x="473" y="1784" on="1"/>
        <pt x="498" y="1784" on="0"/>
        <pt x="553" y="1800" on="0"/>
        <pt x="567" y="1808" on="1"/>
        <pt x="582" y="1817" on="1"/>
        <pt x="582" y="1665" on="1"/>
        <pt x="531" y="1626" on="0"/>
        <pt x="473" y="1626" on="1"/>
        <pt x="442" y="1626" on="0"/>
        <pt x="326" y="1665" on="0"/>
        <pt x="293" y="1665" on="1"/>
        <pt x="268" y="1665" on="0"/>
        <pt x="213" y="1649" on="0"/>
        <pt x="199" y="1640" on="1"/>
      </contour>
      <contour>
        <pt x="307" y="541" on="1"/>
        <pt x="459" y="541" on="1"/>
        <pt x="395" y="1016" on="1"/>
        <pt x="389" y="1055" on="1"/>
        <pt x="377" y="1055" on="1"/>
        <pt x="371" y="1016" on="1"/>
      </contour>
    </TTGlyph>
    <TTGlyph name="B" xMin="82" yMin="0" xMax="696" yMax="1505">
      <contour>
        <pt x="82" y="0" on="1"/>
        <pt x="82" y="1505" on="1"/>
        <pt x="276" y="1505" on="1"/>
        <pt x="481" y="1505" on="0"/>
        <pt x="680" y="1323" on="0"/>
        <pt x="680" y="1106" on="1"/>
        <pt x="680" y="1000" on="0"/>
        <pt x="621" y="862" on="0"/>
        <pt x="543" y="795" on="1"/>
        <pt x="549" y="793" on="0"/>
        <pt x="569" y="778" on="0"/>
        <pt x="623" y="723" on="0"/>
        <pt x="664" y="647" on="0"/>
        <pt x="696" y="510" on="0"/>
        <pt x="696" y="426" on="1"/>
        <pt x="696" y="12" on="0"/>
        <pt x="354" y="0" on="1"/>
      </contour>
      <contour>
        <pt x="303" y="219" on="1"/>
        <pt x="377" y="219" on="0"/>
        <pt x="412" y="250" on="1"/>
        <pt x="467" y="305" on="0"/>
        <pt x="467" y="451" on="1"/>
        <pt x="467" y="533" on="0"/>
        <pt x="434" y="637" on="0"/>
        <pt x="375" y="674" on="0"/>
        <pt x="338" y="682" on="0"/>
        <pt x="311" y="682" on="1"/>
        <pt x="303" y="682" on="1"/>
      </contour>
      <contour>
        <pt x="303" y="885" on="1"/>
        <pt x="326" y="885" on="0"/>
        <pt x="348" y="887" on="0"/>
        <pt x="406" y="905" on="0"/>
        <pt x="438" y="944" on="0"/>
        <pt x="467" y="1026" on="0"/>
        <pt x="467" y="1145" on="0"/>
        <pt x="438" y="1227" on="0"/>
        <pt x="406" y="1266" on="0"/>
        <pt x="348" y="1284" on="0"/>
        <pt x="326" y="1286" on="0"/>
        <pt x="303" y="1286" on="1"/>
      </contour>
    </TTGlyph>
    <TTGlyph name="C" xMin="68" yMin="-16" xMax="657" yMax="1522">
      <contour>
        <pt x="68" y="309" on="1"/>
        <pt x="68" y="1196" on="1"/>
        <pt x="68" y="1208" on="0"/>
        <pt x="72" y="1253" on="0"/>
        <pt x="102" y="1366" on="0"/>
        <pt x="158" y="1452" on="0"/>
        <pt x="279" y="1522" on="0"/>
        <pt x="446" y="1522" on="0"/>
        <pt x="567" y="1454" on="0"/>
        <pt x="623" y="1360" on="0"/>
        <pt x="653" y="1264" on="0"/>
        <pt x="655" y="1229" on="1"/>
        <pt x="657" y="1196" on="1"/>
        <pt x="657" y="989" on="1"/>
        <pt x="451" y="989" on="1"/>
        <pt x="451" y="1196" on="1"/>
        <pt x="449" y="1196" on="0"/>
        <pt x="453" y="1219" on="0"/>
        <pt x="442" y="1251" on="0"/>
        <pt x="428" y="1284" on="0"/>
        <pt x="393" y="1307" on="0"/>
        <pt x="367" y="1307" on="1"/>
        <pt x="297" y="1297" on="0"/>
        <pt x="289" y="1196" on="1"/>
        <pt x="289" y="309" on="1"/>
        <pt x="289" y="297" on="0"/>
        <pt x="293" y="260" on="0"/>
        <pt x="332" y="199" on="0"/>
        <pt x="367" y="199" on="1"/>
        <pt x="408" y="199" on="0"/>
        <pt x="451" y="254" on="0"/>
        <pt x="451" y="283" on="1"/>
        <pt x="451" y="309" on="1"/>
        <pt x="451" y="516" on="1"/>
        <pt x="657" y="516" on="1"/>
        <pt x="657" y="309" on="1"/>
        <pt x="657" y="297" on="0"/>
        <pt x="653" y="252" on="0"/>
        <pt x="623" y="139" on="0"/>
        <pt x="567" y="53" on="0"/>
        <pt x="446" y="-16" on="0"/>
        <pt x="279" y="-16" on="0"/>
        <pt x="158" y="51" on="0"/>
        <pt x="102" y="147" on="0"/>
        <pt x="72" y="242" on="0"/>
        <pt x="70" y="274" on="1"/>
      </contour>
    </TTGlyph>
    <TTGlyph name="Ccedilla" xMin="68" yMin="-385" xMax="657" yMax="1522">
      <contour>
        <pt x="68" y="309" on="1"/>
        <pt x="68" y="1196" on="1"/>
        <pt x="68" y="1208" on="0"/>
        <pt x="72" y="1253" on="0"/>
        <pt x="102" y="1366" on="0"/>
        <pt x="158" y="1452" on="0"/>
        <pt x="279" y="1522" on="0"/>
        <pt x="446" y="1522" on="0"/>
        <pt x="567" y="1454" on="0"/>
        <pt x="623" y="1360" on="0"/>
        <pt x="653" y="1264" on="0"/>
        <pt x="655" y="1229" on="1"/>
        <pt x="657" y="1196" on="1"/>
        <pt x="657" y="989" on="1"/>
        <pt x="451" y="989" on="1"/>
        <pt x="451" y="1196" on="1"/>
        <pt x="449" y="1196" on="0"/>
        <pt x="453" y="1219" on="0"/>
        <pt x="442" y="1251" on="0"/>
        <pt x="428" y="1284" on="0"/>
        <pt x="393" y="1307" on="0"/>
        <pt x="367" y="1307" on="1"/>
        <pt x="297" y="1297" on="0"/>
        <pt x="289" y="1196" on="1"/>
        <pt x="289" y="309" on="1"/>
        <pt x="289" y="297" on="0"/>
        <pt x="293" y="260" on="0"/>
        <pt x="332" y="199" on="0"/>
        <pt x="367" y="199" on="1"/>
        <pt x="408" y="199" on="0"/>
        <pt x="451" y="254" on="0"/>
        <pt x="451" y="283" on="1"/>
        <pt x="451" y="309" on="1"/>
        <pt x="451" y="516" on="1"/>
        <pt x="657" y="516" on="1"/>
        <pt x="657" y="309" on="1"/>
        <pt x="657" y="297" on="0"/>
        <pt x="653" y="252" on="0"/>
        <pt x="623" y="139" on="0"/>
        <pt x="567" y="53" on="0"/>
        <pt x="446" y="-16" on="0"/>
        <pt x="279" y="-16" on="0"/>
        <pt x="158" y="51" on="0"/>
        <pt x="102" y="147" on="0"/>
        <pt x="72" y="242" on="0"/>
        <pt x="70" y="274" on="1"/>
      </contour>
      <contour>
        <pt x="268" y="-111" on="1"/>
        <pt x="268" y="-252" on="1"/>
        <pt x="332" y="-252" on="1"/>
        <pt x="291" y="-385" on="1"/>
        <pt x="395" y="-385" on="1"/>
        <pt x="440" y="-252" on="1"/>
        <pt x="440" y="-111" on="1"/>
      </contour>
    </TTGlyph>
    <TTGlyph name="D" xMin="82" yMin="0" xMax="696" yMax="1505">
      <contour>
        <pt x="82" y="0" on="1"/>
        <pt x="82" y="1505" on="1"/>
        <pt x="256" y="1505" on="1"/>
        <pt x="346" y="1505" on="0"/>
        <pt x="473" y="1481" on="0"/>
        <pt x="571" y="1438" on="0"/>
        <pt x="633" y="1346" on="0"/>
        <pt x="672" y="1247" on="0"/>
        <pt x="690" y="1067" on="0"/>
        <pt x="696" y="893" on="0"/>
        <pt x="696" y="610" on="0"/>
        <pt x="690" y="436" on="0"/>
        <pt x="672" y="258" on="0"/>
        <pt x="633" y="160" on="0"/>
        <pt x="571" y="68" on="0"/>
        <pt x="473" y="25" on="0"/>
        <pt x="346" y="0" on="0"/>
        <pt x="256" y="0" on="1"/>
      </contour>
      <contour>
        <pt x="303" y="221" on="1"/>
        <pt x="420" y="221" on="0"/>
        <pt x="444" y="302" on="1"/>
        <pt x="467" y="377" on="0"/>
        <pt x="467" y="698" on="1"/>
        <pt x="467" y="725" on="0"/>
        <pt x="467" y="782" on="0"/>
        <pt x="467" y="809" on="1"/>
        <pt x="467" y="1131" on="0"/>
        <pt x="444" y="1204" on="1"/>
        <pt x="419" y="1284" on="0"/>
        <pt x="303" y="1284" on="1"/>
      </contour>
    </TTGlyph>
    <TTGlyph name="E" xMin="82" yMin="0" xMax="588" yMax="1505">
      <contour>
        <pt x="82" y="0" on="1"/>
        <pt x="82" y="1505" on="1"/>
        <pt x="588" y="1505" on="1"/>
        <pt x="588" y="1278" on="1"/>
        <pt x="303" y="1278" on="1"/>
        <pt x="303" y="883" on="1"/>
        <pt x="508" y="883" on="1"/>
        <pt x="508" y="641" on="1"/>
        <pt x="303" y="641" on="1"/>
        <pt x="303" y="227" on="1"/>
        <pt x="588" y="227" on="1"/>
        <pt x="588" y="0" on="1"/>
      </contour>
    </TTGlyph>
    <TTGlyph name="Eacute" xMin="82" yMin="0" xMax="588" yMax="1823">
      <contour>
        <pt x="82" y="0" on="1"/>
        <pt x="82" y="1505" on="1"/>
        <pt x="588" y="1505" on="1"/>
        <pt x="588" y="1278" on="1"/>
        <pt x="303" y="1278" on="1"/>
        <pt x="303" y="883" on="1"/>
        <pt x="508" y="883" on="1"/>
        <pt x="508" y="641" on="1"/>
        <pt x="303" y="641" on="1"/>
        <pt x="303" y="227" on="1"/>
        <pt x="588" y="227" on="1"/>
        <pt x="588" y="0" on="1"/>
      </contour>
      <contour>
        <pt x="236" y="1638" on="1"/>
        <pt x="342" y="1823" on="1"/>
        <pt x="557" y="1823" on="1"/>
        <pt x="395" y="1638" on="1"/>
      </contour>
    </TTGlyph>
    <TTGlyph name="Ecircumflex" xMin="82" yMin="0" xMax="588" yMax="1823">
      <contour>
        <pt x="82" y="0" on="1"/>
        <pt x="82" y="1505" on="1"/>
        <pt x="588" y="1505" on="1"/>
        <pt x="588" y="1278" on="1"/>
        <pt x="303" y="1278" on="1"/>
        <pt x="303" y="883" on="1"/>
        <pt x="508" y="883" on="1"/>
        <pt x="508" y="641" on="1"/>
        <pt x="303" y="641" on="1"/>
        <pt x="303" y="227" on="1"/>
        <pt x="588" y="227" on="1"/>
        <pt x="588" y="0" on="1"/>
      </contour>
      <contour>
        <pt x="84" y="1638" on="1"/>
        <pt x="225" y="1823" on="1"/>
        <pt x="444" y="1823" on="1"/>
        <pt x="586" y="1638" on="1"/>
        <pt x="397" y="1638" on="1"/>
        <pt x="334" y="1710" on="1"/>
        <pt x="272" y="1638" on="1"/>
      </contour>
    </TTGlyph>
    <TTGlyph name="Edieresis" xMin="82" yMin="0" xMax="588" yMax="1839">
      <contour>
        <pt x="82" y="0" on="1"/>
        <pt x="82" y="1505" on="1"/>
        <pt x="588" y="1505" on="1"/>
        <pt x="588" y="1278" on="1"/>
        <pt x="303" y="1278" on="1"/>
        <pt x="303" y="883" on="1"/>
        <pt x="508" y="883" on="1"/>
        <pt x="508" y="641" on="1"/>
        <pt x="303" y="641" on="1"/>
        <pt x="303" y="227" on="1"/>
        <pt x="588" y="227" on="1"/>
        <pt x="588" y="0" on="1"/>
      </contour>
      <contour>
        <pt x="94" y="1638" on="1"/>
        <pt x="94" y="1839" on="1"/>
        <pt x="285" y="1839" on="1"/>
        <pt x="285" y="1638" on="1"/>
      </contour>
      <contour>
        <pt x="383" y="1638" on="1"/>
        <pt x="383" y="1839" on="1"/>
        <pt x="573" y="1839" on="1"/>
        <pt x="573" y="1638" on="1"/>
      </contour>
    </TTGlyph>
    <TTGlyph name="Egrave" xMin="82" yMin="0" xMax="588" yMax="1823">
      <contour>
        <pt x="82" y="0" on="1"/>
        <pt x="82" y="1505" on="1"/>
        <pt x="588" y="1505" on="1"/>
        <pt x="588" y="1278" on="1"/>
        <pt x="303" y="1278" on="1"/>
        <pt x="303" y="883" on="1"/>
        <pt x="508" y="883" on="1"/>
        <pt x="508" y="641" on="1"/>
        <pt x="303" y="641" on="1"/>
        <pt x="303" y="227" on="1"/>
        <pt x="588" y="227" on="1"/>
        <pt x="588" y="0" on="1"/>
      </contour>
      <contour>
        <pt x="111" y="1823" on="1"/>
        <pt x="326" y="1823" on="1"/>
        <pt x="432" y="1638" on="1"/>
        <pt x="272" y="1638" on="1"/>
      </contour>
    </TTGlyph>
    <TTGlyph name="Eth" xMin="20" yMin="0" xMax="696" yMax="1505">
      <contour>
        <pt x="20" y="655" on="1"/>
        <pt x="20" y="883" on="1"/>
        <pt x="82" y="883" on="1"/>
        <pt x="82" y="1505" on="1"/>
        <pt x="256" y="1505" on="1"/>
        <pt x="346" y="1505" on="0"/>
        <pt x="473" y="1481" on="0"/>
        <pt x="571" y="1438" on="0"/>
        <pt x="633" y="1346" on="0"/>
        <pt x="672" y="1247" on="0"/>
        <pt x="690" y="1067" on="0"/>
        <pt x="696" y="893" on="0"/>
        <pt x="696" y="610" on="0"/>
        <pt x="690" y="436" on="0"/>
        <pt x="672" y="258" on="0"/>
        <pt x="633" y="160" on="0"/>
        <pt x="571" y="68" on="0"/>
        <pt x="473" y="25" on="0"/>
        <pt x="346" y="0" on="0"/>
        <pt x="256" y="0" on="1"/>
        <pt x="82" y="0" on="1"/>
        <pt x="82" y="655" on="1"/>
      </contour>
      <contour>
        <pt x="303" y="221" on="1"/>
        <pt x="420" y="221" on="0"/>
        <pt x="469" y="383" on="0"/>
        <pt x="467" y="754" on="1"/>
        <pt x="469" y="1125" on="0"/>
        <pt x="420" y="1284" on="0"/>
        <pt x="303" y="1284" on="1"/>
        <pt x="303" y="883" on="1"/>
        <pt x="387" y="883" on="1"/>
        <pt x="387" y="655" on="1"/>
        <pt x="303" y="655" on="1"/>
      </contour>
    </TTGlyph>
    <TTGlyph name="Euro" xMin="53" yMin="-16" xMax="750" yMax="1522">
      <contour>
        <pt x="53" y="547" on="1"/>
        <pt x="53" y="684" on="1"/>
        <pt x="160" y="684" on="1"/>
        <pt x="160" y="821" on="1"/>
        <pt x="53" y="821" on="1"/>
        <pt x="53" y="958" on="1"/>
        <pt x="160" y="958" on="1"/>
        <pt x="160" y="1196" on="1"/>
        <pt x="160" y="1208" on="0"/>
        <pt x="164" y="1253" on="0"/>
        <pt x="195" y="1366" on="0"/>
        <pt x="250" y="1452" on="0"/>
        <pt x="371" y="1522" on="0"/>
        <pt x="539" y="1522" on="0"/>
        <pt x="659" y="1454" on="0"/>
        <pt x="715" y="1360" on="0"/>
        <pt x="745" y="1264" on="0"/>
        <pt x="748" y="1229" on="1"/>
        <pt x="750" y="1196" on="1"/>
        <pt x="750" y="1112" on="1"/>
        <pt x="543" y="1112" on="1"/>
        <pt x="543" y="1196" on="1"/>
        <pt x="541" y="1196" on="0"/>
        <pt x="545" y="1219" on="0"/>
        <pt x="535" y="1251" on="0"/>
        <pt x="520" y="1284" on="0"/>
        <pt x="485" y="1307" on="0"/>
        <pt x="459" y="1307" on="1"/>
        <pt x="389" y="1297" on="0"/>
        <pt x="381" y="1196" on="1"/>
        <pt x="381" y="958" on="1"/>
        <pt x="614" y="958" on="1"/>
        <pt x="614" y="821" on="1"/>
        <pt x="381" y="821" on="1"/>
        <pt x="381" y="684" on="1"/>
        <pt x="614" y="684" on="1"/>
        <pt x="614" y="547" on="1"/>
        <pt x="381" y="547" on="1"/>
        <pt x="381" y="309" on="1"/>
        <pt x="381" y="297" on="0"/>
        <pt x="385" y="260" on="0"/>
        <pt x="424" y="199" on="0"/>
        <pt x="459" y="199" on="1"/>
        <pt x="500" y="199" on="0"/>
        <pt x="541" y="254" on="0"/>
        <pt x="541" y="283" on="1"/>
        <pt x="543" y="309" on="1"/>
        <pt x="543" y="393" on="1"/>
        <pt x="750" y="393" on="1"/>
        <pt x="750" y="309" on="1"/>
        <pt x="750" y="297" on="0"/>
        <pt x="745" y="252" on="0"/>
        <pt x="715" y="139" on="0"/>
        <pt x="659" y="53" on="0"/>
        <pt x="539" y="-16" on="0"/>
        <pt x="371" y="-16" on="0"/>
        <pt x="250" y="51" on="0"/>
        <pt x="195" y="147" on="0"/>
        <pt x="164" y="242" on="0"/>
        <pt x="162" y="274" on="1"/>
        <pt x="160" y="309" on="1"/>
        <pt x="160" y="547" on="1"/>
      </contour>
    </TTGlyph>
    <TTGlyph name="F" xMin="82" yMin="0" xMax="608" yMax="1505">
      <contour>
        <pt x="82" y="0" on="1"/>
        <pt x="82" y="1505" on="1"/>
        <pt x="608" y="1505" on="1"/>
        <pt x="608" y="1278" on="1"/>
        <pt x="303" y="1278" on="1"/>
        <pt x="303" y="883" on="1"/>
        <pt x="508" y="883" on="1"/>
        <pt x="508" y="655" on="1"/>
        <pt x="303" y="655" on="1"/>
        <pt x="303" y="0" on="1"/>
      </contour>
    </TTGlyph>
    <TTGlyph name="G" xMin="67" yMin="-16" xMax="657" yMax="1522">
      <contour>
        <pt x="68" y="309" on="1"/>
        <pt x="68" y="1196" on="1"/>
        <pt x="68" y="1208" on="0"/>
        <pt x="72" y="1253" on="0"/>
        <pt x="102" y="1366" on="0"/>
        <pt x="158" y="1452" on="0"/>
        <pt x="279" y="1522" on="0"/>
        <pt x="446" y="1522" on="0"/>
        <pt x="567" y="1454" on="0"/>
        <pt x="623" y="1360" on="0"/>
        <pt x="653" y="1264" on="0"/>
        <pt x="655" y="1229" on="1"/>
        <pt x="657" y="1196" on="1"/>
        <pt x="657" y="965" on="1"/>
        <pt x="436" y="965" on="1"/>
        <pt x="436" y="1196" on="1"/>
        <pt x="436" y="1208" on="0"/>
        <pt x="434" y="1245" on="0"/>
        <pt x="397" y="1307" on="0"/>
        <pt x="328" y="1307" on="0"/>
        <pt x="291" y="1251" on="0"/>
        <pt x="291" y="1225" on="1"/>
        <pt x="289" y="1196" on="1"/>
        <pt x="289" y="291" on="1"/>
        <pt x="289" y="279" on="0"/>
        <pt x="291" y="242" on="0"/>
        <pt x="328" y="180" on="0"/>
        <pt x="397" y="180" on="0"/>
        <pt x="434" y="236" on="0"/>
        <pt x="434" y="262" on="1"/>
        <pt x="436" y="291" on="1"/>
        <pt x="436" y="563" on="1"/>
        <pt x="348" y="563" on="1"/>
        <pt x="348" y="750" on="1"/>
        <pt x="657" y="750" on="1"/>
        <pt x="657" y="0" on="1"/>
        <pt x="526" y="0" on="1"/>
        <pt x="500" y="72" on="1"/>
        <pt x="430" y="-16" on="0"/>
        <pt x="328" y="-16" on="1"/>
        <pt x="125" y="-16" on="0"/>
        <pt x="78" y="197" on="1"/>
        <pt x="67" y="245" on="0"/>
        <pt x="67" y="286" on="1"/>
        <pt x="67" y="298" on="0"/>
      </contour>
    </TTGlyph>
    <TTGlyph name="H" xMin="82" yMin="0" xMax="696" yMax="1505">
      <contour>
        <pt x="82" y="0" on="1"/>
        <pt x="82" y="1505" on="1"/>
        <pt x="303" y="1505" on="1"/>
        <pt x="303" y="883" on="1"/>
        <pt x="475" y="883" on="1"/>
        <pt x="475" y="1505" on="1"/>
        <pt x="696" y="1505" on="1"/>
        <pt x="696" y="0" on="1"/>
        <pt x="475" y="0" on="1"/>
        <pt x="475" y="655" on="1"/>
        <pt x="303" y="655" on="1"/>
        <pt x="303" y="0" on="1"/>
      </contour>
    </TTGlyph>
    <TTGlyph name="I" xMin="82" yMin="0" xMax="303" yMax="1505">
      <contour>
        <pt x="82" y="0" on="1"/>
        <pt x="82" y="1505" on="1"/>
        <pt x="303" y="1505" on="1"/>
        <pt x="303" y="0" on="1"/>
      </contour>
    </TTGlyph>
    <TTGlyph name="Iacute" xMin="82" yMin="0" xMax="408" yMax="1823">
      <contour>
        <pt x="82" y="0" on="1"/>
        <pt x="82" y="1505" on="1"/>
        <pt x="303" y="1505" on="1"/>
        <pt x="303" y="0" on="1"/>
      </contour>
      <contour>
        <pt x="86" y="1638" on="1"/>
        <pt x="193" y="1823" on="1"/>
        <pt x="408" y="1823" on="1"/>
        <pt x="246" y="1638" on="1"/>
      </contour>
    </TTGlyph>
    <TTGlyph name="Icircumflex" xMin="-66" yMin="0" xMax="436" yMax="1823">
      <contour>
        <pt x="-66" y="1638" on="1"/>
        <pt x="76" y="1823" on="1"/>
        <pt x="295" y="1823" on="1"/>
        <pt x="436" y="1638" on="1"/>
        <pt x="248" y="1638" on="1"/>
        <pt x="184" y="1710" on="1"/>
        <pt x="123" y="1638" on="1"/>
      </contour>
      <contour>
        <pt x="74" y="0" on="1"/>
        <pt x="74" y="1505" on="1"/>
        <pt x="295" y="1505" on="1"/>
        <pt x="295" y="0" on="1"/>
      </contour>
    </TTGlyph>
    <TTGlyph name="Idieresis" xMin="-53" yMin="0" xMax="426" yMax="1839">
      <contour>
        <pt x="-53" y="1638" on="1"/>
        <pt x="-53" y="1839" on="1"/>
        <pt x="137" y="1839" on="1"/>
        <pt x="137" y="1638" on="1"/>
      </contour>
      <contour>
        <pt x="76" y="0" on="1"/>
        <pt x="76" y="1505" on="1"/>
        <pt x="297" y="1505" on="1"/>
        <pt x="297" y="0" on="1"/>
      </contour>
      <contour>
        <pt x="236" y="1638" on="1"/>
        <pt x="236" y="1839" on="1"/>
        <pt x="426" y="1839" on="1"/>
        <pt x="426" y="1638" on="1"/>
      </contour>
    </TTGlyph>
    <TTGlyph name="Igrave" xMin="-6" yMin="0" xMax="319" yMax="1823">
      <contour>
        <pt x="-6" y="1823" on="1"/>
        <pt x="209" y="1823" on="1"/>
        <pt x="315" y="1638" on="1"/>
        <pt x="156" y="1638" on="1"/>
      </contour>
      <contour>
        <pt x="98" y="0" on="1"/>
        <pt x="98" y="1505" on="1"/>
        <pt x="319" y="1505" on="1"/>
        <pt x="319" y="0" on="1"/>
      </contour>
    </TTGlyph>
    <TTGlyph name="J" xMin="12" yMin="-15" xMax="352" yMax="1505">
      <contour>
        <pt x="12" y="-14" on="1"/>
        <pt x="12" y="203" on="1"/>
        <pt x="16" y="203" on="0"/>
        <pt x="33" y="201" on="0"/>
        <pt x="74" y="207" on="0"/>
        <pt x="104" y="225" on="0"/>
        <pt x="131" y="276" on="0"/>
        <pt x="131" y="313" on="1"/>
        <pt x="131" y="1505" on="1"/>
        <pt x="352" y="1505" on="1"/>
        <pt x="352" y="279" on="1"/>
        <pt x="352" y="142" on="0"/>
        <pt x="273" y="58" on="1"/>
        <pt x="203" y="-16" on="0"/>
        <pt x="51" y="-15" on="1"/>
        <pt x="32" y="-15" on="0"/>
      </contour>
    </TTGlyph>
    <TTGlyph name="K" xMin="82" yMin="0" xMax="748" yMax="1505">
      <contour>
        <pt x="82" y="0" on="1"/>
        <pt x="82" y="1505" on="1"/>
        <pt x="303" y="1505" on="1"/>
        <pt x="303" y="1004" on="1"/>
        <pt x="303" y="979" on="1"/>
        <pt x="311" y="979" on="1"/>
        <pt x="322" y="1004" on="1"/>
        <pt x="506" y="1505" on="1"/>
        <pt x="721" y="1505" on="1"/>
        <pt x="518" y="1010" on="1"/>
        <pt x="748" y="0" on="1"/>
        <pt x="532" y="0" on="1"/>
        <pt x="379" y="655" on="1"/>
        <pt x="373" y="686" on="1"/>
        <pt x="367" y="686" on="1"/>
        <pt x="354" y="655" on="1"/>
        <pt x="303" y="532" on="1"/>
        <pt x="303" y="0" on="1"/>
      </contour>
    </TTGlyph>
    <TTGlyph name="L" xMin="82" yMin="0" xMax="596" yMax="1505">
      <contour>
        <pt x="82" y="0" on="1"/>
        <pt x="82" y="1505" on="1"/>
        <pt x="303" y="1505" on="1"/>
        <pt x="303" y="205" on="1"/>
        <pt x="596" y="205" on="1"/>
        <pt x="596" y="0" on="1"/>
      </contour>
    </TTGlyph>
    <TTGlyph name="Lslash" xMin="41" yMin="0" xMax="621" yMax="1505">
      <contour>
        <pt x="41" y="561" on="1"/>
        <pt x="41" y="782" on="1"/>
        <pt x="106" y="834" on="1"/>
        <pt x="106" y="1505" on="1"/>
        <pt x="328" y="1505" on="1"/>
        <pt x="328" y="1006" on="1"/>
        <pt x="449" y="1100" on="1"/>
        <pt x="449" y="879" on="1"/>
        <pt x="328" y="784" on="1"/>
        <pt x="328" y="205" on="1"/>
        <pt x="621" y="205" on="1"/>
        <pt x="621" y="0" on="1"/>
        <pt x="106" y="0" on="1"/>
        <pt x="106" y="612" on="1"/>
      </contour>
    </TTGlyph>
    <TTGlyph name="M" xMin="82" yMin="0" xMax="909" yMax="1505">
      <contour>
        <pt x="82" y="0" on="1"/>
        <pt x="82" y="1505" on="1"/>
        <pt x="352" y="1505" on="1"/>
        <pt x="483" y="817" on="1"/>
        <pt x="494" y="737" on="1"/>
        <pt x="498" y="737" on="1"/>
        <pt x="508" y="817" on="1"/>
        <pt x="639" y="1505" on="1"/>
        <pt x="909" y="1505" on="1"/>
        <pt x="909" y="0" on="1"/>
        <pt x="705" y="0" on="1"/>
        <pt x="705" y="946" on="1"/>
        <pt x="705" y="1010" on="1"/>
        <pt x="692" y="1010" on="1"/>
        <pt x="684" y="946" on="1"/>
        <pt x="543" y="0" on="1"/>
        <pt x="449" y="0" on="1"/>
        <pt x="307" y="946" on="1"/>
        <pt x="299" y="1010" on="1"/>
        <pt x="287" y="1010" on="1"/>
        <pt x="287" y="946" on="1"/>
        <pt x="287" y="0" on="1"/>
      </contour>
    </TTGlyph>
    <TTGlyph name="N" xMin="82" yMin="0" xMax="727" yMax="1505">
      <contour>
        <pt x="82" y="0" on="1"/>
        <pt x="82" y="1505" on="1"/>
        <pt x="279" y="1505" on="1"/>
        <pt x="494" y="721" on="1"/>
        <pt x="512" y="651" on="1"/>
        <pt x="524" y="651" on="1"/>
        <pt x="524" y="721" on="1"/>
        <pt x="524" y="1505" on="1"/>
        <pt x="727" y="1505" on="1"/>
        <pt x="727" y="0" on="1"/>
        <pt x="530" y="0" on="1"/>
        <pt x="315" y="784" on="1"/>
        <pt x="297" y="854" on="1"/>
        <pt x="285" y="854" on="1"/>
        <pt x="285" y="784" on="1"/>
        <pt x="285" y="0" on="1"/>
      </contour>
    </TTGlyph>
    <TTGlyph name="Ntilde" xMin="82" yMin="0" xMax="727" yMax="1823">
      <contour>
        <pt x="82" y="0" on="1"/>
        <pt x="82" y="1505" on="1"/>
        <pt x="279" y="1505" on="1"/>
        <pt x="494" y="721" on="1"/>
        <pt x="512" y="651" on="1"/>
        <pt x="524" y="651" on="1"/>
        <pt x="524" y="721" on="1"/>
        <pt x="524" y="1505" on="1"/>
        <pt x="727" y="1505" on="1"/>
        <pt x="727" y="0" on="1"/>
        <pt x="530" y="0" on="1"/>
        <pt x="315" y="784" on="1"/>
        <pt x="297" y="854" on="1"/>
        <pt x="285" y="854" on="1"/>
        <pt x="285" y="784" on="1"/>
        <pt x="285" y="0" on="1"/>
      </contour>
      <contour>
        <pt x="207" y="1632" on="1"/>
        <pt x="207" y="1784" on="1"/>
        <pt x="256" y="1823" on="0"/>
        <pt x="315" y="1823" on="1"/>
        <pt x="348" y="1823" on="0"/>
        <pt x="465" y="1786" on="0"/>
        <pt x="496" y="1784" on="1"/>
        <pt x="521" y="1784" on="0"/>
        <pt x="575" y="1800" on="0"/>
        <pt x="590" y="1808" on="1"/>
        <pt x="604" y="1817" on="1"/>
        <pt x="604" y="1665" on="1"/>
        <pt x="553" y="1626" on="0"/>
        <pt x="496" y="1626" on="1"/>
        <pt x="465" y="1626" on="0"/>
        <pt x="348" y="1665" on="0"/>
        <pt x="315" y="1665" on="1"/>
        <pt x="290" y="1665" on="0"/>
        <pt x="236" y="1649" on="0"/>
        <pt x="221" y="1640" on="1"/>
      </contour>
    </TTGlyph>
    <TTGlyph name="O" xMin="68" yMin="-16" xMax="657" yMax="1522">
      <contour>
        <pt x="68" y="309" on="1"/>
        <pt x="68" y="1196" on="1"/>
        <pt x="68" y="1208" on="0"/>
        <pt x="72" y="1253" on="0"/>
        <pt x="102" y="1366" on="0"/>
        <pt x="158" y="1452" on="0"/>
        <pt x="279" y="1522" on="0"/>
        <pt x="446" y="1522" on="0"/>
        <pt x="567" y="1454" on="0"/>
        <pt x="623" y="1360" on="0"/>
        <pt x="653" y="1264" on="0"/>
        <pt x="655" y="1229" on="1"/>
        <pt x="657" y="1196" on="1"/>
        <pt x="657" y="309" on="1"/>
        <pt x="657" y="297" on="0"/>
        <pt x="653" y="252" on="0"/>
        <pt x="623" y="139" on="0"/>
        <pt x="567" y="53" on="0"/>
        <pt x="446" y="-16" on="0"/>
        <pt x="279" y="-16" on="0"/>
        <pt x="158" y="51" on="0"/>
        <pt x="102" y="147" on="0"/>
        <pt x="72" y="242" on="0"/>
        <pt x="70" y="274" on="1"/>
      </contour>
      <contour>
        <pt x="289" y="309" on="1"/>
        <pt x="289" y="297" on="0"/>
        <pt x="291" y="260" on="0"/>
        <pt x="328" y="199" on="0"/>
        <pt x="397" y="199" on="0"/>
        <pt x="434" y="254" on="0"/>
        <pt x="434" y="283" on="1"/>
        <pt x="436" y="309" on="1"/>
        <pt x="436" y="1196" on="1"/>
        <pt x="436" y="1208" on="0"/>
        <pt x="434" y="1245" on="0"/>
        <pt x="397" y="1307" on="0"/>
        <pt x="328" y="1307" on="0"/>
        <pt x="291" y="1251" on="0"/>
        <pt x="291" y="1225" on="1"/>
        <pt x="289" y="1196" on="1"/>
      </contour>
    </TTGlyph>
    <TTGlyph name="OE" xMin="68" yMin="0" xMax="942" yMax="1505">
      <contour>
        <pt x="68" y="309" on="1"/>
        <pt x="68" y="1196" on="1"/>
        <pt x="68" y="1208" on="0"/>
        <pt x="72" y="1251" on="0"/>
        <pt x="102" y="1358" on="0"/>
        <pt x="158" y="1438" on="0"/>
        <pt x="279" y="1505" on="0"/>
        <pt x="362" y="1505" on="1"/>
        <pt x="942" y="1505" on="1"/>
        <pt x="942" y="1278" on="1"/>
        <pt x="657" y="1278" on="1"/>
        <pt x="657" y="883" on="1"/>
        <pt x="862" y="883" on="1"/>
        <pt x="862" y="641" on="1"/>
        <pt x="657" y="641" on="1"/>
        <pt x="657" y="227" on="1"/>
        <pt x="942" y="227" on="1"/>
        <pt x="942" y="0" on="1"/>
        <pt x="362" y="0" on="1"/>
        <pt x="278" y="0" on="0"/>
        <pt x="158" y="63" on="0"/>
        <pt x="102" y="156" on="0"/>
        <pt x="72" y="246" on="0"/>
        <pt x="70" y="279" on="1"/>
      </contour>
      <contour>
        <pt x="289" y="309" on="1"/>
        <pt x="289" y="297" on="0"/>
        <pt x="291" y="260" on="0"/>
        <pt x="328" y="199" on="0"/>
        <pt x="397" y="199" on="0"/>
        <pt x="434" y="254" on="0"/>
        <pt x="434" y="283" on="1"/>
        <pt x="436" y="309" on="1"/>
        <pt x="436" y="1210" on="1"/>
        <pt x="430" y="1306" on="0"/>
        <pt x="362" y="1307" on="1"/>
        <pt x="327" y="1307" on="0"/>
        <pt x="291" y="1251" on="0"/>
        <pt x="291" y="1225" on="1"/>
        <pt x="289" y="1196" on="1"/>
      </contour>
    </TTGlyph>
    <TTGlyph name="Oacute" xMin="68" yMin="-16" xMax="657" yMax="1823">
      <contour>
        <pt x="68" y="309" on="1"/>
        <pt x="68" y="1196" on="1"/>
        <pt x="68" y="1208" on="0"/>
        <pt x="72" y="1253" on="0"/>
        <pt x="102" y="1366" on="0"/>
        <pt x="158" y="1452" on="0"/>
        <pt x="279" y="1522" on="0"/>
        <pt x="446" y="1522" on="0"/>
        <pt x="567" y="1454" on="0"/>
        <pt x="623" y="1360" on="0"/>
        <pt x="653" y="1264" on="0"/>
        <pt x="655" y="1229" on="1"/>
        <pt x="657" y="1196" on="1"/>
        <pt x="657" y="309" on="1"/>
        <pt x="657" y="297" on="0"/>
        <pt x="653" y="252" on="0"/>
        <pt x="623" y="139" on="0"/>
        <pt x="567" y="53" on="0"/>
        <pt x="446" y="-16" on="0"/>
        <pt x="279" y="-16" on="0"/>
        <pt x="158" y="51" on="0"/>
        <pt x="102" y="147" on="0"/>
        <pt x="72" y="242" on="0"/>
        <pt x="70" y="274" on="1"/>
      </contour>
      <contour>
        <pt x="285" y="1638" on="1"/>
        <pt x="391" y="1823" on="1"/>
        <pt x="606" y="1823" on="1"/>
        <pt x="444" y="1638" on="1"/>
      </contour>
      <contour>
        <pt x="289" y="309" on="1"/>
        <pt x="289" y="297" on="0"/>
        <pt x="291" y="260" on="0"/>
        <pt x="328" y="199" on="0"/>
        <pt x="397" y="199" on="0"/>
        <pt x="434" y="254" on="0"/>
        <pt x="434" y="283" on="1"/>
        <pt x="436" y="309" on="1"/>
        <pt x="436" y="1196" on="1"/>
        <pt x="436" y="1208" on="0"/>
        <pt x="434" y="1245" on="0"/>
        <pt x="397" y="1307" on="0"/>
        <pt x="328" y="1307" on="0"/>
        <pt x="291" y="1251" on="0"/>
        <pt x="291" y="1225" on="1"/>
        <pt x="289" y="1196" on="1"/>
      </contour>
    </TTGlyph>
    <TTGlyph name="Ocircumflex" xMin="68" yMin="-16" xMax="657" yMax="1823">
      <contour>
        <pt x="68" y="309" on="1"/>
        <pt x="68" y="1196" on="1"/>
        <pt x="68" y="1208" on="0"/>
        <pt x="72" y="1253" on="0"/>
        <pt x="102" y="1366" on="0"/>
        <pt x="158" y="1452" on="0"/>
        <pt x="279" y="1522" on="0"/>
        <pt x="446" y="1522" on="0"/>
        <pt x="567" y="1454" on="0"/>
        <pt x="623" y="1360" on="0"/>
        <pt x="653" y="1264" on="0"/>
        <pt x="655" y="1229" on="1"/>
        <pt x="657" y="1196" on="1"/>
        <pt x="657" y="309" on="1"/>
        <pt x="657" y="297" on="0"/>
        <pt x="653" y="252" on="0"/>
        <pt x="623" y="139" on="0"/>
        <pt x="567" y="53" on="0"/>
        <pt x="446" y="-16" on="0"/>
        <pt x="279" y="-16" on="0"/>
        <pt x="158" y="51" on="0"/>
        <pt x="102" y="147" on="0"/>
        <pt x="72" y="242" on="0"/>
        <pt x="70" y="274" on="1"/>
      </contour>
      <contour>
        <pt x="113" y="1638" on="1"/>
        <pt x="254" y="1823" on="1"/>
        <pt x="473" y="1823" on="1"/>
        <pt x="614" y="1638" on="1"/>
        <pt x="426" y="1638" on="1"/>
        <pt x="362" y="1710" on="1"/>
        <pt x="301" y="1638" on="1"/>
      </contour>
      <contour>
        <pt x="289" y="309" on="1"/>
        <pt x="289" y="297" on="0"/>
        <pt x="291" y="260" on="0"/>
        <pt x="328" y="199" on="0"/>
        <pt x="397" y="199" on="0"/>
        <pt x="434" y="254" on="0"/>
        <pt x="434" y="283" on="1"/>
        <pt x="436" y="309" on="1"/>
        <pt x="436" y="1196" on="1"/>
        <pt x="436" y="1208" on="0"/>
        <pt x="434" y="1245" on="0"/>
        <pt x="397" y="1307" on="0"/>
        <pt x="328" y="1307" on="0"/>
        <pt x="291" y="1251" on="0"/>
        <pt x="291" y="1225" on="1"/>
        <pt x="289" y="1196" on="1"/>
      </contour>
    </TTGlyph>
    <TTGlyph name="Odieresis" xMin="68" yMin="-16" xMax="657" yMax="1839">
      <contour>
        <pt x="68" y="309" on="1"/>
        <pt x="68" y="1196" on="1"/>
        <pt x="68" y="1208" on="0"/>
        <pt x="72" y="1253" on="0"/>
        <pt x="102" y="1366" on="0"/>
        <pt x="158" y="1452" on="0"/>
        <pt x="279" y="1522" on="0"/>
        <pt x="446" y="1522" on="0"/>
        <pt x="567" y="1454" on="0"/>
        <pt x="623" y="1360" on="0"/>
        <pt x="653" y="1264" on="0"/>
        <pt x="655" y="1229" on="1"/>
        <pt x="657" y="1196" on="1"/>
        <pt x="657" y="309" on="1"/>
        <pt x="657" y="297" on="0"/>
        <pt x="653" y="252" on="0"/>
        <pt x="623" y="139" on="0"/>
        <pt x="567" y="53" on="0"/>
        <pt x="446" y="-16" on="0"/>
        <pt x="279" y="-16" on="0"/>
        <pt x="158" y="51" on="0"/>
        <pt x="102" y="147" on="0"/>
        <pt x="72" y="242" on="0"/>
        <pt x="70" y="274" on="1"/>
      </contour>
      <contour>
        <pt x="123" y="1638" on="1"/>
        <pt x="123" y="1839" on="1"/>
        <pt x="313" y="1839" on="1"/>
        <pt x="313" y="1638" on="1"/>
      </contour>
      <contour>
        <pt x="289" y="309" on="1"/>
        <pt x="289" y="297" on="0"/>
        <pt x="291" y="260" on="0"/>
        <pt x="328" y="199" on="0"/>
        <pt x="397" y="199" on="0"/>
        <pt x="434" y="254" on="0"/>
        <pt x="434" y="283" on="1"/>
        <pt x="436" y="309" on="1"/>
        <pt x="436" y="1196" on="1"/>
        <pt x="436" y="1208" on="0"/>
        <pt x="434" y="1245" on="0"/>
        <pt x="397" y="1307" on="0"/>
        <pt x="328" y="1307" on="0"/>
        <pt x="291" y="1251" on="0"/>
        <pt x="291" y="1225" on="1"/>
        <pt x="289" y="1196" on="1"/>
      </contour>
      <contour>
        <pt x="412" y="1638" on="1"/>
        <pt x="412" y="1839" on="1"/>
        <pt x="602" y="1839" on="1"/>
        <pt x="602" y="1638" on="1"/>
      </contour>
    </TTGlyph>
    <TTGlyph name="Ograve" xMin="68" yMin="-16" xMax="657" yMax="1823">
      <contour>
        <pt x="68" y="309" on="1"/>
        <pt x="68" y="1196" on="1"/>
        <pt x="68" y="1208" on="0"/>
        <pt x="72" y="1253" on="0"/>
        <pt x="102" y="1366" on="0"/>
        <pt x="158" y="1452" on="0"/>
        <pt x="279" y="1522" on="0"/>
        <pt x="446" y="1522" on="0"/>
        <pt x="567" y="1454" on="0"/>
        <pt x="623" y="1360" on="0"/>
        <pt x="653" y="1264" on="0"/>
        <pt x="655" y="1229" on="1"/>
        <pt x="657" y="1196" on="1"/>
        <pt x="657" y="309" on="1"/>
        <pt x="657" y="297" on="0"/>
        <pt x="653" y="252" on="0"/>
        <pt x="623" y="139" on="0"/>
        <pt x="567" y="53" on="0"/>
        <pt x="446" y="-16" on="0"/>
        <pt x="279" y="-16" on="0"/>
        <pt x="158" y="51" on="0"/>
        <pt x="102" y="147" on="0"/>
        <pt x="72" y="242" on="0"/>
        <pt x="70" y="274" on="1"/>
      </contour>
      <contour>
        <pt x="121" y="1823" on="1"/>
        <pt x="336" y="1823" on="1"/>
        <pt x="442" y="1638" on="1"/>
        <pt x="283" y="1638" on="1"/>
      </contour>
      <contour>
        <pt x="289" y="309" on="1"/>
        <pt x="289" y="297" on="0"/>
        <pt x="291" y="260" on="0"/>
        <pt x="328" y="199" on="0"/>
        <pt x="397" y="199" on="0"/>
        <pt x="434" y="254" on="0"/>
        <pt x="434" y="283" on="1"/>
        <pt x="436" y="309" on="1"/>
        <pt x="436" y="1196" on="1"/>
        <pt x="436" y="1208" on="0"/>
        <pt x="434" y="1245" on="0"/>
        <pt x="397" y="1307" on="0"/>
        <pt x="328" y="1307" on="0"/>
        <pt x="291" y="1251" on="0"/>
        <pt x="291" y="1225" on="1"/>
        <pt x="289" y="1196" on="1"/>
      </contour>
    </TTGlyph>
    <TTGlyph name="Oslash" xMin="59" yMin="-20" xMax="657" yMax="1526">
      <contour>
        <pt x="59" y="-20" on="1"/>
        <pt x="106" y="137" on="1"/>
        <pt x="88" y="174" on="0"/>
        <pt x="70" y="260" on="0"/>
        <pt x="70" y="285" on="1"/>
        <pt x="68" y="309" on="1"/>
        <pt x="68" y="1196" on="1"/>
        <pt x="68" y="1208" on="0"/>
        <pt x="72" y="1253" on="0"/>
        <pt x="102" y="1366" on="0"/>
        <pt x="158" y="1452" on="0"/>
        <pt x="279" y="1522" on="0"/>
        <pt x="362" y="1522" on="1"/>
        <pt x="454" y="1522" on="0"/>
        <pt x="520" y="1479" on="1"/>
        <pt x="535" y="1526" on="1"/>
        <pt x="657" y="1526" on="1"/>
        <pt x="612" y="1376" on="1"/>
        <pt x="632" y="1337" on="0"/>
        <pt x="655" y="1247" on="0"/>
        <pt x="655" y="1221" on="1"/>
        <pt x="657" y="1196" on="1"/>
        <pt x="657" y="309" on="1"/>
        <pt x="657" y="297" on="0"/>
        <pt x="653" y="252" on="0"/>
        <pt x="623" y="139" on="0"/>
        <pt x="567" y="53" on="0"/>
        <pt x="446" y="-16" on="0"/>
        <pt x="362" y="-16" on="1"/>
        <pt x="266" y="-16" on="0"/>
        <pt x="203" y="27" on="1"/>
        <pt x="188" y="-20" on="1"/>
      </contour>
      <contour>
        <pt x="289" y="309" on="1"/>
        <pt x="289" y="297" on="0"/>
        <pt x="291" y="260" on="0"/>
        <pt x="328" y="199" on="0"/>
        <pt x="397" y="199" on="0"/>
        <pt x="434" y="254" on="0"/>
        <pt x="434" y="283" on="1"/>
        <pt x="436" y="309" on="1"/>
        <pt x="436" y="797" on="1"/>
      </contour>
      <contour>
        <pt x="289" y="727" on="1"/>
        <pt x="436" y="1206" on="1"/>
        <pt x="428" y="1306" on="0"/>
        <pt x="362" y="1307" on="1"/>
        <pt x="327" y="1307" on="0"/>
        <pt x="291" y="1251" on="0"/>
        <pt x="291" y="1225" on="1"/>
        <pt x="289" y="1196" on="1"/>
      </contour>
    </TTGlyph>
    <TTGlyph name="Otilde" xMin="68" yMin="-16" xMax="657" yMax="1823">
      <contour>
        <pt x="68" y="309" on="1"/>
        <pt x="68" y="1196" on="1"/>
        <pt x="68" y="1208" on="0"/>
        <pt x="72" y="1253" on="0"/>
        <pt x="102" y="1366" on="0"/>
        <pt x="158" y="1452" on="0"/>
        <pt x="279" y="1522" on="0"/>
        <pt x="446" y="1522" on="0"/>
        <pt x="567" y="1454" on="0"/>
        <pt x="623" y="1360" on="0"/>
        <pt x="653" y="1264" on="0"/>
        <pt x="655" y="1229" on="1"/>
        <pt x="657" y="1196" on="1"/>
        <pt x="657" y="309" on="1"/>
        <pt x="657" y="297" on="0"/>
        <pt x="653" y="252" on="0"/>
        <pt x="623" y="139" on="0"/>
        <pt x="567" y="53" on="0"/>
        <pt x="446" y="-16" on="0"/>
        <pt x="279" y="-16" on="0"/>
        <pt x="158" y="51" on="0"/>
        <pt x="102" y="147" on="0"/>
        <pt x="72" y="242" on="0"/>
        <pt x="70" y="274" on="1"/>
      </contour>
      <contour>
        <pt x="164" y="1632" on="1"/>
        <pt x="164" y="1784" on="1"/>
        <pt x="213" y="1823" on="0"/>
        <pt x="272" y="1823" on="1"/>
        <pt x="305" y="1823" on="0"/>
        <pt x="422" y="1786" on="0"/>
        <pt x="453" y="1784" on="1"/>
        <pt x="478" y="1784" on="0"/>
        <pt x="532" y="1800" on="0"/>
        <pt x="547" y="1808" on="1"/>
        <pt x="561" y="1817" on="1"/>
        <pt x="561" y="1665" on="1"/>
        <pt x="510" y="1626" on="0"/>
        <pt x="453" y="1626" on="1"/>
        <pt x="422" y="1626" on="0"/>
        <pt x="305" y="1665" on="0"/>
        <pt x="272" y="1665" on="1"/>
        <pt x="247" y="1665" on="0"/>
        <pt x="193" y="1649" on="0"/>
        <pt x="178" y="1640" on="1"/>
      </contour>
      <contour>
        <pt x="289" y="309" on="1"/>
        <pt x="289" y="297" on="0"/>
        <pt x="291" y="260" on="0"/>
        <pt x="328" y="199" on="0"/>
        <pt x="397" y="199" on="0"/>
        <pt x="434" y="254" on="0"/>
        <pt x="434" y="283" on="1"/>
        <pt x="436" y="309" on="1"/>
        <pt x="436" y="1196" on="1"/>
        <pt x="436" y="1208" on="0"/>
        <pt x="434" y="1245" on="0"/>
        <pt x="397" y="1307" on="0"/>
        <pt x="328" y="1307" on="0"/>
        <pt x="291" y="1251" on="0"/>
        <pt x="291" y="1225" on="1"/>
        <pt x="289" y="1196" on="1"/>
      </contour>
    </TTGlyph>
    <TTGlyph name="P" xMin="82" yMin="0" xMax="692" yMax="1505">
      <contour>
        <pt x="82" y="0" on="1"/>
        <pt x="82" y="1505" on="1"/>
        <pt x="303" y="1505" on="1"/>
        <pt x="469" y="1505" on="0"/>
        <pt x="692" y="1294" on="0"/>
        <pt x="692" y="815" on="0"/>
        <pt x="469" y="602" on="0"/>
        <pt x="303" y="602" on="1"/>
        <pt x="303" y="0" on="1"/>
      </contour>
      <contour>
        <pt x="303" y="827" on="1"/>
        <pt x="405" y="827" on="0"/>
        <pt x="469" y="918" on="0"/>
        <pt x="469" y="1047" on="1"/>
        <pt x="469" y="1178" on="0"/>
        <pt x="403" y="1280" on="0"/>
        <pt x="303" y="1280" on="1"/>
      </contour>
    </TTGlyph>
    <TTGlyph name="Q" xMin="68" yMin="-115" xMax="700" yMax="1522">
      <contour>
        <pt x="68" y="309" on="1"/>
        <pt x="68" y="1196" on="1"/>
        <pt x="68" y="1208" on="0"/>
        <pt x="72" y="1253" on="0"/>
        <pt x="102" y="1366" on="0"/>
        <pt x="158" y="1452" on="0"/>
        <pt x="279" y="1522" on="0"/>
        <pt x="446" y="1522" on="0"/>
        <pt x="567" y="1454" on="0"/>
        <pt x="623" y="1360" on="0"/>
        <pt x="653" y="1264" on="0"/>
        <pt x="655" y="1229" on="1"/>
        <pt x="657" y="1196" on="1"/>
        <pt x="657" y="309" on="1"/>
        <pt x="657" y="215" on="0"/>
        <pt x="612" y="127" on="1"/>
        <pt x="645" y="84" on="0"/>
        <pt x="700" y="74" on="1"/>
        <pt x="700" y="-115" on="1"/>
        <pt x="540" y="-115" on="0"/>
        <pt x="473" y="2" on="1"/>
        <pt x="418" y="-16" on="0"/>
        <pt x="362" y="-16" on="1"/>
        <pt x="278" y="-16" on="0"/>
        <pt x="158" y="51" on="0"/>
        <pt x="102" y="147" on="0"/>
        <pt x="72" y="242" on="0"/>
        <pt x="70" y="274" on="1"/>
      </contour>
      <contour>
        <pt x="289" y="309" on="1"/>
        <pt x="289" y="297" on="0"/>
        <pt x="291" y="260" on="0"/>
        <pt x="328" y="199" on="0"/>
        <pt x="397" y="199" on="0"/>
        <pt x="434" y="254" on="0"/>
        <pt x="434" y="283" on="1"/>
        <pt x="436" y="309" on="1"/>
        <pt x="436" y="1196" on="1"/>
        <pt x="436" y="1208" on="0"/>
        <pt x="434" y="1245" on="0"/>
        <pt x="397" y="1307" on="0"/>
        <pt x="328" y="1307" on="0"/>
        <pt x="291" y="1251" on="0"/>
        <pt x="291" y="1225" on="1"/>
        <pt x="289" y="1196" on="1"/>
      </contour>
    </TTGlyph>
    <TTGlyph name="R" xMin="82" yMin="0" xMax="698" yMax="1505">
      <contour>
        <pt x="82" y="0" on="1"/>
        <pt x="82" y="1505" on="1"/>
        <pt x="303" y="1505" on="1"/>
        <pt x="680" y="1505" on="0"/>
        <pt x="680" y="1071" on="1"/>
        <pt x="680" y="813" on="0"/>
        <pt x="557" y="729" on="1"/>
        <pt x="698" y="0" on="1"/>
        <pt x="477" y="0" on="1"/>
        <pt x="362" y="635" on="1"/>
        <pt x="303" y="635" on="1"/>
        <pt x="303" y="0" on="1"/>
      </contour>
      <contour>
        <pt x="303" y="840" on="1"/>
        <pt x="334" y="840" on="0"/>
        <pt x="377" y="850" on="0"/>
        <pt x="436" y="889" on="0"/>
        <pt x="467" y="987" on="0"/>
        <pt x="467" y="1139" on="0"/>
        <pt x="436" y="1237" on="0"/>
        <pt x="377" y="1276" on="0"/>
        <pt x="334" y="1286" on="0"/>
        <pt x="303" y="1286" on="1"/>
      </contour>
    </TTGlyph>
    <TTGlyph name="S" xMin="37" yMin="-16" xMax="666" yMax="1522">
      <contour>
        <pt x="37" y="422" on="1"/>
        <pt x="254" y="442" on="1"/>
        <pt x="254" y="186" on="0"/>
        <pt x="358" y="186" on="1"/>
        <pt x="448" y="186" on="0"/>
        <pt x="449" y="352" on="1"/>
        <pt x="449" y="381" on="0"/>
        <pt x="432" y="442" on="0"/>
        <pt x="385" y="528" on="0"/>
        <pt x="358" y="569" on="0"/>
        <pt x="279" y="686" on="0"/>
        <pt x="270" y="700" on="1"/>
        <pt x="204" y="796" on="0"/>
        <pt x="131" y="920" on="0"/>
        <pt x="68" y="1094" on="0"/>
        <pt x="68" y="1169" on="1"/>
        <pt x="68" y="1308" on="0"/>
        <pt x="211" y="1520" on="0"/>
        <pt x="356" y="1522" on="1"/>
        <pt x="361" y="1522" on="0"/>
        <pt x="366" y="1522" on="1"/>
        <pt x="454" y="1522" on="0"/>
        <pt x="516" y="1487" on="1"/>
        <pt x="582" y="1450" on="0"/>
        <pt x="641" y="1321" on="0"/>
        <pt x="666" y="1196" on="0"/>
        <pt x="666" y="1122" on="1"/>
        <pt x="449" y="1102" on="1"/>
        <pt x="449" y="1319" on="0"/>
        <pt x="360" y="1319" on="1"/>
        <pt x="284" y="1317" on="0"/>
        <pt x="285" y="1169" on="1"/>
        <pt x="285" y="1151" on="0"/>
        <pt x="293" y="1108" on="0"/>
        <pt x="305" y="1073" on="0"/>
        <pt x="330" y="1022" on="0"/>
        <pt x="346" y="993" on="0"/>
        <pt x="385" y="934" on="0"/>
        <pt x="403" y="907" on="0"/>
        <pt x="451" y="840" on="0"/>
        <pt x="459" y="827" on="1"/>
        <pt x="533" y="716" on="0"/>
        <pt x="594" y="618" on="0"/>
        <pt x="666" y="438" on="0"/>
        <pt x="666" y="362" on="1"/>
        <pt x="666" y="-17" on="0"/>
        <pt x="358" y="-16" on="1"/>
        <pt x="276" y="-16" on="0"/>
        <pt x="156" y="35" on="0"/>
        <pt x="88" y="111" on="0"/>
        <pt x="49" y="233" on="0"/>
        <pt x="37" y="346" on="0"/>
      </contour>
    </TTGlyph>
    <TTGlyph name="Scaron" xMin="37" yMin="-16" xMax="666" yMax="1823">
      <contour>
        <pt x="37" y="422" on="1"/>
        <pt x="254" y="442" on="1"/>
        <pt x="254" y="186" on="0"/>
        <pt x="358" y="186" on="1"/>
        <pt x="448" y="186" on="0"/>
        <pt x="449" y="352" on="1"/>
        <pt x="449" y="381" on="0"/>
        <pt x="432" y="442" on="0"/>
        <pt x="385" y="528" on="0"/>
        <pt x="358" y="569" on="0"/>
        <pt x="279" y="686" on="0"/>
        <pt x="270" y="700" on="1"/>
        <pt x="204" y="796" on="0"/>
        <pt x="131" y="920" on="0"/>
        <pt x="68" y="1094" on="0"/>
        <pt x="68" y="1169" on="1"/>
        <pt x="68" y="1308" on="0"/>
        <pt x="211" y="1520" on="0"/>
        <pt x="356" y="1522" on="1"/>
        <pt x="450" y="1524" on="0"/>
        <pt x="582" y="1450" on="0"/>
        <pt x="641" y="1321" on="0"/>
        <pt x="666" y="1196" on="0"/>
        <pt x="666" y="1122" on="1"/>
        <pt x="449" y="1102" on="1"/>
        <pt x="449" y="1319" on="0"/>
        <pt x="360" y="1319" on="1"/>
        <pt x="284" y="1317" on="0"/>
        <pt x="285" y="1169" on="1"/>
        <pt x="285" y="1151" on="0"/>
        <pt x="293" y="1108" on="0"/>
        <pt x="305" y="1073" on="0"/>
        <pt x="330" y="1022" on="0"/>
        <pt x="346" y="993" on="0"/>
        <pt x="385" y="934" on="0"/>
        <pt x="403" y="907" on="0"/>
        <pt x="451" y="840" on="0"/>
        <pt x="459" y="827" on="1"/>
        <pt x="533" y="716" on="0"/>
        <pt x="594" y="618" on="0"/>
        <pt x="666" y="438" on="0"/>
        <pt x="666" y="362" on="1"/>
        <pt x="666" y="-17" on="0"/>
        <pt x="358" y="-16" on="1"/>
        <pt x="276" y="-16" on="0"/>
        <pt x="156" y="35" on="0"/>
        <pt x="88" y="111" on="0"/>
        <pt x="49" y="233" on="0"/>
        <pt x="37" y="346" on="0"/>
      </contour>
      <contour>
        <pt x="100" y="1823" on="1"/>
        <pt x="289" y="1823" on="1"/>
        <pt x="350" y="1751" on="1"/>
        <pt x="414" y="1823" on="1"/>
        <pt x="602" y="1823" on="1"/>
        <pt x="461" y="1638" on="1"/>
        <pt x="242" y="1638" on="1"/>
      </contour>
    </TTGlyph>
    <TTGlyph name="T" xMin="4" yMin="0" xMax="643" yMax="1505">
      <contour>
        <pt x="4" y="1278" on="1"/>
        <pt x="4" y="1505" on="1"/>
        <pt x="643" y="1505" on="1"/>
        <pt x="643" y="1278" on="1"/>
        <pt x="434" y="1278" on="1"/>
        <pt x="434" y="0" on="1"/>
        <pt x="213" y="0" on="1"/>
        <pt x="213" y="1278" on="1"/>
      </contour>
    </TTGlyph>
    <TTGlyph name="Thorn" xMin="82" yMin="0" xMax="692" yMax="1505">
      <contour>
        <pt x="82" y="0" on="1"/>
        <pt x="82" y="1505" on="1"/>
        <pt x="301" y="1505" on="1"/>
        <pt x="301" y="1264" on="1"/>
        <pt x="303" y="1264" on="1"/>
        <pt x="469" y="1264" on="0"/>
        <pt x="692" y="1053" on="0"/>
        <pt x="692" y="573" on="0"/>
        <pt x="469" y="360" on="0"/>
        <pt x="303" y="360" on="1"/>
        <pt x="303" y="0" on="1"/>
      </contour>
      <contour>
        <pt x="303" y="586" on="1"/>
        <pt x="405" y="586" on="0"/>
        <pt x="469" y="676" on="0"/>
        <pt x="469" y="805" on="1"/>
        <pt x="469" y="936" on="0"/>
        <pt x="403" y="1038" on="0"/>
        <pt x="303" y="1038" on="1"/>
      </contour>
    </TTGlyph>
    <TTGlyph name="U" xMin="80" yMin="-16" xMax="670" yMax="1505">
      <contour>
        <pt x="80" y="309" on="1"/>
        <pt x="80" y="1505" on="1"/>
        <pt x="301" y="1505" on="1"/>
        <pt x="301" y="309" on="1"/>
        <pt x="301" y="297" on="0"/>
        <pt x="303" y="260" on="0"/>
        <pt x="340" y="199" on="0"/>
        <pt x="410" y="199" on="0"/>
        <pt x="446" y="254" on="0"/>
        <pt x="446" y="283" on="1"/>
        <pt x="449" y="309" on="1"/>
        <pt x="449" y="1505" on="1"/>
        <pt x="670" y="1505" on="1"/>
        <pt x="670" y="309" on="1"/>
        <pt x="670" y="297" on="0"/>
        <pt x="666" y="252" on="0"/>
        <pt x="635" y="139" on="0"/>
        <pt x="580" y="53" on="0"/>
        <pt x="459" y="-16" on="0"/>
        <pt x="291" y="-16" on="0"/>
        <pt x="170" y="51" on="0"/>
        <pt x="115" y="147" on="0"/>
        <pt x="84" y="242" on="0"/>
        <pt x="82" y="274" on="1"/>
      </contour>
    </TTGlyph>
    <TTGlyph name="Uacute" xMin="80" yMin="-16" xMax="670" yMax="1823">
      <contour>
        <pt x="80" y="309" on="1"/>
        <pt x="80" y="297" on="0"/>
        <pt x="84" y="252" on="0"/>
        <pt x="115" y="139" on="0"/>
        <pt x="170" y="53" on="0"/>
        <pt x="291" y="-16" on="0"/>
        <pt x="459" y="-16" on="0"/>
        <pt x="580" y="51" on="0"/>
        <pt x="635" y="147" on="0"/>
        <pt x="666" y="242" on="0"/>
        <pt x="668" y="274" on="1"/>
        <pt x="670" y="309" on="1"/>
        <pt x="670" y="1505" on="1"/>
        <pt x="449" y="1505" on="1"/>
        <pt x="449" y="309" on="1"/>
        <pt x="449" y="297" on="0"/>
        <pt x="446" y="260" on="0"/>
        <pt x="410" y="199" on="0"/>
        <pt x="340" y="199" on="0"/>
        <pt x="303" y="254" on="0"/>
        <pt x="303" y="283" on="1"/>
        <pt x="301" y="309" on="1"/>
        <pt x="301" y="1505" on="1"/>
        <pt x="80" y="1505" on="1"/>
      </contour>
      <contour>
        <pt x="307" y="1638" on="1"/>
        <pt x="414" y="1823" on="1"/>
        <pt x="629" y="1823" on="1"/>
        <pt x="467" y="1638" on="1"/>
      </contour>
    </TTGlyph>
    <TTGlyph name="Ucircumflex" xMin="80" yMin="-16" xMax="670" yMax="1823">
      <contour>
        <pt x="80" y="309" on="1"/>
        <pt x="80" y="297" on="0"/>
        <pt x="84" y="252" on="0"/>
        <pt x="115" y="139" on="0"/>
        <pt x="170" y="53" on="0"/>
        <pt x="291" y="-16" on="0"/>
        <pt x="459" y="-16" on="0"/>
        <pt x="580" y="51" on="0"/>
        <pt x="635" y="147" on="0"/>
        <pt x="666" y="242" on="0"/>
        <pt x="668" y="274" on="1"/>
        <pt x="670" y="309" on="1"/>
        <pt x="670" y="1505" on="1"/>
        <pt x="449" y="1505" on="1"/>
        <pt x="449" y="309" on="1"/>
        <pt x="449" y="297" on="0"/>
        <pt x="446" y="260" on="0"/>
        <pt x="410" y="199" on="0"/>
        <pt x="340" y="199" on="0"/>
        <pt x="303" y="254" on="0"/>
        <pt x="303" y="283" on="1"/>
        <pt x="301" y="309" on="1"/>
        <pt x="301" y="1505" on="1"/>
        <pt x="80" y="1505" on="1"/>
      </contour>
      <contour>
        <pt x="125" y="1638" on="1"/>
        <pt x="266" y="1823" on="1"/>
        <pt x="485" y="1823" on="1"/>
        <pt x="627" y="1638" on="1"/>
        <pt x="438" y="1638" on="1"/>
        <pt x="375" y="1710" on="1"/>
        <pt x="313" y="1638" on="1"/>
      </contour>
    </TTGlyph>
    <TTGlyph name="Udieresis" xMin="80" yMin="-16" xMax="670" yMax="1839">
      <contour>
        <pt x="80" y="309" on="1"/>
        <pt x="80" y="1505" on="1"/>
        <pt x="301" y="1505" on="1"/>
        <pt x="301" y="309" on="1"/>
        <pt x="301" y="297" on="0"/>
        <pt x="303" y="260" on="0"/>
        <pt x="340" y="199" on="0"/>
        <pt x="410" y="199" on="0"/>
        <pt x="446" y="254" on="0"/>
        <pt x="446" y="283" on="1"/>
        <pt x="449" y="309" on="1"/>
        <pt x="449" y="1505" on="1"/>
        <pt x="670" y="1505" on="1"/>
        <pt x="670" y="309" on="1"/>
        <pt x="670" y="297" on="0"/>
        <pt x="666" y="252" on="0"/>
        <pt x="635" y="139" on="0"/>
        <pt x="580" y="53" on="0"/>
        <pt x="459" y="-16" on="0"/>
        <pt x="291" y="-16" on="0"/>
        <pt x="170" y="51" on="0"/>
        <pt x="115" y="147" on="0"/>
        <pt x="84" y="242" on="0"/>
        <pt x="82" y="274" on="1"/>
      </contour>
      <contour>
        <pt x="135" y="1638" on="1"/>
        <pt x="135" y="1839" on="1"/>
        <pt x="326" y="1839" on="1"/>
        <pt x="326" y="1638" on="1"/>
      </contour>
      <contour>
        <pt x="424" y="1638" on="1"/>
        <pt x="424" y="1839" on="1"/>
        <pt x="614" y="1839" on="1"/>
        <pt x="614" y="1638" on="1"/>
      </contour>
    </TTGlyph>
    <TTGlyph name="Ugrave" xMin="80" yMin="-16" xMax="670" yMax="1823">
      <contour>
        <pt x="80" y="309" on="1"/>
        <pt x="80" y="297" on="0"/>
        <pt x="84" y="252" on="0"/>
        <pt x="115" y="139" on="0"/>
        <pt x="170" y="53" on="0"/>
        <pt x="291" y="-16" on="0"/>
        <pt x="459" y="-16" on="0"/>
        <pt x="580" y="51" on="0"/>
        <pt x="635" y="147" on="0"/>
        <pt x="666" y="242" on="0"/>
        <pt x="668" y="274" on="1"/>
        <pt x="670" y="309" on="1"/>
        <pt x="670" y="1505" on="1"/>
        <pt x="449" y="1505" on="1"/>
        <pt x="449" y="309" on="1"/>
        <pt x="449" y="297" on="0"/>
        <pt x="446" y="260" on="0"/>
        <pt x="410" y="199" on="0"/>
        <pt x="340" y="199" on="0"/>
        <pt x="303" y="254" on="0"/>
        <pt x="303" y="283" on="1"/>
        <pt x="301" y="309" on="1"/>
        <pt x="301" y="1505" on="1"/>
        <pt x="80" y="1505" on="1"/>
      </contour>
      <contour>
        <pt x="145" y="1823" on="1"/>
        <pt x="360" y="1823" on="1"/>
        <pt x="467" y="1638" on="1"/>
        <pt x="307" y="1638" on="1"/>
      </contour>
    </TTGlyph>
    <TTGlyph name="V" xMin="18" yMin="0" xMax="698" yMax="1505">
      <contour>
        <pt x="18" y="1505" on="1"/>
        <pt x="233" y="1505" on="1"/>
        <pt x="344" y="678" on="1"/>
        <pt x="352" y="614" on="1"/>
        <pt x="365" y="614" on="1"/>
        <pt x="373" y="678" on="1"/>
        <pt x="483" y="1505" on="1"/>
        <pt x="698" y="1505" on="1"/>
        <pt x="469" y="0" on="1"/>
        <pt x="248" y="0" on="1"/>
      </contour>
    </TTGlyph>
    <TTGlyph name="W" xMin="25" yMin="0" xMax="1012" yMax="1505">
      <contour>
        <pt x="25" y="1505" on="1"/>
        <pt x="229" y="1505" on="1"/>
        <pt x="317" y="723" on="1"/>
        <pt x="322" y="674" on="1"/>
        <pt x="338" y="674" on="1"/>
        <pt x="344" y="723" on="1"/>
        <pt x="438" y="1505" on="1"/>
        <pt x="598" y="1505" on="1"/>
        <pt x="692" y="723" on="1"/>
        <pt x="698" y="674" on="1"/>
        <pt x="715" y="674" on="1"/>
        <pt x="719" y="723" on="1"/>
        <pt x="807" y="1505" on="1"/>
        <pt x="1012" y="1505" on="1"/>
        <pt x="809" y="0" on="1"/>
        <pt x="637" y="0" on="1"/>
        <pt x="535" y="713" on="1"/>
        <pt x="522" y="801" on="1"/>
        <pt x="514" y="801" on="1"/>
        <pt x="502" y="713" on="1"/>
        <pt x="399" y="0" on="1"/>
        <pt x="227" y="0" on="1"/>
      </contour>
    </TTGlyph>
    <TTGlyph name="X" xMin="16" yMin="0" xMax="721" yMax="1505">
      <contour>
        <pt x="16" y="0" on="1"/>
        <pt x="260" y="791" on="1"/>
        <pt x="20" y="1505" on="1"/>
        <pt x="238" y="1505" on="1"/>
        <pt x="358" y="1124" on="1"/>
        <pt x="365" y="1106" on="1"/>
        <pt x="373" y="1106" on="1"/>
        <pt x="379" y="1124" on="1"/>
        <pt x="500" y="1505" on="1"/>
        <pt x="717" y="1505" on="1"/>
        <pt x="477" y="791" on="1"/>
        <pt x="721" y="0" on="1"/>
        <pt x="504" y="0" on="1"/>
        <pt x="377" y="449" on="1"/>
        <pt x="373" y="467" on="1"/>
        <pt x="365" y="467" on="1"/>
        <pt x="360" y="449" on="1"/>
        <pt x="233" y="0" on="1"/>
      </contour>
    </TTGlyph>
    <TTGlyph name="Y" xMin="14" yMin="0" xMax="686" yMax="1505">
      <contour>
        <pt x="14" y="1505" on="1"/>
        <pt x="231" y="1505" on="1"/>
        <pt x="342" y="1024" on="1"/>
        <pt x="348" y="1010" on="1"/>
        <pt x="352" y="1010" on="1"/>
        <pt x="358" y="1024" on="1"/>
        <pt x="469" y="1505" on="1"/>
        <pt x="686" y="1505" on="1"/>
        <pt x="461" y="641" on="1"/>
        <pt x="461" y="0" on="1"/>
        <pt x="240" y="0" on="1"/>
        <pt x="240" y="641" on="1"/>
      </contour>
    </TTGlyph>
    <TTGlyph name="Yacute" xMin="16" yMin="0" xMax="688" yMax="1823">
      <contour>
        <pt x="16" y="1505" on="1"/>
        <pt x="242" y="641" on="1"/>
        <pt x="242" y="0" on="1"/>
        <pt x="463" y="0" on="1"/>
        <pt x="463" y="641" on="1"/>
        <pt x="688" y="1505" on="1"/>
        <pt x="471" y="1505" on="1"/>
        <pt x="360" y="1024" on="1"/>
        <pt x="354" y="1010" on="1"/>
        <pt x="350" y="1010" on="1"/>
        <pt x="344" y="1024" on="1"/>
        <pt x="233" y="1505" on="1"/>
      </contour>
      <contour>
        <pt x="254" y="1638" on="1"/>
        <pt x="360" y="1823" on="1"/>
        <pt x="575" y="1823" on="1"/>
        <pt x="414" y="1638" on="1"/>
      </contour>
    </TTGlyph>
    <TTGlyph name="Ydieresis" xMin="16" yMin="0" xMax="688" yMax="1839">
      <contour>
        <pt x="16" y="1505" on="1"/>
        <pt x="233" y="1505" on="1"/>
        <pt x="344" y="1024" on="1"/>
        <pt x="350" y="1010" on="1"/>
        <pt x="354" y="1010" on="1"/>
        <pt x="360" y="1024" on="1"/>
        <pt x="471" y="1505" on="1"/>
        <pt x="688" y="1505" on="1"/>
        <pt x="463" y="641" on="1"/>
        <pt x="463" y="0" on="1"/>
        <pt x="242" y="0" on="1"/>
        <pt x="242" y="641" on="1"/>
      </contour>
      <contour>
        <pt x="113" y="1638" on="1"/>
        <pt x="113" y="1839" on="1"/>
        <pt x="303" y="1839" on="1"/>
        <pt x="303" y="1638" on="1"/>
      </contour>
      <contour>
        <pt x="401" y="1638" on="1"/>
        <pt x="401" y="1839" on="1"/>
        <pt x="592" y="1839" on="1"/>
        <pt x="592" y="1638" on="1"/>
      </contour>
    </TTGlyph>
    <TTGlyph name="Z" xMin="20" yMin="0" xMax="606" yMax="1505">
      <contour>
        <pt x="20" y="0" on="1"/>
        <pt x="20" y="238" on="1"/>
        <pt x="367" y="1286" on="1"/>
        <pt x="70" y="1286" on="1"/>
        <pt x="70" y="1505" on="1"/>
        <pt x="606" y="1505" on="1"/>
        <pt x="606" y="1286" on="1"/>
        <pt x="254" y="219" on="1"/>
        <pt x="606" y="219" on="1"/>
        <pt x="606" y="0" on="1"/>
      </contour>
    </TTGlyph>
    <TTGlyph name="Zcaron" xMin="20" yMin="0" xMax="606" yMax="1823">
      <contour>
        <pt x="20" y="0" on="1"/>
        <pt x="20" y="238" on="1"/>
        <pt x="367" y="1286" on="1"/>
        <pt x="70" y="1286" on="1"/>
        <pt x="70" y="1505" on="1"/>
        <pt x="606" y="1505" on="1"/>
        <pt x="606" y="1286" on="1"/>
        <pt x="254" y="219" on="1"/>
        <pt x="606" y="219" on="1"/>
        <pt x="606" y="0" on="1"/>
      </contour>
      <contour>
        <pt x="88" y="1823" on="1"/>
        <pt x="276" y="1823" on="1"/>
        <pt x="338" y="1751" on="1"/>
        <pt x="401" y="1823" on="1"/>
        <pt x="590" y="1823" on="1"/>
        <pt x="449" y="1638" on="1"/>
        <pt x="229" y="1638" on="1"/>
      </contour>
    </TTGlyph>
    <TTGlyph name="a" xMin="49" yMin="-16" xMax="616" yMax="1137">
      <contour>
        <pt x="49" y="260" on="1"/>
        <pt x="49" y="366" on="0"/>
        <pt x="117" y="528" on="0"/>
        <pt x="215" y="614" on="0"/>
        <pt x="313" y="674" on="0"/>
        <pt x="391" y="715" on="0"/>
        <pt x="395" y="731" on="1"/>
        <pt x="395" y="768" on="1"/>
        <pt x="395" y="854" on="1"/>
        <pt x="395" y="956" on="0"/>
        <pt x="338" y="956" on="1"/>
        <pt x="318" y="956" on="0"/>
        <pt x="293" y="938" on="0"/>
        <pt x="283" y="891" on="0"/>
        <pt x="279" y="864" on="0"/>
        <pt x="279" y="830" on="1"/>
        <pt x="279" y="791" on="1"/>
        <pt x="72" y="791" on="1"/>
        <pt x="72" y="838" on="1"/>
        <pt x="72" y="961" on="0"/>
        <pt x="233" y="1137" on="0"/>
        <pt x="350" y="1137" on="1"/>
        <pt x="452" y="1137" on="0"/>
        <pt x="602" y="989" on="0"/>
        <pt x="602" y="883" on="1"/>
        <pt x="602" y="532" on="1"/>
        <pt x="602" y="195" on="1"/>
        <pt x="602" y="86" on="0"/>
        <pt x="616" y="0" on="1"/>
        <pt x="414" y="0" on="1"/>
        <pt x="396" y="20" on="0"/>
        <pt x="395" y="90" on="1"/>
        <pt x="381" y="90" on="1"/>
        <pt x="361" y="53" on="0"/>
        <pt x="270" y="-16" on="0"/>
        <pt x="215" y="-16" on="1"/>
        <pt x="156" y="-16" on="0"/>
        <pt x="49" y="104" on="0"/>
      </contour>
      <contour>
        <pt x="252" y="291" on="1"/>
        <pt x="252" y="187" on="0"/>
        <pt x="309" y="186" on="1"/>
        <pt x="344" y="186" on="0"/>
        <pt x="395" y="225" on="0"/>
        <pt x="395" y="254" on="1"/>
        <pt x="395" y="541" on="1"/>
        <pt x="252" y="479" on="0"/>
      </contour>
    </TTGlyph>
    <TTGlyph name="aacute" xMin="49" yMin="-16" xMax="616" yMax="1489">
      <contour>
        <pt x="49" y="260" on="1"/>
        <pt x="49" y="366" on="0"/>
        <pt x="117" y="528" on="0"/>
        <pt x="215" y="614" on="0"/>
        <pt x="313" y="674" on="0"/>
        <pt x="391" y="715" on="0"/>
        <pt x="395" y="731" on="1"/>
        <pt x="395" y="768" on="1"/>
        <pt x="395" y="854" on="1"/>
        <pt x="395" y="956" on="0"/>
        <pt x="338" y="956" on="1"/>
        <pt x="318" y="956" on="0"/>
        <pt x="293" y="938" on="0"/>
        <pt x="283" y="891" on="0"/>
        <pt x="279" y="864" on="0"/>
        <pt x="279" y="830" on="1"/>
        <pt x="279" y="791" on="1"/>
        <pt x="72" y="791" on="1"/>
        <pt x="72" y="838" on="1"/>
        <pt x="72" y="961" on="0"/>
        <pt x="233" y="1137" on="0"/>
        <pt x="350" y="1137" on="1"/>
        <pt x="452" y="1137" on="0"/>
        <pt x="602" y="989" on="0"/>
        <pt x="602" y="883" on="1"/>
        <pt x="602" y="532" on="1"/>
        <pt x="602" y="195" on="1"/>
        <pt x="602" y="86" on="0"/>
        <pt x="616" y="0" on="1"/>
        <pt x="414" y="0" on="1"/>
        <pt x="396" y="20" on="0"/>
        <pt x="395" y="90" on="1"/>
        <pt x="381" y="90" on="1"/>
        <pt x="361" y="53" on="0"/>
        <pt x="270" y="-16" on="0"/>
        <pt x="215" y="-16" on="1"/>
        <pt x="156" y="-16" on="0"/>
        <pt x="49" y="104" on="0"/>
      </contour>
      <contour>
        <pt x="252" y="291" on="1"/>
        <pt x="252" y="187" on="0"/>
        <pt x="309" y="186" on="1"/>
        <pt x="344" y="186" on="0"/>
        <pt x="395" y="225" on="0"/>
        <pt x="395" y="254" on="1"/>
        <pt x="395" y="541" on="1"/>
        <pt x="252" y="479" on="0"/>
      </contour>
      <contour>
        <pt x="264" y="1305" on="1"/>
        <pt x="371" y="1489" on="1"/>
        <pt x="586" y="1489" on="1"/>
        <pt x="424" y="1305" on="1"/>
      </contour>
    </TTGlyph>
    <TTGlyph name="acircumflex" xMin="49" yMin="-16" xMax="616" yMax="1489">
      <contour>
        <pt x="49" y="260" on="1"/>
        <pt x="49" y="366" on="0"/>
        <pt x="117" y="528" on="0"/>
        <pt x="215" y="614" on="0"/>
        <pt x="313" y="674" on="0"/>
        <pt x="391" y="715" on="0"/>
        <pt x="395" y="731" on="1"/>
        <pt x="395" y="768" on="1"/>
        <pt x="395" y="854" on="1"/>
        <pt x="395" y="956" on="0"/>
        <pt x="338" y="956" on="1"/>
        <pt x="318" y="956" on="0"/>
        <pt x="293" y="938" on="0"/>
        <pt x="283" y="891" on="0"/>
        <pt x="279" y="864" on="0"/>
        <pt x="279" y="830" on="1"/>
        <pt x="279" y="791" on="1"/>
        <pt x="72" y="791" on="1"/>
        <pt x="72" y="838" on="1"/>
        <pt x="72" y="961" on="0"/>
        <pt x="233" y="1137" on="0"/>
        <pt x="350" y="1137" on="1"/>
        <pt x="452" y="1137" on="0"/>
        <pt x="602" y="989" on="0"/>
        <pt x="602" y="883" on="1"/>
        <pt x="602" y="532" on="1"/>
        <pt x="602" y="195" on="1"/>
        <pt x="602" y="86" on="0"/>
        <pt x="616" y="0" on="1"/>
        <pt x="414" y="0" on="1"/>
        <pt x="396" y="20" on="0"/>
        <pt x="395" y="90" on="1"/>
        <pt x="381" y="90" on="1"/>
        <pt x="361" y="53" on="0"/>
        <pt x="270" y="-16" on="0"/>
        <pt x="215" y="-16" on="1"/>
        <pt x="156" y="-16" on="0"/>
        <pt x="49" y="104" on="0"/>
      </contour>
      <contour>
        <pt x="90" y="1305" on="1"/>
        <pt x="231" y="1489" on="1"/>
        <pt x="451" y="1489" on="1"/>
        <pt x="592" y="1305" on="1"/>
        <pt x="403" y="1305" on="1"/>
        <pt x="340" y="1376" on="1"/>
        <pt x="279" y="1305" on="1"/>
      </contour>
      <contour>
        <pt x="252" y="291" on="1"/>
        <pt x="252" y="187" on="0"/>
        <pt x="309" y="186" on="1"/>
        <pt x="344" y="186" on="0"/>
        <pt x="395" y="225" on="0"/>
        <pt x="395" y="254" on="1"/>
        <pt x="395" y="541" on="1"/>
        <pt x="252" y="479" on="0"/>
      </contour>
    </TTGlyph>
    <TTGlyph name="acute" xMin="410" yMin="1305" xMax="731" yMax="1489">
      <contour>
        <pt x="410" y="1305" on="1"/>
        <pt x="516" y="1489" on="1"/>
        <pt x="731" y="1489" on="1"/>
        <pt x="569" y="1305" on="1"/>
      </contour>
    </TTGlyph>
    <TTGlyph name="adieresis" xMin="49" yMin="-16" xMax="616" yMax="1505">
      <contour>
        <pt x="49" y="260" on="1"/>
        <pt x="49" y="366" on="0"/>
        <pt x="117" y="528" on="0"/>
        <pt x="215" y="614" on="0"/>
        <pt x="313" y="674" on="0"/>
        <pt x="391" y="715" on="0"/>
        <pt x="395" y="731" on="1"/>
        <pt x="395" y="768" on="1"/>
        <pt x="395" y="854" on="1"/>
        <pt x="395" y="956" on="0"/>
        <pt x="338" y="956" on="1"/>
        <pt x="318" y="956" on="0"/>
        <pt x="293" y="938" on="0"/>
        <pt x="283" y="891" on="0"/>
        <pt x="279" y="864" on="0"/>
        <pt x="279" y="830" on="1"/>
        <pt x="279" y="791" on="1"/>
        <pt x="72" y="791" on="1"/>
        <pt x="72" y="838" on="1"/>
        <pt x="72" y="961" on="0"/>
        <pt x="233" y="1137" on="0"/>
        <pt x="350" y="1137" on="1"/>
        <pt x="452" y="1137" on="0"/>
        <pt x="602" y="989" on="0"/>
        <pt x="602" y="883" on="1"/>
        <pt x="602" y="532" on="1"/>
        <pt x="602" y="195" on="1"/>
        <pt x="602" y="86" on="0"/>
        <pt x="616" y="0" on="1"/>
        <pt x="414" y="0" on="1"/>
        <pt x="396" y="20" on="0"/>
        <pt x="395" y="90" on="1"/>
        <pt x="381" y="90" on="1"/>
        <pt x="361" y="53" on="0"/>
        <pt x="270" y="-16" on="0"/>
        <pt x="215" y="-16" on="1"/>
        <pt x="156" y="-16" on="0"/>
        <pt x="49" y="104" on="0"/>
      </contour>
      <contour>
        <pt x="102" y="1305" on="1"/>
        <pt x="102" y="1505" on="1"/>
        <pt x="293" y="1505" on="1"/>
        <pt x="293" y="1305" on="1"/>
      </contour>
      <contour>
        <pt x="252" y="291" on="1"/>
        <pt x="252" y="187" on="0"/>
        <pt x="309" y="186" on="1"/>
        <pt x="344" y="186" on="0"/>
        <pt x="395" y="225" on="0"/>
        <pt x="395" y="254" on="1"/>
        <pt x="395" y="541" on="1"/>
        <pt x="252" y="479" on="0"/>
      </contour>
      <contour>
        <pt x="391" y="1305" on="1"/>
        <pt x="391" y="1505" on="1"/>
        <pt x="582" y="1505" on="1"/>
        <pt x="582" y="1305" on="1"/>
      </contour>
    </TTGlyph>
    <TTGlyph name="ae" xMin="49" yMin="-16" xMax="930" yMax="1137">
      <contour>
        <pt x="49" y="260" on="1"/>
        <pt x="49" y="366" on="0"/>
        <pt x="117" y="528" on="0"/>
        <pt x="215" y="614" on="0"/>
        <pt x="313" y="674" on="0"/>
        <pt x="391" y="715" on="0"/>
        <pt x="395" y="731" on="1"/>
        <pt x="395" y="854" on="1"/>
        <pt x="395" y="956" on="0"/>
        <pt x="338" y="956" on="1"/>
        <pt x="318" y="956" on="0"/>
        <pt x="293" y="938" on="0"/>
        <pt x="283" y="891" on="0"/>
        <pt x="279" y="864" on="0"/>
        <pt x="279" y="830" on="1"/>
        <pt x="279" y="791" on="1"/>
        <pt x="72" y="791" on="1"/>
        <pt x="72" y="838" on="1"/>
        <pt x="72" y="961" on="0"/>
        <pt x="233" y="1137" on="0"/>
        <pt x="350" y="1137" on="1"/>
        <pt x="434" y="1137" on="0"/>
        <pt x="502" y="1085" on="1"/>
        <pt x="568" y="1136" on="0"/>
        <pt x="664" y="1137" on="1"/>
        <pt x="863" y="1137" on="0"/>
        <pt x="915" y="940" on="1"/>
        <pt x="929" y="889" on="0"/>
        <pt x="930" y="848" on="1"/>
        <pt x="930" y="522" on="1"/>
        <pt x="588" y="522" on="1"/>
        <pt x="588" y="279" on="1"/>
        <pt x="588" y="266" on="1"/>
        <pt x="588" y="258" on="0"/>
        <pt x="596" y="219" on="0"/>
        <pt x="610" y="190" on="0"/>
        <pt x="643" y="166" on="0"/>
        <pt x="664" y="166" on="1"/>
        <pt x="734" y="176" on="0"/>
        <pt x="737" y="279" on="1"/>
        <pt x="737" y="401" on="1"/>
        <pt x="930" y="401" on="1"/>
        <pt x="930" y="272" on="1"/>
        <pt x="930" y="260" on="0"/>
        <pt x="926" y="221" on="0"/>
        <pt x="897" y="123" on="0"/>
        <pt x="848" y="45" on="0"/>
        <pt x="737" y="-16" on="0"/>
        <pt x="662" y="-16" on="1"/>
        <pt x="504" y="-16" on="0"/>
        <pt x="436" y="115" on="1"/>
        <pt x="334" y="-16" on="0"/>
        <pt x="215" y="-16" on="1"/>
        <pt x="156" y="-16" on="0"/>
        <pt x="49" y="104" on="0"/>
      </contour>
      <contour>
        <pt x="252" y="291" on="1"/>
        <pt x="252" y="187" on="0"/>
        <pt x="309" y="186" on="1"/>
        <pt x="344" y="186" on="0"/>
        <pt x="395" y="225" on="0"/>
        <pt x="395" y="254" on="1"/>
        <pt x="395" y="541" on="1"/>
        <pt x="252" y="479" on="0"/>
      </contour>
      <contour>
        <pt x="588" y="684" on="1"/>
        <pt x="737" y="684" on="1"/>
        <pt x="737" y="842" on="1"/>
        <pt x="737" y="854" on="0"/>
        <pt x="735" y="893" on="0"/>
        <pt x="698" y="956" on="0"/>
        <pt x="664" y="956" on="1"/>
        <pt x="631" y="956" on="0"/>
        <pt x="592" y="899" on="0"/>
        <pt x="590" y="870" on="1"/>
        <pt x="588" y="842" on="1"/>
      </contour>
    </TTGlyph>
    <TTGlyph name="agrave" xMin="49" yMin="-16" xMax="616" yMax="1489">
      <contour>
        <pt x="49" y="260" on="1"/>
        <pt x="49" y="366" on="0"/>
        <pt x="117" y="528" on="0"/>
        <pt x="215" y="614" on="0"/>
        <pt x="313" y="674" on="0"/>
        <pt x="391" y="715" on="0"/>
        <pt x="395" y="731" on="1"/>
        <pt x="395" y="768" on="1"/>
        <pt x="395" y="854" on="1"/>
        <pt x="395" y="956" on="0"/>
        <pt x="338" y="956" on="1"/>
        <pt x="318" y="956" on="0"/>
        <pt x="293" y="938" on="0"/>
        <pt x="283" y="891" on="0"/>
        <pt x="279" y="864" on="0"/>
        <pt x="279" y="830" on="1"/>
        <pt x="279" y="791" on="1"/>
        <pt x="72" y="791" on="1"/>
        <pt x="72" y="838" on="1"/>
        <pt x="72" y="961" on="0"/>
        <pt x="233" y="1137" on="0"/>
        <pt x="350" y="1137" on="1"/>
        <pt x="452" y="1137" on="0"/>
        <pt x="602" y="989" on="0"/>
        <pt x="602" y="883" on="1"/>
        <pt x="602" y="532" on="1"/>
        <pt x="602" y="195" on="1"/>
        <pt x="602" y="86" on="0"/>
        <pt x="616" y="0" on="1"/>
        <pt x="414" y="0" on="1"/>
        <pt x="396" y="20" on="0"/>
        <pt x="395" y="90" on="1"/>
        <pt x="381" y="90" on="1"/>
        <pt x="361" y="53" on="0"/>
        <pt x="270" y="-16" on="0"/>
        <pt x="215" y="-16" on="1"/>
        <pt x="156" y="-16" on="0"/>
        <pt x="49" y="104" on="0"/>
      </contour>
      <contour>
        <pt x="102" y="1489" on="1"/>
        <pt x="317" y="1489" on="1"/>
        <pt x="424" y="1305" on="1"/>
        <pt x="264" y="1305" on="1"/>
      </contour>
      <contour>
        <pt x="252" y="291" on="1"/>
        <pt x="252" y="187" on="0"/>
        <pt x="309" y="186" on="1"/>
        <pt x="344" y="186" on="0"/>
        <pt x="395" y="225" on="0"/>
        <pt x="395" y="254" on="1"/>
        <pt x="395" y="541" on="1"/>
        <pt x="252" y="479" on="0"/>
      </contour>
    </TTGlyph>
    <TTGlyph name="ampersand" xMin="49" yMin="-16" xMax="813" yMax="1522">
      <contour>
        <pt x="49" y="315" on="1"/>
        <pt x="49" y="430" on="0"/>
        <pt x="137" y="629" on="0"/>
        <pt x="219" y="752" on="1"/>
        <pt x="113" y="977" on="0"/>
        <pt x="113" y="1194" on="1"/>
        <pt x="113" y="1212" on="1"/>
        <pt x="113" y="1224" on="0"/>
        <pt x="123" y="1292" on="0"/>
        <pt x="139" y="1354" on="0"/>
        <pt x="180" y="1430" on="0"/>
        <pt x="236" y="1485" on="0"/>
        <pt x="326" y="1522" on="0"/>
        <pt x="383" y="1522" on="1"/>
        <pt x="586" y="1522" on="0"/>
        <pt x="635" y="1307" on="1"/>
        <pt x="649" y="1246" on="0"/>
        <pt x="647" y="1194" on="1"/>
        <pt x="647" y="1032" on="0"/>
        <pt x="442" y="760" on="1"/>
        <pt x="518" y="586" on="0"/>
        <pt x="590" y="475" on="1"/>
        <pt x="623" y="571" on="0"/>
        <pt x="637" y="686" on="1"/>
        <pt x="813" y="653" on="1"/>
        <pt x="797" y="440" on="0"/>
        <pt x="721" y="295" on="1"/>
        <pt x="776" y="232" on="0"/>
        <pt x="813" y="219" on="1"/>
        <pt x="813" y="-16" on="1"/>
        <pt x="790" y="-16" on="0"/>
        <pt x="664" y="59" on="0"/>
        <pt x="604" y="123" on="1"/>
        <pt x="481" y="-16" on="0"/>
        <pt x="223" y="-16" on="0"/>
        <pt x="49" y="178" on="0"/>
      </contour>
      <contour>
        <pt x="262" y="326" on="1"/>
        <pt x="264" y="260" on="0"/>
        <pt x="319" y="176" on="0"/>
        <pt x="362" y="176" on="1"/>
        <pt x="421" y="176" on="0"/>
        <pt x="487" y="262" on="1"/>
        <pt x="399" y="401" on="0"/>
        <pt x="313" y="557" on="1"/>
        <pt x="307" y="547" on="0"/>
        <pt x="291" y="510" on="0"/>
        <pt x="262" y="392" on="0"/>
      </contour>
      <contour>
        <pt x="305" y="1194" on="1"/>
        <pt x="305" y="1083" on="0"/>
        <pt x="360" y="948" on="1"/>
        <pt x="460" y="1104" on="0"/>
        <pt x="461" y="1200" on="1"/>
        <pt x="459" y="1202" on="0"/>
        <pt x="463" y="1229" on="0"/>
        <pt x="455" y="1274" on="0"/>
        <pt x="440" y="1315" on="0"/>
        <pt x="408" y="1346" on="0"/>
        <pt x="383" y="1346" on="1"/>
        <pt x="344" y="1346" on="0"/>
        <pt x="305" y="1270" on="0"/>
        <pt x="305" y="1233" on="1"/>
      </contour>
    </TTGlyph>
    <TTGlyph name="aring" xMin="49" yMin="-16" xMax="616" yMax="1565">
      <contour>
        <pt x="49" y="260" on="1"/>
        <pt x="49" y="366" on="0"/>
        <pt x="117" y="528" on="0"/>
        <pt x="215" y="614" on="0"/>
        <pt x="313" y="674" on="0"/>
        <pt x="391" y="715" on="0"/>
        <pt x="395" y="731" on="1"/>
        <pt x="395" y="768" on="1"/>
        <pt x="395" y="854" on="1"/>
        <pt x="395" y="956" on="0"/>
        <pt x="338" y="956" on="1"/>
        <pt x="318" y="956" on="0"/>
        <pt x="293" y="938" on="0"/>
        <pt x="283" y="891" on="0"/>
        <pt x="279" y="864" on="0"/>
        <pt x="279" y="830" on="1"/>
        <pt x="279" y="791" on="1"/>
        <pt x="72" y="791" on="1"/>
        <pt x="72" y="838" on="1"/>
        <pt x="72" y="961" on="0"/>
        <pt x="233" y="1137" on="0"/>
        <pt x="350" y="1137" on="1"/>
        <pt x="452" y="1137" on="0"/>
        <pt x="602" y="989" on="0"/>
        <pt x="602" y="883" on="1"/>
        <pt x="602" y="532" on="1"/>
        <pt x="602" y="195" on="1"/>
        <pt x="602" y="86" on="0"/>
        <pt x="616" y="0" on="1"/>
        <pt x="414" y="0" on="1"/>
        <pt x="396" y="20" on="0"/>
        <pt x="395" y="90" on="1"/>
        <pt x="381" y="90" on="1"/>
        <pt x="361" y="53" on="0"/>
        <pt x="270" y="-16" on="0"/>
        <pt x="215" y="-16" on="1"/>
        <pt x="156" y="-16" on="0"/>
        <pt x="49" y="104" on="0"/>
      </contour>
      <contour>
        <pt x="188" y="1360" on="0"/>
        <pt x="188" y="1483" on="0"/>
        <pt x="279" y="1565" on="0"/>
        <pt x="406" y="1565" on="0"/>
        <pt x="494" y="1483" on="0"/>
        <pt x="494" y="1360" on="0"/>
        <pt x="406" y="1278" on="0"/>
        <pt x="279" y="1278" on="0"/>
      </contour>
      <contour>
        <pt x="252" y="291" on="1"/>
        <pt x="252" y="187" on="0"/>
        <pt x="309" y="186" on="1"/>
        <pt x="344" y="186" on="0"/>
        <pt x="395" y="225" on="0"/>
        <pt x="395" y="254" on="1"/>
        <pt x="395" y="541" on="1"/>
        <pt x="252" y="479" on="0"/>
      </contour>
      <contour>
        <pt x="266" y="1450" on="0"/>
        <pt x="266" y="1393" on="0"/>
        <pt x="313" y="1350" on="0"/>
        <pt x="371" y="1350" on="0"/>
        <pt x="418" y="1393" on="0"/>
        <pt x="418" y="1450" on="0"/>
        <pt x="371" y="1493" on="0"/>
        <pt x="313" y="1493" on="0"/>
      </contour>
    </TTGlyph>
    <TTGlyph name="asciicircum" xMin="53" yMin="809" xMax="1049" yMax="1505">
      <contour>
        <pt x="53" y="809" on="1"/>
        <pt x="434" y="1505" on="1"/>
        <pt x="668" y="1505" on="1"/>
        <pt x="1049" y="809" on="1"/>
        <pt x="850" y="809" on="1"/>
        <pt x="551" y="1352" on="1"/>
        <pt x="252" y="809" on="1"/>
      </contour>
    </TTGlyph>
    <TTGlyph name="asciitilde" xMin="113" yMin="1294" xMax="1225" yMax="1667">
      <contour>
        <pt x="113" y="1352" on="1"/>
        <pt x="117" y="1364" on="0"/>
        <pt x="133" y="1405" on="0"/>
        <pt x="193" y="1511" on="0"/>
        <pt x="262" y="1593" on="0"/>
        <pt x="383" y="1659" on="0"/>
        <pt x="449" y="1659" on="1"/>
        <pt x="504" y="1659" on="0"/>
        <pt x="616" y="1622" on="0"/>
        <pt x="668" y="1593" on="0"/>
        <pt x="725" y="1556" on="1"/>
        <pt x="831" y="1484" on="0"/>
        <pt x="899" y="1485" on="1"/>
        <pt x="1008" y="1485" on="0"/>
        <pt x="1077" y="1638" on="1"/>
        <pt x="1090" y="1667" on="1"/>
        <pt x="1225" y="1610" on="1"/>
        <pt x="1221" y="1598" on="0"/>
        <pt x="1204" y="1554" on="0"/>
        <pt x="1145" y="1448" on="0"/>
        <pt x="1075" y="1368" on="0"/>
        <pt x="963" y="1300" on="0"/>
        <pt x="899" y="1300" on="1"/>
        <pt x="778" y="1300" on="0"/>
        <pt x="627" y="1401" on="1"/>
        <pt x="512" y="1475" on="0"/>
        <pt x="385" y="1475" on="0"/>
        <pt x="285" y="1384" on="0"/>
        <pt x="266" y="1339" on="1"/>
        <pt x="248" y="1294" on="1"/>
      </contour>
    </TTGlyph>
    <TTGlyph name="asterisk" xMin="74" yMin="999" xMax="604" yMax="1505">
      <contour>
        <pt x="74" y="1251" on="1"/>
        <pt x="117" y="1399" on="1"/>
        <pt x="281" y="1329" on="1"/>
        <pt x="262" y="1505" on="1"/>
        <pt x="416" y="1505" on="1"/>
        <pt x="397" y="1329" on="1"/>
        <pt x="561" y="1399" on="1"/>
        <pt x="604" y="1251" on="1"/>
        <pt x="432" y="1217" on="1"/>
        <pt x="547" y="1079" on="1"/>
        <pt x="416" y="999" on="1"/>
        <pt x="338" y="1151" on="1"/>
        <pt x="262" y="999" on="1"/>
        <pt x="131" y="1079" on="1"/>
        <pt x="246" y="1217" on="1"/>
      </contour>
    </TTGlyph>
    <TTGlyph name="at" xMin="66" yMin="-16" xMax="815" yMax="1522">
      <contour>
        <pt x="66" y="303" on="1"/>
        <pt x="66" y="1192" on="1"/>
        <pt x="66" y="1235" on="0"/>
        <pt x="100" y="1337" on="0"/>
        <pt x="178" y="1448" on="0"/>
        <pt x="334" y="1522" on="0"/>
        <pt x="547" y="1522" on="0"/>
        <pt x="702" y="1448" on="0"/>
        <pt x="780" y="1337" on="0"/>
        <pt x="815" y="1235" on="0"/>
        <pt x="815" y="1192" on="1"/>
        <pt x="815" y="399" on="1"/>
        <pt x="651" y="399" on="1"/>
        <pt x="631" y="455" on="1"/>
        <pt x="627" y="447" on="0"/>
        <pt x="612" y="424" on="0"/>
        <pt x="553" y="387" on="0"/>
        <pt x="518" y="387" on="1"/>
        <pt x="373" y="387" on="0"/>
        <pt x="373" y="559" on="1"/>
        <pt x="373" y="1044" on="1"/>
        <pt x="373" y="1214" on="0"/>
        <pt x="518" y="1214" on="1"/>
        <pt x="553" y="1214" on="0"/>
        <pt x="610" y="1180" on="0"/>
        <pt x="621" y="1163" on="1"/>
        <pt x="631" y="1147" on="1"/>
        <pt x="631" y="1192" on="1"/>
        <pt x="631" y="1243" on="0"/>
        <pt x="541" y="1350" on="0"/>
        <pt x="340" y="1350" on="0"/>
        <pt x="250" y="1243" on="0"/>
        <pt x="250" y="1192" on="1"/>
        <pt x="250" y="303" on="1"/>
        <pt x="250" y="250" on="0"/>
        <pt x="338" y="150" on="0"/>
        <pt x="440" y="150" on="1"/>
        <pt x="557" y="150" on="0"/>
        <pt x="608" y="213" on="1"/>
        <pt x="760" y="127" on="1"/>
        <pt x="651" y="-16" on="0"/>
        <pt x="440" y="-16" on="1"/>
        <pt x="334" y="-16" on="0"/>
        <pt x="178" y="55" on="0"/>
        <pt x="100" y="164" on="0"/>
        <pt x="66" y="262" on="0"/>
      </contour>
      <contour>
        <pt x="535" y="573" on="1"/>
        <pt x="535" y="520" on="0"/>
        <pt x="582" y="520" on="1"/>
        <pt x="631" y="520" on="0"/>
        <pt x="631" y="573" on="1"/>
        <pt x="631" y="1028" on="1"/>
        <pt x="631" y="1081" on="0"/>
        <pt x="582" y="1081" on="1"/>
        <pt x="535" y="1081" on="0"/>
        <pt x="535" y="1028" on="1"/>
      </contour>
    </TTGlyph>
    <TTGlyph name="atilde" xMin="49" yMin="-16" xMax="616" yMax="1495">
      <contour>
        <pt x="49" y="260" on="1"/>
        <pt x="49" y="366" on="0"/>
        <pt x="117" y="528" on="0"/>
        <pt x="215" y="614" on="0"/>
        <pt x="313" y="674" on="0"/>
        <pt x="391" y="715" on="0"/>
        <pt x="395" y="731" on="1"/>
        <pt x="395" y="768" on="1"/>
        <pt x="395" y="854" on="1"/>
        <pt x="395" y="956" on="0"/>
        <pt x="338" y="956" on="1"/>
        <pt x="318" y="956" on="0"/>
        <pt x="293" y="938" on="0"/>
        <pt x="283" y="891" on="0"/>
        <pt x="279" y="864" on="0"/>
        <pt x="279" y="830" on="1"/>
        <pt x="279" y="791" on="1"/>
        <pt x="72" y="791" on="1"/>
        <pt x="72" y="838" on="1"/>
        <pt x="72" y="961" on="0"/>
        <pt x="233" y="1137" on="0"/>
        <pt x="350" y="1137" on="1"/>
        <pt x="452" y="1137" on="0"/>
        <pt x="602" y="989" on="0"/>
        <pt x="602" y="883" on="1"/>
        <pt x="602" y="532" on="1"/>
        <pt x="602" y="195" on="1"/>
        <pt x="602" y="86" on="0"/>
        <pt x="616" y="0" on="1"/>
        <pt x="414" y="0" on="1"/>
        <pt x="396" y="20" on="0"/>
        <pt x="395" y="90" on="1"/>
        <pt x="381" y="90" on="1"/>
        <pt x="361" y="53" on="0"/>
        <pt x="270" y="-16" on="0"/>
        <pt x="215" y="-16" on="1"/>
        <pt x="156" y="-16" on="0"/>
        <pt x="49" y="104" on="0"/>
      </contour>
      <contour>
        <pt x="143" y="1305" on="1"/>
        <pt x="143" y="1456" on="1"/>
        <pt x="192" y="1495" on="0"/>
        <pt x="252" y="1495" on="1"/>
        <pt x="285" y="1495" on="0"/>
        <pt x="401" y="1458" on="0"/>
        <pt x="432" y="1456" on="1"/>
        <pt x="457" y="1456" on="0"/>
        <pt x="512" y="1473" on="0"/>
        <pt x="526" y="1481" on="1"/>
        <pt x="541" y="1489" on="1"/>
        <pt x="541" y="1337" on="1"/>
        <pt x="490" y="1298" on="0"/>
        <pt x="432" y="1298" on="1"/>
        <pt x="401" y="1298" on="0"/>
        <pt x="285" y="1337" on="0"/>
        <pt x="252" y="1337" on="1"/>
        <pt x="227" y="1337" on="0"/>
        <pt x="172" y="1321" on="0"/>
        <pt x="158" y="1313" on="1"/>
      </contour>
      <contour>
        <pt x="252" y="291" on="1"/>
        <pt x="252" y="187" on="0"/>
        <pt x="309" y="186" on="1"/>
        <pt x="344" y="186" on="0"/>
        <pt x="395" y="225" on="0"/>
        <pt x="395" y="254" on="1"/>
        <pt x="395" y="541" on="1"/>
        <pt x="252" y="479" on="0"/>
      </contour>
    </TTGlyph>
    <TTGlyph name="b" xMin="82" yMin="-16" xMax="612" yMax="1505">
      <contour>
        <pt x="82" y="0" on="1"/>
        <pt x="82" y="1505" on="1"/>
        <pt x="289" y="1505" on="1"/>
        <pt x="289" y="1047" on="1"/>
        <pt x="377" y="1137" on="0"/>
        <pt x="453" y="1137" on="1"/>
        <pt x="531" y="1137" on="0"/>
        <pt x="612" y="999" on="0"/>
        <pt x="612" y="918" on="1"/>
        <pt x="612" y="203" on="1"/>
        <pt x="612" y="121" on="0"/>
        <pt x="530" y="-16" on="0"/>
        <pt x="453" y="-16" on="1"/>
        <pt x="420" y="-16" on="0"/>
        <pt x="338" y="29" on="0"/>
        <pt x="313" y="51" on="1"/>
        <pt x="289" y="74" on="1"/>
        <pt x="289" y="0" on="1"/>
      </contour>
      <contour>
        <pt x="289" y="246" on="1"/>
        <pt x="289" y="217" on="0"/>
        <pt x="328" y="178" on="0"/>
        <pt x="373" y="178" on="0"/>
        <pt x="406" y="217" on="0"/>
        <pt x="406" y="246" on="1"/>
        <pt x="406" y="874" on="1"/>
        <pt x="406" y="903" on="0"/>
        <pt x="373" y="942" on="0"/>
        <pt x="328" y="942" on="0"/>
        <pt x="289" y="899" on="0"/>
        <pt x="289" y="874" on="1"/>
      </contour>
    </TTGlyph>
    <TTGlyph name="backslash" xMin="8" yMin="-180" xMax="784" yMax="1692">
      <contour>
        <pt x="8" y="1692" on="1"/>
        <pt x="170" y="1692" on="1"/>
        <pt x="784" y="-180" on="1"/>
        <pt x="616" y="-180" on="1"/>
      </contour>
    </TTGlyph>
    <TTGlyph name="bar" xMin="82" yMin="-512" xMax="274" yMax="1692">
      <contour>
        <pt x="82" y="-512" on="1"/>
        <pt x="82" y="1692" on="1"/>
        <pt x="274" y="1692" on="1"/>
        <pt x="274" y="-512" on="1"/>
      </contour>
    </TTGlyph>
    <TTGlyph name="braceleft" xMin="61" yMin="-453" xMax="631" yMax="1522">
      <contour>
        <pt x="61" y="453" on="1"/>
        <pt x="61" y="616" on="1"/>
        <pt x="133" y="616" on="0"/>
        <pt x="193" y="715" on="0"/>
        <pt x="193" y="756" on="1"/>
        <pt x="193" y="1153" on="1"/>
        <pt x="193" y="1376" on="0"/>
        <pt x="385" y="1526" on="0"/>
        <pt x="631" y="1522" on="1"/>
        <pt x="631" y="1350" on="1"/>
        <pt x="496" y="1352" on="0"/>
        <pt x="389" y="1272" on="0"/>
        <pt x="389" y="1153" on="1"/>
        <pt x="389" y="756" on="1"/>
        <pt x="389" y="613" on="0"/>
        <pt x="262" y="535" on="1"/>
        <pt x="389" y="453" on="0"/>
        <pt x="389" y="313" on="1"/>
        <pt x="389" y="-84" on="1"/>
        <pt x="389" y="-203" on="0"/>
        <pt x="496" y="-283" on="0"/>
        <pt x="631" y="-281" on="1"/>
        <pt x="631" y="-453" on="1"/>
        <pt x="385" y="-457" on="0"/>
        <pt x="193" y="-307" on="0"/>
        <pt x="193" y="-84" on="1"/>
        <pt x="193" y="313" on="1"/>
        <pt x="193" y="333" on="0"/>
        <pt x="176" y="387" on="0"/>
        <pt x="110" y="451" on="0"/>
      </contour>
    </TTGlyph>
    <TTGlyph name="braceright" xMin="57" yMin="-453" xMax="627" yMax="1522">
      <contour>
        <pt x="57" y="-281" on="1"/>
        <pt x="192" y="-283" on="0"/>
        <pt x="299" y="-203" on="0"/>
        <pt x="299" y="-84" on="1"/>
        <pt x="299" y="313" on="1"/>
        <pt x="299" y="452" on="0"/>
        <pt x="426" y="535" on="1"/>
        <pt x="299" y="613" on="0"/>
        <pt x="299" y="756" on="1"/>
        <pt x="299" y="1153" on="1"/>
        <pt x="299" y="1272" on="0"/>
        <pt x="193" y="1352" on="0"/>
        <pt x="57" y="1350" on="1"/>
        <pt x="57" y="1522" on="1"/>
        <pt x="303" y="1526" on="0"/>
        <pt x="496" y="1376" on="0"/>
        <pt x="496" y="1153" on="1"/>
        <pt x="496" y="756" on="1"/>
        <pt x="496" y="733" on="0"/>
        <pt x="512" y="678" on="0"/>
        <pt x="578" y="616" on="0"/>
        <pt x="627" y="616" on="1"/>
        <pt x="627" y="453" on="1"/>
        <pt x="555" y="449" on="0"/>
        <pt x="496" y="352" on="0"/>
        <pt x="496" y="313" on="1"/>
        <pt x="496" y="-84" on="1"/>
        <pt x="496" y="-307" on="0"/>
        <pt x="303" y="-457" on="0"/>
        <pt x="57" y="-453" on="1"/>
      </contour>
    </TTGlyph>
    <TTGlyph name="bracketleft" xMin="82" yMin="-213" xMax="481" yMax="1505">
      <contour>
        <pt x="82" y="-16" on="1"/>
        <pt x="82" y="1505" on="1"/>
        <pt x="481" y="1505" on="1"/>
        <pt x="481" y="1309" on="1"/>
        <pt x="279" y="1309" on="1"/>
        <pt x="279" y="-16" on="1"/>
        <pt x="481" y="-16" on="1"/>
        <pt x="481" y="-213" on="1"/>
        <pt x="82" y="-213" on="1"/>
      </contour>
    </TTGlyph>
    <TTGlyph name="bracketright" xMin="57" yMin="-213" xMax="457" yMax="1505">
      <contour>
        <pt x="57" y="-16" on="1"/>
        <pt x="260" y="-16" on="1"/>
        <pt x="260" y="1309" on="1"/>
        <pt x="57" y="1309" on="1"/>
        <pt x="57" y="1505" on="1"/>
        <pt x="457" y="1505" on="1"/>
        <pt x="457" y="-16" on="1"/>
        <pt x="457" y="-213" on="1"/>
        <pt x="57" y="-213" on="1"/>
      </contour>
    </TTGlyph>
    <TTGlyph name="breve" xMin="287" yMin="1303" xMax="737" yMax="1493">
      <contour>
        <pt x="287" y="1399" on="1"/>
        <pt x="397" y="1493" on="1"/>
        <pt x="438" y="1446" on="0"/>
        <pt x="512" y="1446" on="1"/>
        <pt x="547" y="1446" on="0"/>
        <pt x="606" y="1470" on="0"/>
        <pt x="618" y="1483" on="1"/>
        <pt x="631" y="1493" on="1"/>
        <pt x="737" y="1399" on="1"/>
        <pt x="727" y="1389" on="0"/>
        <pt x="692" y="1356" on="0"/>
        <pt x="573" y="1303" on="0"/>
        <pt x="512" y="1303" on="1"/>
        <pt x="449" y="1303" on="0"/>
        <pt x="336" y="1352" on="0"/>
        <pt x="311" y="1376" on="1"/>
      </contour>
    </TTGlyph>
    <TTGlyph name="bullet" xMin="82" yMin="565" xMax="582" yMax="1065">
      <contour>
        <pt x="82" y="817" on="1"/>
        <pt x="82" y="919" on="0"/>
        <pt x="227" y="1065" on="0"/>
        <pt x="334" y="1065" on="1"/>
        <pt x="436" y="1065" on="0"/>
        <pt x="582" y="920" on="0"/>
        <pt x="582" y="817" on="1"/>
        <pt x="582" y="711" on="0"/>
        <pt x="436" y="565" on="0"/>
        <pt x="334" y="565" on="1"/>
        <pt x="228" y="565" on="0"/>
        <pt x="82" y="711" on="0"/>
      </contour>
    </TTGlyph>
    <TTGlyph name="c" xMin="66" yMin="-16" xMax="596" yMax="1137">
      <contour>
        <pt x="66" y="315" on="1"/>
        <pt x="66" y="805" on="1"/>
        <pt x="66" y="1137" on="0"/>
        <pt x="330" y="1137" on="1"/>
        <pt x="467" y="1137" on="0"/>
        <pt x="596" y="995" on="0"/>
        <pt x="596" y="815" on="1"/>
        <pt x="596" y="727" on="1"/>
        <pt x="389" y="727" on="1"/>
        <pt x="389" y="862" on="1"/>
        <pt x="389" y="913" on="0"/>
        <pt x="365" y="952" on="0"/>
        <pt x="330" y="952" on="1"/>
        <pt x="273" y="952" on="0"/>
        <pt x="272" y="862" on="1"/>
        <pt x="272" y="258" on="1"/>
        <pt x="272" y="168" on="0"/>
        <pt x="330" y="168" on="1"/>
        <pt x="365" y="168" on="0"/>
        <pt x="389" y="207" on="0"/>
        <pt x="389" y="258" on="1"/>
        <pt x="389" y="414" on="1"/>
        <pt x="596" y="414" on="1"/>
        <pt x="596" y="305" on="1"/>
        <pt x="596" y="125" on="0"/>
        <pt x="467" y="-16" on="0"/>
        <pt x="330" y="-16" on="1"/>
        <pt x="66" y="-17" on="0"/>
      </contour>
    </TTGlyph>
    <TTGlyph name="caron" xMin="260" yMin="1305" xMax="762" yMax="1489">
      <contour>
        <pt x="260" y="1489" on="1"/>
        <pt x="449" y="1489" on="1"/>
        <pt x="510" y="1417" on="1"/>
        <pt x="573" y="1489" on="1"/>
        <pt x="762" y="1489" on="1"/>
        <pt x="621" y="1305" on="1"/>
        <pt x="401" y="1305" on="1"/>
      </contour>
    </TTGlyph>
    <TTGlyph name="ccedilla" xMin="66" yMin="-385" xMax="596" yMax="1137">
      <contour>
        <pt x="66" y="315" on="1"/>
        <pt x="66" y="805" on="1"/>
        <pt x="66" y="1137" on="0"/>
        <pt x="330" y="1137" on="1"/>
        <pt x="467" y="1137" on="0"/>
        <pt x="596" y="995" on="0"/>
        <pt x="596" y="815" on="1"/>
        <pt x="596" y="727" on="1"/>
        <pt x="389" y="727" on="1"/>
        <pt x="389" y="862" on="1"/>
        <pt x="389" y="913" on="0"/>
        <pt x="365" y="952" on="0"/>
        <pt x="330" y="952" on="1"/>
        <pt x="273" y="952" on="0"/>
        <pt x="272" y="862" on="1"/>
        <pt x="272" y="258" on="1"/>
        <pt x="272" y="168" on="0"/>
        <pt x="330" y="168" on="1"/>
        <pt x="365" y="168" on="0"/>
        <pt x="389" y="207" on="0"/>
        <pt x="389" y="258" on="1"/>
        <pt x="389" y="414" on="1"/>
        <pt x="596" y="414" on="1"/>
        <pt x="596" y="305" on="1"/>
        <pt x="596" y="125" on="0"/>
        <pt x="467" y="-16" on="0"/>
        <pt x="330" y="-16" on="1"/>
        <pt x="66" y="-17" on="0"/>
      </contour>
      <contour>
        <pt x="238" y="-111" on="1"/>
        <pt x="238" y="-252" on="1"/>
        <pt x="301" y="-252" on="1"/>
        <pt x="260" y="-385" on="1"/>
        <pt x="365" y="-385" on="1"/>
        <pt x="410" y="-252" on="1"/>
        <pt x="410" y="-111" on="1"/>
      </contour>
    </TTGlyph>
    <TTGlyph name="cedilla" xMin="426" yMin="-385" xMax="598" yMax="-111">
      <contour>
        <pt x="426" y="-111" on="1"/>
        <pt x="598" y="-111" on="1"/>
        <pt x="598" y="-252" on="1"/>
        <pt x="553" y="-385" on="1"/>
        <pt x="449" y="-385" on="1"/>
        <pt x="489" y="-252" on="1"/>
        <pt x="426" y="-252" on="1"/>
      </contour>
    </TTGlyph>
    <TTGlyph name="cent" xMin="66" yMin="-123" xMax="588" yMax="1567">
      <contour>
        <pt x="66" y="508" on="1"/>
        <pt x="66" y="997" on="1"/>
        <pt x="66" y="1294" on="0"/>
        <pt x="274" y="1325" on="1"/>
        <pt x="274" y="1567" on="1"/>
        <pt x="397" y="1567" on="1"/>
        <pt x="397" y="1323" on="1"/>
        <pt x="495" y="1307" on="0"/>
        <pt x="588" y="1163" on="0"/>
        <pt x="588" y="1008" on="1"/>
        <pt x="588" y="920" on="1"/>
        <pt x="399" y="920" on="1"/>
        <pt x="399" y="1055" on="1"/>
        <pt x="399" y="1145" on="0"/>
        <pt x="326" y="1145" on="1"/>
        <pt x="254" y="1145" on="0"/>
        <pt x="254" y="1055" on="1"/>
        <pt x="254" y="451" on="1"/>
        <pt x="254" y="361" on="0"/>
        <pt x="326" y="360" on="1"/>
        <pt x="400" y="360" on="0"/>
        <pt x="399" y="451" on="1"/>
        <pt x="399" y="606" on="1"/>
        <pt x="588" y="606" on="1"/>
        <pt x="588" y="498" on="1"/>
        <pt x="588" y="342" on="0"/>
        <pt x="496" y="197" on="0"/>
        <pt x="397" y="180" on="1"/>
        <pt x="397" y="-123" on="1"/>
        <pt x="274" y="-123" on="1"/>
        <pt x="274" y="178" on="1"/>
        <pt x="66" y="209" on="0"/>
      </contour>
    </TTGlyph>
    <TTGlyph name="circumflex" xMin="260" yMin="1305" xMax="762" yMax="1489">
      <contour>
        <pt x="260" y="1305" on="1"/>
        <pt x="401" y="1489" on="1"/>
        <pt x="621" y="1489" on="1"/>
        <pt x="762" y="1305" on="1"/>
        <pt x="573" y="1305" on="1"/>
        <pt x="510" y="1376" on="1"/>
        <pt x="449" y="1305" on="1"/>
      </contour>
    </TTGlyph>
    <TTGlyph name="colon" xMin="74" yMin="0" xMax="289" yMax="1120">
      <contour>
        <pt x="74" y="0" on="1"/>
        <pt x="74" y="227" on="1"/>
        <pt x="289" y="227" on="1"/>
        <pt x="289" y="0" on="1"/>
      </contour>
      <contour>
        <pt x="74" y="893" on="1"/>
        <pt x="74" y="1120" on="1"/>
        <pt x="289" y="1120" on="1"/>
        <pt x="289" y="893" on="1"/>
      </contour>
    </TTGlyph>
    <TTGlyph name="comma" xMin="45" yMin="-266" xMax="260" yMax="227">
      <contour>
        <pt x="45" y="0" on="1"/>
        <pt x="45" y="227" on="1"/>
        <pt x="260" y="227" on="1"/>
        <pt x="260" y="0" on="1"/>
        <pt x="147" y="-266" on="1"/>
        <pt x="45" y="-266" on="1"/>
        <pt x="117" y="0" on="1"/>
      </contour>
    </TTGlyph>
    <TTGlyph name="copyright" xMin="53" yMin="-16" xMax="1591" yMax="1522">
      <contour>
        <pt x="53" y="434" on="0"/>
        <pt x="53" y="1069" on="0"/>
        <pt x="504" y="1522" on="0"/>
        <pt x="1139" y="1522" on="0"/>
        <pt x="1591" y="1069" on="0"/>
        <pt x="1591" y="434" on="0"/>
        <pt x="1139" y="-16" on="0"/>
        <pt x="504" y="-16" on="0"/>
      </contour>
      <contour>
        <pt x="172" y="1018" on="0"/>
        <pt x="172" y="485" on="0"/>
        <pt x="555" y="102" on="0"/>
        <pt x="1087" y="102" on="0"/>
        <pt x="1473" y="485" on="0"/>
        <pt x="1473" y="752" on="1"/>
        <pt x="1473" y="1020" on="0"/>
        <pt x="1090" y="1403" on="0"/>
        <pt x="821" y="1403" on="1"/>
        <pt x="555" y="1403" on="0"/>
      </contour>
      <contour>
        <pt x="627" y="487" on="1"/>
        <pt x="627" y="1018" on="1"/>
        <pt x="627" y="1026" on="0"/>
        <pt x="629" y="1053" on="0"/>
        <pt x="649" y="1120" on="0"/>
        <pt x="684" y="1171" on="0"/>
        <pt x="764" y="1214" on="0"/>
        <pt x="819" y="1214" on="1"/>
        <pt x="966" y="1214" on="0"/>
        <pt x="1001" y="1067" on="1"/>
        <pt x="1008" y="1018" on="1"/>
        <pt x="1008" y="893" on="1"/>
        <pt x="870" y="893" on="1"/>
        <pt x="870" y="1018" on="1"/>
        <pt x="870" y="1035" on="1"/>
        <pt x="870" y="1046" on="0"/>
        <pt x="846" y="1081" on="0"/>
        <pt x="821" y="1081" on="1"/>
        <pt x="774" y="1079" on="0"/>
        <pt x="772" y="1018" on="1"/>
        <pt x="772" y="487" on="1"/>
        <pt x="772" y="424" on="0"/>
        <pt x="821" y="424" on="1"/>
        <pt x="874" y="426" on="0"/>
        <pt x="870" y="487" on="1"/>
        <pt x="870" y="612" on="1"/>
        <pt x="1008" y="612" on="1"/>
        <pt x="1008" y="487" on="1"/>
        <pt x="1008" y="479" on="0"/>
        <pt x="1006" y="453" on="0"/>
        <pt x="985" y="385" on="0"/>
        <pt x="950" y="334" on="0"/>
        <pt x="872" y="291" on="0"/>
        <pt x="819" y="291" on="1"/>
        <pt x="733" y="291" on="0"/>
        <pt x="637" y="389" on="0"/>
        <pt x="631" y="438" on="1"/>
      </contour>
    </TTGlyph>
    <TTGlyph name="d" xMin="74" yMin="-16" xMax="604" yMax="1505">
      <contour>
        <pt x="74" y="203" on="1"/>
        <pt x="74" y="918" on="1"/>
        <pt x="74" y="1000" on="0"/>
        <pt x="156" y="1137" on="0"/>
        <pt x="233" y="1137" on="1"/>
        <pt x="266" y="1137" on="0"/>
        <pt x="348" y="1092" on="0"/>
        <pt x="373" y="1069" on="1"/>
        <pt x="397" y="1047" on="1"/>
        <pt x="397" y="1505" on="1"/>
        <pt x="604" y="1505" on="1"/>
        <pt x="604" y="0" on="1"/>
        <pt x="397" y="0" on="1"/>
        <pt x="397" y="74" on="1"/>
        <pt x="309" y="-16" on="0"/>
        <pt x="233" y="-16" on="1"/>
        <pt x="155" y="-16" on="0"/>
        <pt x="74" y="121" on="0"/>
      </contour>
      <contour>
        <pt x="281" y="246" on="1"/>
        <pt x="281" y="217" on="0"/>
        <pt x="313" y="178" on="0"/>
        <pt x="358" y="178" on="0"/>
        <pt x="397" y="217" on="0"/>
        <pt x="397" y="246" on="1"/>
        <pt x="397" y="874" on="1"/>
        <pt x="397" y="899" on="0"/>
        <pt x="358" y="942" on="0"/>
        <pt x="313" y="942" on="0"/>
        <pt x="281" y="903" on="0"/>
        <pt x="281" y="874" on="1"/>
      </contour>
    </TTGlyph>
    <TTGlyph name="dieresis" xMin="272" yMin="1305" xMax="752" yMax="1505">
      <contour>
        <pt x="272" y="1305" on="1"/>
        <pt x="272" y="1505" on="1"/>
        <pt x="463" y="1505" on="1"/>
        <pt x="463" y="1305" on="1"/>
      </contour>
      <contour>
        <pt x="561" y="1305" on="1"/>
        <pt x="561" y="1505" on="1"/>
        <pt x="752" y="1505" on="1"/>
        <pt x="752" y="1305" on="1"/>
      </contour>
    </TTGlyph>
    <TTGlyph name="dollar" xMin="37" yMin="-215" xMax="655" yMax="1628">
      <contour>
        <pt x="37" y="358" on="1"/>
        <pt x="229" y="371" on="1"/>
        <pt x="241" y="185" on="0"/>
        <pt x="358" y="184" on="1"/>
        <pt x="446" y="184" on="0"/>
        <pt x="451" y="369" on="1"/>
        <pt x="451" y="398" on="0"/>
        <pt x="434" y="459" on="0"/>
        <pt x="412" y="508" on="0"/>
        <pt x="369" y="580" on="0"/>
        <pt x="344" y="614" on="0"/>
        <pt x="289" y="690" on="0"/>
        <pt x="281" y="702" on="1"/>
        <pt x="213" y="794" on="0"/>
        <pt x="147" y="893" on="0"/>
        <pt x="72" y="1077" on="0"/>
        <pt x="72" y="1155" on="1"/>
        <pt x="76" y="1448" on="0"/>
        <pt x="287" y="1497" on="1"/>
        <pt x="287" y="1628" on="1"/>
        <pt x="410" y="1628" on="1"/>
        <pt x="410" y="1503" on="1"/>
        <pt x="611" y="1480" on="0"/>
        <pt x="645" y="1221" on="1"/>
        <pt x="453" y="1196" on="1"/>
        <pt x="447" y="1253" on="0"/>
        <pt x="403" y="1323" on="0"/>
        <pt x="360" y="1321" on="1"/>
        <pt x="280" y="1319" on="0"/>
        <pt x="276" y="1159" on="1"/>
        <pt x="276" y="1130" on="0"/>
        <pt x="293" y="1067" on="0"/>
        <pt x="313" y="1022" on="0"/>
        <pt x="358" y="948" on="0"/>
        <pt x="381" y="915" on="0"/>
        <pt x="440" y="831" on="0"/>
        <pt x="449" y="821" on="1"/>
        <pt x="455" y="811" on="0"/>
        <pt x="508" y="735" on="0"/>
        <pt x="528" y="707" on="0"/>
        <pt x="575" y="633" on="0"/>
        <pt x="596" y="592" on="0"/>
        <pt x="629" y="522" on="0"/>
        <pt x="643" y="469" on="0"/>
        <pt x="655" y="401" on="0"/>
        <pt x="655" y="371" on="1"/>
        <pt x="651" y="33" on="0"/>
        <pt x="410" y="2" on="1"/>
        <pt x="410" y="-215" on="1"/>
        <pt x="287" y="-215" on="1"/>
        <pt x="287" y="6" on="1"/>
        <pt x="51" y="47" on="0"/>
      </contour>
    </TTGlyph>
    <TTGlyph name="dotaccent" xMin="408" yMin="1298" xMax="614" yMax="1505">
      <contour>
        <pt x="408" y="1298" on="1"/>
        <pt x="408" y="1505" on="1"/>
        <pt x="614" y="1505" on="1"/>
        <pt x="614" y="1298" on="1"/>
      </contour>
    </TTGlyph>
    <TTGlyph name="dotlessi" xMin="82" yMin="0" xMax="289" yMax="1120">
      <contour>
        <pt x="82" y="0" on="1"/>
        <pt x="82" y="1120" on="1"/>
        <pt x="289" y="1120" on="1"/>
        <pt x="289" y="0" on="1"/>
      </contour>
    </TTGlyph>
    <TTGlyph name="e" xMin="66" yMin="-16" xMax="600" yMax="1137">
      <contour>
        <pt x="66" y="279" on="1"/>
        <pt x="66" y="842" on="1"/>
        <pt x="66" y="854" on="0"/>
        <pt x="70" y="893" on="0"/>
        <pt x="98" y="995" on="0"/>
        <pt x="150" y="1073" on="0"/>
        <pt x="260" y="1137" on="0"/>
        <pt x="334" y="1137" on="1"/>
        <pt x="533" y="1137" on="0"/>
        <pt x="586" y="940" on="1"/>
        <pt x="600" y="889" on="0"/>
        <pt x="600" y="848" on="1"/>
        <pt x="600" y="522" on="1"/>
        <pt x="258" y="522" on="1"/>
        <pt x="258" y="279" on="1"/>
        <pt x="258" y="266" on="1"/>
        <pt x="258" y="258" on="0"/>
        <pt x="266" y="219" on="0"/>
        <pt x="281" y="190" on="0"/>
        <pt x="313" y="166" on="0"/>
        <pt x="334" y="166" on="1"/>
        <pt x="404" y="176" on="0"/>
        <pt x="408" y="279" on="1"/>
        <pt x="408" y="401" on="1"/>
        <pt x="600" y="401" on="1"/>
        <pt x="600" y="272" on="1"/>
        <pt x="600" y="260" on="0"/>
        <pt x="596" y="221" on="0"/>
        <pt x="567" y="123" on="0"/>
        <pt x="518" y="45" on="0"/>
        <pt x="408" y="-16" on="0"/>
        <pt x="332" y="-16" on="1"/>
        <pt x="258" y="-16" on="0"/>
        <pt x="147" y="45" on="0"/>
        <pt x="98" y="131" on="0"/>
        <pt x="70" y="217" on="0"/>
        <pt x="68" y="248" on="1"/>
      </contour>
      <contour>
        <pt x="258" y="684" on="1"/>
        <pt x="408" y="684" on="1"/>
        <pt x="408" y="842" on="1"/>
        <pt x="408" y="854" on="0"/>
        <pt x="406" y="893" on="0"/>
        <pt x="369" y="956" on="0"/>
        <pt x="334" y="956" on="1"/>
        <pt x="301" y="956" on="0"/>
        <pt x="262" y="899" on="0"/>
        <pt x="260" y="870" on="1"/>
        <pt x="258" y="842" on="1"/>
      </contour>
    </TTGlyph>
    <TTGlyph name="eacute" xMin="66" yMin="-16" xMax="600" yMax="1489">
      <contour>
        <pt x="66" y="279" on="1"/>
        <pt x="66" y="842" on="1"/>
        <pt x="66" y="854" on="0"/>
        <pt x="70" y="893" on="0"/>
        <pt x="98" y="995" on="0"/>
        <pt x="150" y="1073" on="0"/>
        <pt x="260" y="1137" on="0"/>
        <pt x="334" y="1137" on="1"/>
        <pt x="533" y="1137" on="0"/>
        <pt x="586" y="940" on="1"/>
        <pt x="600" y="889" on="0"/>
        <pt x="600" y="848" on="1"/>
        <pt x="600" y="522" on="1"/>
        <pt x="258" y="522" on="1"/>
        <pt x="258" y="279" on="1"/>
        <pt x="258" y="266" on="1"/>
        <pt x="258" y="258" on="0"/>
        <pt x="266" y="219" on="0"/>
        <pt x="281" y="190" on="0"/>
        <pt x="313" y="166" on="0"/>
        <pt x="334" y="166" on="1"/>
        <pt x="404" y="176" on="0"/>
        <pt x="408" y="279" on="1"/>
        <pt x="408" y="401" on="1"/>
        <pt x="600" y="401" on="1"/>
        <pt x="600" y="272" on="1"/>
        <pt x="600" y="260" on="0"/>
        <pt x="596" y="221" on="0"/>
        <pt x="567" y="123" on="0"/>
        <pt x="518" y="45" on="0"/>
        <pt x="408" y="-16" on="0"/>
        <pt x="332" y="-16" on="1"/>
        <pt x="258" y="-16" on="0"/>
        <pt x="147" y="45" on="0"/>
        <pt x="98" y="131" on="0"/>
        <pt x="70" y="217" on="0"/>
        <pt x="68" y="248" on="1"/>
      </contour>
      <contour>
        <pt x="258" y="684" on="1"/>
        <pt x="408" y="684" on="1"/>
        <pt x="408" y="842" on="1"/>
        <pt x="408" y="854" on="0"/>
        <pt x="406" y="893" on="0"/>
        <pt x="369" y="956" on="0"/>
        <pt x="334" y="956" on="1"/>
        <pt x="301" y="956" on="0"/>
        <pt x="262" y="899" on="0"/>
        <pt x="260" y="870" on="1"/>
        <pt x="258" y="842" on="1"/>
      </contour>
      <contour>
        <pt x="264" y="1305" on="1"/>
        <pt x="371" y="1489" on="1"/>
        <pt x="586" y="1489" on="1"/>
        <pt x="424" y="1305" on="1"/>
      </contour>
    </TTGlyph>
    <TTGlyph name="ecircumflex" xMin="66" yMin="-16" xMax="600" yMax="1489">
      <contour>
        <pt x="66" y="279" on="1"/>
        <pt x="66" y="842" on="1"/>
        <pt x="66" y="854" on="0"/>
        <pt x="70" y="893" on="0"/>
        <pt x="98" y="995" on="0"/>
        <pt x="150" y="1073" on="0"/>
        <pt x="260" y="1137" on="0"/>
        <pt x="334" y="1137" on="1"/>
        <pt x="533" y="1137" on="0"/>
        <pt x="586" y="940" on="1"/>
        <pt x="600" y="889" on="0"/>
        <pt x="600" y="848" on="1"/>
        <pt x="600" y="522" on="1"/>
        <pt x="258" y="522" on="1"/>
        <pt x="258" y="279" on="1"/>
        <pt x="258" y="266" on="1"/>
        <pt x="258" y="258" on="0"/>
        <pt x="266" y="219" on="0"/>
        <pt x="281" y="190" on="0"/>
        <pt x="313" y="166" on="0"/>
        <pt x="334" y="166" on="1"/>
        <pt x="404" y="176" on="0"/>
        <pt x="408" y="279" on="1"/>
        <pt x="408" y="401" on="1"/>
        <pt x="600" y="401" on="1"/>
        <pt x="600" y="272" on="1"/>
        <pt x="600" y="260" on="0"/>
        <pt x="596" y="221" on="0"/>
        <pt x="567" y="123" on="0"/>
        <pt x="518" y="45" on="0"/>
        <pt x="408" y="-16" on="0"/>
        <pt x="332" y="-16" on="1"/>
        <pt x="258" y="-16" on="0"/>
        <pt x="147" y="45" on="0"/>
        <pt x="98" y="131" on="0"/>
        <pt x="70" y="217" on="0"/>
        <pt x="68" y="248" on="1"/>
      </contour>
      <contour>
        <pt x="80" y="1305" on="1"/>
        <pt x="221" y="1489" on="1"/>
        <pt x="440" y="1489" on="1"/>
        <pt x="582" y="1305" on="1"/>
        <pt x="393" y="1305" on="1"/>
        <pt x="330" y="1376" on="1"/>
        <pt x="268" y="1305" on="1"/>
      </contour>
      <contour>
        <pt x="258" y="684" on="1"/>
        <pt x="408" y="684" on="1"/>
        <pt x="408" y="842" on="1"/>
        <pt x="408" y="854" on="0"/>
        <pt x="406" y="893" on="0"/>
        <pt x="369" y="956" on="0"/>
        <pt x="334" y="956" on="1"/>
        <pt x="301" y="956" on="0"/>
        <pt x="262" y="899" on="0"/>
        <pt x="260" y="870" on="1"/>
        <pt x="258" y="842" on="1"/>
      </contour>
    </TTGlyph>
    <TTGlyph name="edieresis" xMin="66" yMin="-16" xMax="600" yMax="1505">
      <contour>
        <pt x="66" y="279" on="1"/>
        <pt x="66" y="842" on="1"/>
        <pt x="66" y="854" on="0"/>
        <pt x="70" y="893" on="0"/>
        <pt x="98" y="995" on="0"/>
        <pt x="150" y="1073" on="0"/>
        <pt x="260" y="1137" on="0"/>
        <pt x="334" y="1137" on="1"/>
        <pt x="533" y="1137" on="0"/>
        <pt x="586" y="940" on="1"/>
        <pt x="600" y="889" on="0"/>
        <pt x="600" y="848" on="1"/>
        <pt x="600" y="522" on="1"/>
        <pt x="258" y="522" on="1"/>
        <pt x="258" y="279" on="1"/>
        <pt x="258" y="266" on="1"/>
        <pt x="258" y="258" on="0"/>
        <pt x="266" y="219" on="0"/>
        <pt x="281" y="190" on="0"/>
        <pt x="313" y="166" on="0"/>
        <pt x="334" y="166" on="1"/>
        <pt x="404" y="176" on="0"/>
        <pt x="408" y="279" on="1"/>
        <pt x="408" y="401" on="1"/>
        <pt x="600" y="401" on="1"/>
        <pt x="600" y="272" on="1"/>
        <pt x="600" y="260" on="0"/>
        <pt x="596" y="221" on="0"/>
        <pt x="567" y="123" on="0"/>
        <pt x="518" y="45" on="0"/>
        <pt x="408" y="-16" on="0"/>
        <pt x="332" y="-16" on="1"/>
        <pt x="258" y="-16" on="0"/>
        <pt x="147" y="45" on="0"/>
        <pt x="98" y="131" on="0"/>
        <pt x="70" y="217" on="0"/>
        <pt x="68" y="248" on="1"/>
      </contour>
      <contour>
        <pt x="90" y="1305" on="1"/>
        <pt x="90" y="1505" on="1"/>
        <pt x="281" y="1505" on="1"/>
        <pt x="281" y="1305" on="1"/>
      </contour>
      <contour>
        <pt x="258" y="684" on="1"/>
        <pt x="408" y="684" on="1"/>
        <pt x="408" y="842" on="1"/>
        <pt x="408" y="854" on="0"/>
        <pt x="406" y="893" on="0"/>
        <pt x="369" y="956" on="0"/>
        <pt x="334" y="956" on="1"/>
        <pt x="301" y="956" on="0"/>
        <pt x="262" y="899" on="0"/>
        <pt x="260" y="870" on="1"/>
        <pt x="258" y="842" on="1"/>
      </contour>
      <contour>
        <pt x="379" y="1305" on="1"/>
        <pt x="379" y="1505" on="1"/>
        <pt x="569" y="1505" on="1"/>
        <pt x="569" y="1305" on="1"/>
      </contour>
    </TTGlyph>
    <TTGlyph name="egrave" xMin="66" yMin="-16" xMax="600" yMax="1489">
      <contour>
        <pt x="66" y="279" on="1"/>
        <pt x="66" y="842" on="1"/>
        <pt x="66" y="854" on="0"/>
        <pt x="70" y="893" on="0"/>
        <pt x="98" y="995" on="0"/>
        <pt x="150" y="1073" on="0"/>
        <pt x="260" y="1137" on="0"/>
        <pt x="334" y="1137" on="1"/>
        <pt x="533" y="1137" on="0"/>
        <pt x="586" y="940" on="1"/>
        <pt x="600" y="889" on="0"/>
        <pt x="600" y="848" on="1"/>
        <pt x="600" y="522" on="1"/>
        <pt x="258" y="522" on="1"/>
        <pt x="258" y="279" on="1"/>
        <pt x="258" y="266" on="1"/>
        <pt x="258" y="258" on="0"/>
        <pt x="266" y="219" on="0"/>
        <pt x="281" y="190" on="0"/>
        <pt x="313" y="166" on="0"/>
        <pt x="334" y="166" on="1"/>
        <pt x="404" y="176" on="0"/>
        <pt x="408" y="279" on="1"/>
        <pt x="408" y="401" on="1"/>
        <pt x="600" y="401" on="1"/>
        <pt x="600" y="272" on="1"/>
        <pt x="600" y="260" on="0"/>
        <pt x="596" y="221" on="0"/>
        <pt x="567" y="123" on="0"/>
        <pt x="518" y="45" on="0"/>
        <pt x="408" y="-16" on="0"/>
        <pt x="332" y="-16" on="1"/>
        <pt x="258" y="-16" on="0"/>
        <pt x="147" y="45" on="0"/>
        <pt x="98" y="131" on="0"/>
        <pt x="70" y="217" on="0"/>
        <pt x="68" y="248" on="1"/>
      </contour>
      <contour>
        <pt x="102" y="1489" on="1"/>
        <pt x="317" y="1489" on="1"/>
        <pt x="424" y="1305" on="1"/>
        <pt x="264" y="1305" on="1"/>
      </contour>
      <contour>
        <pt x="258" y="684" on="1"/>
        <pt x="408" y="684" on="1"/>
        <pt x="408" y="842" on="1"/>
        <pt x="408" y="854" on="0"/>
        <pt x="406" y="893" on="0"/>
        <pt x="369" y="956" on="0"/>
        <pt x="334" y="956" on="1"/>
        <pt x="301" y="956" on="0"/>
        <pt x="262" y="899" on="0"/>
        <pt x="260" y="870" on="1"/>
        <pt x="258" y="842" on="1"/>
      </contour>
    </TTGlyph>
    <TTGlyph name="eight" xMin="53" yMin="-16" xMax="643" yMax="1522">
      <contour>
        <pt x="53" y="322" on="1"/>
        <pt x="53" y="498" on="1"/>
        <pt x="53" y="686" on="0"/>
        <pt x="168" y="795" on="1"/>
        <pt x="66" y="897" on="0"/>
        <pt x="66" y="1071" on="1"/>
        <pt x="66" y="1198" on="1"/>
        <pt x="66" y="1221" on="0"/>
        <pt x="70" y="1274" on="0"/>
        <pt x="102" y="1380" on="0"/>
        <pt x="156" y="1460" on="0"/>
        <pt x="270" y="1522" on="0"/>
        <pt x="426" y="1522" on="0"/>
        <pt x="541" y="1460" on="0"/>
        <pt x="594" y="1380" on="0"/>
        <pt x="627" y="1274" on="0"/>
        <pt x="631" y="1221" on="0"/>
        <pt x="631" y="1198" on="1"/>
        <pt x="631" y="1071" on="1"/>
        <pt x="631" y="897" on="0"/>
        <pt x="528" y="795" on="1"/>
        <pt x="643" y="686" on="0"/>
        <pt x="643" y="498" on="1"/>
        <pt x="643" y="322" on="1"/>
        <pt x="643" y="297" on="0"/>
        <pt x="639" y="242" on="0"/>
        <pt x="606" y="131" on="0"/>
        <pt x="549" y="49" on="0"/>
        <pt x="430" y="-16" on="0"/>
        <pt x="266" y="-16" on="0"/>
        <pt x="147" y="49" on="0"/>
        <pt x="90" y="131" on="0"/>
        <pt x="57" y="242" on="0"/>
        <pt x="53" y="297" on="0"/>
      </contour>
      <contour>
        <pt x="268" y="410" on="1"/>
        <pt x="270" y="283" on="0"/>
        <pt x="301" y="186" on="0"/>
        <pt x="348" y="186" on="1"/>
        <pt x="385" y="186" on="0"/>
        <pt x="420" y="246" on="0"/>
        <pt x="428" y="328" on="0"/>
        <pt x="428" y="410" on="1"/>
        <pt x="428" y="562" on="0"/>
        <pt x="401" y="676" on="0"/>
        <pt x="295" y="676" on="0"/>
        <pt x="268" y="562" on="0"/>
      </contour>
      <contour>
        <pt x="283" y="1120" on="1"/>
        <pt x="283" y="993" on="0"/>
        <pt x="307" y="893" on="0"/>
        <pt x="389" y="893" on="0"/>
        <pt x="414" y="993" on="0"/>
        <pt x="414" y="1120" on="1"/>
        <pt x="414" y="1233" on="0"/>
        <pt x="389" y="1327" on="0"/>
        <pt x="348" y="1327" on="1"/>
        <pt x="311" y="1327" on="0"/>
        <pt x="285" y="1239" on="0"/>
      </contour>
    </TTGlyph>
    <TTGlyph name="ellipsis" xMin="53" yMin="0" xMax="911" yMax="227">
      <contour>
        <pt x="53" y="0" on="1"/>
        <pt x="53" y="227" on="1"/>
        <pt x="268" y="227" on="1"/>
        <pt x="268" y="0" on="1"/>
      </contour>
      <contour>
        <pt x="375" y="0" on="1"/>
        <pt x="375" y="227" on="1"/>
        <pt x="590" y="227" on="1"/>
        <pt x="590" y="0" on="1"/>
      </contour>
      <contour>
        <pt x="696" y="0" on="1"/>
        <pt x="696" y="227" on="1"/>
        <pt x="911" y="227" on="1"/>
        <pt x="911" y="0" on="1"/>
      </contour>
    </TTGlyph>
    <TTGlyph name="emdash" xMin="74" yMin="649" xMax="899" yMax="844">
      <contour>
        <pt x="74" y="649" on="1"/>
        <pt x="74" y="844" on="1"/>
        <pt x="899" y="844" on="1"/>
        <pt x="899" y="649" on="1"/>
      </contour>
    </TTGlyph>
    <TTGlyph name="endash" xMin="74" yMin="649" xMax="733" yMax="844">
      <contour>
        <pt x="74" y="649" on="1"/>
        <pt x="74" y="844" on="1"/>
        <pt x="733" y="844" on="1"/>
        <pt x="733" y="649" on="1"/>
      </contour>
    </TTGlyph>
    <TTGlyph name="equal" xMin="74" yMin="477" xMax="985" yMax="1036">
      <contour>
        <pt x="74" y="477" on="1"/>
        <pt x="74" y="649" on="1"/>
        <pt x="985" y="649" on="1"/>
        <pt x="985" y="477" on="1"/>
      </contour>
      <contour>
        <pt x="74" y="864" on="1"/>
        <pt x="74" y="1036" on="1"/>
        <pt x="985" y="1036" on="1"/>
        <pt x="985" y="864" on="1"/>
      </contour>
    </TTGlyph>
    <TTGlyph name="eth" xMin="76" yMin="-16" xMax="606" yMax="1528">
      <contour>
        <pt x="76" y="279" on="1"/>
        <pt x="76" y="858" on="1"/>
        <pt x="76" y="1137" on="0"/>
        <pt x="248" y="1137" on="1"/>
        <pt x="311" y="1137" on="0"/>
        <pt x="403" y="1059" on="1"/>
        <pt x="391" y="1168" on="0"/>
        <pt x="352" y="1262" on="1"/>
        <pt x="270" y="1190" on="1"/>
        <pt x="215" y="1253" on="1"/>
        <pt x="315" y="1341" on="1"/>
        <pt x="270" y="1407" on="1"/>
        <pt x="379" y="1507" on="1"/>
        <pt x="404" y="1480" on="0"/>
        <pt x="432" y="1446" on="1"/>
        <pt x="526" y="1528" on="1"/>
        <pt x="582" y="1462" on="1"/>
        <pt x="481" y="1374" on="1"/>
        <pt x="606" y="1173" on="0"/>
        <pt x="606" y="928" on="1"/>
        <pt x="606" y="272" on="1"/>
        <pt x="606" y="260" on="0"/>
        <pt x="604" y="221" on="0"/>
        <pt x="575" y="123" on="0"/>
        <pt x="524" y="45" on="0"/>
        <pt x="416" y="-16" on="0"/>
        <pt x="340" y="-16" on="1"/>
        <pt x="266" y="-16" on="0"/>
        <pt x="156" y="45" on="0"/>
        <pt x="106" y="131" on="0"/>
        <pt x="78" y="217" on="0"/>
        <pt x="78" y="248" on="1"/>
      </contour>
      <contour>
        <pt x="272" y="279" on="0"/>
        <pt x="268" y="256" on="0"/>
        <pt x="276" y="221" on="0"/>
        <pt x="289" y="188" on="0"/>
        <pt x="319" y="166" on="0"/>
        <pt x="340" y="166" on="1"/>
        <pt x="410" y="176" on="0"/>
        <pt x="412" y="279" on="1"/>
        <pt x="412" y="842" on="1"/>
        <pt x="410" y="842" on="0"/>
        <pt x="414" y="864" on="0"/>
        <pt x="406" y="899" on="0"/>
        <pt x="393" y="932" on="0"/>
        <pt x="362" y="956" on="0"/>
        <pt x="340" y="956" on="1"/>
        <pt x="272" y="946" on="0"/>
        <pt x="270" y="842" on="1"/>
        <pt x="270" y="279" on="1"/>
      </contour>
    </TTGlyph>
    <TTGlyph name="exclam" xMin="74" yMin="0" xMax="313" yMax="1505">
      <contour>
        <pt x="74" y="1505" on="1"/>
        <pt x="313" y="1505" on="1"/>
        <pt x="258" y="406" on="1"/>
        <pt x="129" y="406" on="1"/>
      </contour>
      <contour>
        <pt x="86" y="0" on="1"/>
        <pt x="86" y="227" on="1"/>
        <pt x="301" y="227" on="1"/>
        <pt x="301" y="0" on="1"/>
      </contour>
    </TTGlyph>
    <TTGlyph name="exclamdown" xMin="74" yMin="-385" xMax="313" yMax="1120">
      <contour>
        <pt x="74" y="-385" on="1"/>
        <pt x="129" y="715" on="1"/>
        <pt x="258" y="715" on="1"/>
        <pt x="313" y="-385" on="1"/>
      </contour>
      <contour>
        <pt x="86" y="893" on="1"/>
        <pt x="86" y="1120" on="1"/>
        <pt x="301" y="1120" on="1"/>
        <pt x="301" y="893" on="1"/>
      </contour>
    </TTGlyph>
    <TTGlyph name="f" xMin="20" yMin="0" xMax="459" yMax="1513">
      <contour>
        <pt x="20" y="934" on="1"/>
        <pt x="20" y="1120" on="1"/>
        <pt x="125" y="1120" on="1"/>
        <pt x="125" y="1137" on="1"/>
        <pt x="125" y="1151" on="1"/>
        <pt x="125" y="1202" on="0"/>
        <pt x="129" y="1268" on="0"/>
        <pt x="154" y="1386" on="0"/>
        <pt x="199" y="1456" on="0"/>
        <pt x="295" y="1513" on="0"/>
        <pt x="362" y="1513" on="1"/>
        <pt x="459" y="1499" on="1"/>
        <pt x="459" y="1321" on="1"/>
        <pt x="432" y="1329" on="0"/>
        <pt x="397" y="1329" on="1"/>
        <pt x="331" y="1329" on="0"/>
        <pt x="332" y="1149" on="1"/>
        <pt x="332" y="1133" on="1"/>
        <pt x="332" y="1120" on="1"/>
        <pt x="436" y="1120" on="1"/>
        <pt x="436" y="934" on="1"/>
        <pt x="332" y="934" on="1"/>
        <pt x="332" y="0" on="1"/>
        <pt x="125" y="0" on="1"/>
        <pt x="125" y="934" on="1"/>
      </contour>
    </TTGlyph>
    <TTGlyph name="figuredash" xMin="74" yMin="455" xMax="371" yMax="649">
      <contour>
        <pt x="74" y="455" on="1"/>
        <pt x="74" y="649" on="1"/>
        <pt x="371" y="649" on="1"/>
        <pt x="371" y="455" on="1"/>
      </contour>
    </TTGlyph>
    <TTGlyph name="five" xMin="74" yMin="-16" xMax="651" yMax="1505">
      <contour>
        <pt x="74" y="438" on="1"/>
        <pt x="295" y="438" on="1"/>
        <pt x="295" y="379" on="1"/>
        <pt x="295" y="264" on="0"/>
        <pt x="324" y="176" on="0"/>
        <pt x="362" y="176" on="1"/>
        <pt x="399" y="176" on="0"/>
        <pt x="430" y="266" on="0"/>
        <pt x="430" y="377" on="1"/>
        <pt x="430" y="713" on="1"/>
        <pt x="430" y="824" on="0"/>
        <pt x="360" y="823" on="1"/>
        <pt x="327" y="823" on="0"/>
        <pt x="274" y="743" on="0"/>
        <pt x="274" y="713" on="1"/>
        <pt x="88" y="713" on="1"/>
        <pt x="88" y="1505" on="1"/>
        <pt x="623" y="1505" on="1"/>
        <pt x="623" y="1286" on="1"/>
        <pt x="279" y="1286" on="1"/>
        <pt x="279" y="973" on="1"/>
        <pt x="287" y="979" on="0"/>
        <pt x="313" y="997" on="0"/>
        <pt x="381" y="1026" on="0"/>
        <pt x="406" y="1024" on="1"/>
        <pt x="484" y="1024" on="0"/>
        <pt x="594" y="944" on="0"/>
        <pt x="637" y="825" on="0"/>
        <pt x="651" y="743" on="0"/>
        <pt x="651" y="713" on="1"/>
        <pt x="651" y="377" on="1"/>
        <pt x="651" y="-16" on="0"/>
        <pt x="362" y="-16" on="1"/>
        <pt x="284" y="-16" on="0"/>
        <pt x="174" y="43" on="0"/>
        <pt x="115" y="127" on="0"/>
        <pt x="82" y="260" on="0"/>
        <pt x="74" y="364" on="0"/>
      </contour>
    </TTGlyph>
    <TTGlyph name="four" xMin="25" yMin="0" xMax="672" yMax="1505">
      <contour>
        <pt x="25" y="328" on="1"/>
        <pt x="25" y="522" on="1"/>
        <pt x="348" y="1505" on="1"/>
        <pt x="569" y="1505" on="1"/>
        <pt x="569" y="522" on="1"/>
        <pt x="672" y="522" on="1"/>
        <pt x="672" y="328" on="1"/>
        <pt x="569" y="328" on="1"/>
        <pt x="569" y="0" on="1"/>
        <pt x="367" y="0" on="1"/>
        <pt x="367" y="328" on="1"/>
      </contour>
      <contour>
        <pt x="213" y="522" on="1"/>
        <pt x="367" y="522" on="1"/>
        <pt x="367" y="993" on="1"/>
        <pt x="367" y="1038" on="1"/>
        <pt x="354" y="1038" on="1"/>
        <pt x="342" y="993" on="1"/>
      </contour>
    </TTGlyph>
    <TTGlyph name="g" xMin="12" yMin="-401" xMax="698" yMax="1137">
      <contour>
        <pt x="12" y="-184" on="1"/>
        <pt x="12" y="-90" on="0"/>
        <pt x="174" y="-14" on="1"/>
        <pt x="49" y="21" on="0"/>
        <pt x="49" y="135" on="1"/>
        <pt x="49" y="180" on="0"/>
        <pt x="129" y="276" on="0"/>
        <pt x="178" y="303" on="1"/>
        <pt x="127" y="338" on="0"/>
        <pt x="68" y="459" on="0"/>
        <pt x="63" y="504" on="1"/>
        <pt x="59" y="547" on="1"/>
        <pt x="59" y="852" on="1"/>
        <pt x="59" y="864" on="0"/>
        <pt x="63" y="901" on="0"/>
        <pt x="92" y="999" on="0"/>
        <pt x="141" y="1075" on="0"/>
        <pt x="250" y="1137" on="0"/>
        <pt x="322" y="1137" on="1"/>
        <pt x="457" y="1137" on="0"/>
        <pt x="528" y="1034" on="1"/>
        <pt x="630" y="1136" on="0"/>
        <pt x="698" y="1137" on="1"/>
        <pt x="698" y="952" on="1"/>
        <pt x="626" y="952" on="0"/>
        <pt x="578" y="928" on="1"/>
        <pt x="588" y="858" on="1"/>
        <pt x="588" y="541" on="1"/>
        <pt x="588" y="531" on="0"/>
        <pt x="584" y="492" on="0"/>
        <pt x="553" y="397" on="0"/>
        <pt x="504" y="324" on="0"/>
        <pt x="395" y="264" on="0"/>
        <pt x="322" y="264" on="1"/>
        <pt x="295" y="264" on="0"/>
        <pt x="283" y="266" on="1"/>
        <pt x="254" y="241" on="0"/>
        <pt x="254" y="215" on="1"/>
        <pt x="254" y="199" on="0"/>
        <pt x="276" y="174" on="0"/>
        <pt x="338" y="158" on="0"/>
        <pt x="367" y="154" on="0"/>
        <pt x="412" y="145" on="1"/>
        <pt x="469" y="137" on="0"/>
        <pt x="557" y="111" on="0"/>
        <pt x="647" y="55" on="0"/>
        <pt x="698" y="-45" on="0"/>
        <pt x="698" y="-115" on="1"/>
        <pt x="698" y="-267" on="0"/>
        <pt x="492" y="-401" on="0"/>
        <pt x="344" y="-401" on="1"/>
        <pt x="180" y="-397" on="0"/>
        <pt x="12" y="-301" on="0"/>
      </contour>
      <contour>
        <pt x="213" y="-150" on="1"/>
        <pt x="213" y="-228" on="0"/>
        <pt x="348" y="-227" on="1"/>
        <pt x="407" y="-227" on="0"/>
        <pt x="506" y="-188" on="0"/>
        <pt x="506" y="-152" on="1"/>
        <pt x="506" y="-119" on="0"/>
        <pt x="465" y="-84" on="0"/>
        <pt x="395" y="-72" on="1"/>
        <pt x="289" y="-51" on="1"/>
        <pt x="213" y="-95" on="0"/>
      </contour>
      <contour>
        <pt x="262" y="509" on="1"/>
        <pt x="262" y="492" on="0"/>
        <pt x="293" y="436" on="0"/>
        <pt x="322" y="436" on="1"/>
        <pt x="385" y="442" on="0"/>
        <pt x="385" y="537" on="1"/>
        <pt x="385" y="844" on="1"/>
        <pt x="384" y="845" on="0"/>
        <pt x="384" y="850" on="0"/>
        <pt x="386" y="860" on="0"/>
        <pt x="386" y="861" on="1"/>
        <pt x="386" y="869" on="0"/>
        <pt x="383" y="880" on="1"/>
        <pt x="379" y="895" on="0"/>
        <pt x="369" y="926" on="0"/>
        <pt x="342" y="946" on="0"/>
        <pt x="322" y="946" on="1"/>
        <pt x="293" y="946" on="0"/>
        <pt x="262" y="895" on="0"/>
        <pt x="262" y="868" on="1"/>
        <pt x="262" y="844" on="1"/>
        <pt x="262" y="537" on="1"/>
      </contour>
    </TTGlyph>
    <TTGlyph name="germandbls" xMin="66" yMin="0" xMax="680" yMax="1522">
      <contour>
        <pt x="66" y="0" on="1"/>
        <pt x="66" y="1235" on="1"/>
        <pt x="66" y="1358" on="0"/>
        <pt x="207" y="1522" on="0"/>
        <pt x="346" y="1522" on="1"/>
        <pt x="479" y="1522" on="0"/>
        <pt x="616" y="1360" on="0"/>
        <pt x="616" y="1237" on="1"/>
        <pt x="616" y="1128" on="0"/>
        <pt x="528" y="1063" on="1"/>
        <pt x="680" y="975" on="0"/>
        <pt x="680" y="575" on="1"/>
        <pt x="680" y="393" on="0"/>
        <pt x="639" y="160" on="0"/>
        <pt x="547" y="41" on="0"/>
        <pt x="434" y="0" on="0"/>
        <pt x="346" y="0" on="1"/>
        <pt x="346" y="193" on="1"/>
        <pt x="391" y="193" on="0"/>
        <pt x="442" y="244" on="0"/>
        <pt x="473" y="416" on="0"/>
        <pt x="473" y="575" on="1"/>
        <pt x="473" y="745" on="0"/>
        <pt x="442" y="924" on="0"/>
        <pt x="391" y="979" on="0"/>
        <pt x="346" y="979" on="1"/>
        <pt x="346" y="1120" on="1"/>
        <pt x="381" y="1120" on="0"/>
        <pt x="432" y="1186" on="0"/>
        <pt x="432" y="1237" on="1"/>
        <pt x="432" y="1282" on="0"/>
        <pt x="389" y="1337" on="0"/>
        <pt x="346" y="1337" on="1"/>
        <pt x="272" y="1337" on="0"/>
        <pt x="272" y="1235" on="1"/>
        <pt x="272" y="0" on="1"/>
      </contour>
    </TTGlyph>
    <TTGlyph name="grave" xMin="293" yMin="1305" xMax="614" yMax="1489">
      <contour>
        <pt x="293" y="1489" on="1"/>
        <pt x="508" y="1489" on="1"/>
        <pt x="614" y="1305" on="1"/>
        <pt x="455" y="1305" on="1"/>
      </contour>
    </TTGlyph>
    <TTGlyph name="greater" xMin="74" yMin="174" xMax="985" yMax="1284">
      <contour>
        <pt x="74" y="174" on="1"/>
        <pt x="74" y="373" on="1"/>
        <pt x="772" y="729" on="1"/>
        <pt x="74" y="1085" on="1"/>
        <pt x="74" y="1284" on="1"/>
        <pt x="985" y="809" on="1"/>
        <pt x="985" y="649" on="1"/>
      </contour>
    </TTGlyph>
    <TTGlyph name="h" xMin="82" yMin="0" xMax="612" yMax="1505">
      <contour>
        <pt x="82" y="0" on="1"/>
        <pt x="82" y="1505" on="1"/>
        <pt x="289" y="1505" on="1"/>
        <pt x="289" y="1026" on="1"/>
        <pt x="321" y="1058" on="1"/>
        <pt x="351" y="1088" on="0"/>
        <pt x="424" y="1137" on="0"/>
        <pt x="457" y="1137" on="1"/>
        <pt x="533" y="1137" on="0"/>
        <pt x="612" y="999" on="0"/>
        <pt x="612" y="918" on="1"/>
        <pt x="612" y="0" on="1"/>
        <pt x="406" y="0" on="1"/>
        <pt x="406" y="887" on="1"/>
        <pt x="406" y="936" on="0"/>
        <pt x="356" y="936" on="1"/>
        <pt x="315" y="936" on="0"/>
        <pt x="289" y="883" on="1"/>
        <pt x="289" y="0" on="1"/>
      </contour>
    </TTGlyph>
    <TTGlyph name="hungarumlaut" xMin="215" yMin="1305" xMax="840" yMax="1489">
      <contour>
        <pt x="215" y="1305" on="1"/>
        <pt x="322" y="1489" on="1"/>
        <pt x="537" y="1489" on="1"/>
        <pt x="375" y="1305" on="1"/>
      </contour>
      <contour>
        <pt x="518" y="1305" on="1"/>
        <pt x="625" y="1489" on="1"/>
        <pt x="840" y="1489" on="1"/>
        <pt x="678" y="1305" on="1"/>
      </contour>
    </TTGlyph>
    <TTGlyph name="hyphen" xMin="74" yMin="455" xMax="371" yMax="649">
      <contour>
        <pt x="74" y="455" on="1"/>
        <pt x="74" y="649" on="1"/>
        <pt x="371" y="649" on="1"/>
        <pt x="371" y="455" on="1"/>
      </contour>
    </TTGlyph>
    <TTGlyph name="i" xMin="82" yMin="0" xMax="289" yMax="1505">
      <contour>
        <pt x="82" y="0" on="1"/>
        <pt x="82" y="1120" on="1"/>
        <pt x="289" y="1120" on="1"/>
        <pt x="289" y="0" on="1"/>
      </contour>
      <contour>
        <pt x="82" y="1298" on="1"/>
        <pt x="82" y="1505" on="1"/>
        <pt x="289" y="1505" on="1"/>
        <pt x="289" y="1298" on="1"/>
      </contour>
    </TTGlyph>
    <TTGlyph name="iacute" xMin="82" yMin="0" xMax="403" yMax="1489">
      <contour>
        <pt x="82" y="0" on="1"/>
        <pt x="289" y="0" on="1"/>
        <pt x="289" y="1120" on="1"/>
        <pt x="82" y="1120" on="1"/>
      </contour>
      <contour>
        <pt x="82" y="1305" on="1"/>
        <pt x="188" y="1489" on="1"/>
        <pt x="403" y="1489" on="1"/>
        <pt x="242" y="1305" on="1"/>
      </contour>
    </TTGlyph>
    <TTGlyph name="icircumflex" xMin="-66" yMin="0" xMax="436" yMax="1489">
      <contour>
        <pt x="-66" y="1305" on="1"/>
        <pt x="76" y="1489" on="1"/>
        <pt x="295" y="1489" on="1"/>
        <pt x="436" y="1305" on="1"/>
        <pt x="248" y="1305" on="1"/>
        <pt x="184" y="1376" on="1"/>
        <pt x="123" y="1305" on="1"/>
      </contour>
      <contour>
        <pt x="82" y="0" on="1"/>
        <pt x="289" y="0" on="1"/>
        <pt x="289" y="1120" on="1"/>
        <pt x="82" y="1120" on="1"/>
      </contour>
    </TTGlyph>
    <TTGlyph name="idieresis" xMin="-53" yMin="0" xMax="426" yMax="1505">
      <contour>
        <pt x="-53" y="1305" on="1"/>
        <pt x="-53" y="1505" on="1"/>
        <pt x="137" y="1505" on="1"/>
        <pt x="137" y="1305" on="1"/>
      </contour>
      <contour>
        <pt x="82" y="0" on="1"/>
        <pt x="82" y="1120" on="1"/>
        <pt x="289" y="1120" on="1"/>
        <pt x="289" y="0" on="1"/>
      </contour>
      <contour>
        <pt x="236" y="1305" on="1"/>
        <pt x="236" y="1505" on="1"/>
        <pt x="426" y="1505" on="1"/>
        <pt x="426" y="1305" on="1"/>
      </contour>
    </TTGlyph>
    <TTGlyph name="igrave" xMin="-33" yMin="0" xMax="289" yMax="1489">
      <contour>
        <pt x="-33" y="1489" on="1"/>
        <pt x="182" y="1489" on="1"/>
        <pt x="289" y="1305" on="1"/>
        <pt x="129" y="1305" on="1"/>
      </contour>
      <contour>
        <pt x="82" y="0" on="1"/>
        <pt x="289" y="0" on="1"/>
        <pt x="289" y="1120" on="1"/>
        <pt x="82" y="1120" on="1"/>
      </contour>
    </TTGlyph>
    <TTGlyph name="j" xMin="-45" yMin="-385" xMax="283" yMax="1505">
      <contour>
        <pt x="-45" y="-182" on="1"/>
        <pt x="-16" y="-190" on="0"/>
        <pt x="12" y="-190" on="1"/>
        <pt x="76" y="-190" on="0"/>
        <pt x="76" y="-48" on="1"/>
        <pt x="76" y="-45" on="0"/>
        <pt x="76" y="-30" on="0"/>
        <pt x="76" y="-27" on="1"/>
        <pt x="76" y="1120" on="1"/>
        <pt x="283" y="1120" on="1"/>
        <pt x="283" y="-29" on="1"/>
        <pt x="283" y="-80" on="0"/>
        <pt x="279" y="-145" on="0"/>
        <pt x="254" y="-260" on="0"/>
        <pt x="209" y="-330" on="0"/>
        <pt x="113" y="-385" on="0"/>
        <pt x="45" y="-385" on="1"/>
        <pt x="16" y="-385" on="0"/>
        <pt x="-29" y="-379" on="0"/>
        <pt x="-37" y="-377" on="1"/>
        <pt x="-45" y="-373" on="1"/>
      </contour>
      <contour>
        <pt x="76" y="1298" on="1"/>
        <pt x="76" y="1505" on="1"/>
        <pt x="283" y="1505" on="1"/>
        <pt x="283" y="1298" on="1"/>
      </contour>
    </TTGlyph>
    <TTGlyph name="k" xMin="82" yMin="0" xMax="637" yMax="1505">
      <contour>
        <pt x="82" y="0" on="1"/>
        <pt x="82" y="1505" on="1"/>
        <pt x="289" y="1505" on="1"/>
        <pt x="289" y="827" on="1"/>
        <pt x="289" y="791" on="1"/>
        <pt x="299" y="791" on="1"/>
        <pt x="311" y="827" on="1"/>
        <pt x="412" y="1120" on="1"/>
        <pt x="598" y="1120" on="1"/>
        <pt x="449" y="756" on="1"/>
        <pt x="637" y="0" on="1"/>
        <pt x="438" y="0" on="1"/>
        <pt x="336" y="453" on="1"/>
        <pt x="332" y="469" on="1"/>
        <pt x="322" y="469" on="1"/>
        <pt x="315" y="453" on="1"/>
        <pt x="289" y="387" on="1"/>
        <pt x="289" y="0" on="1"/>
      </contour>
    </TTGlyph>
    <TTGlyph name="l" xMin="82" yMin="0" xMax="289" yMax="1505">
      <contour>
        <pt x="82" y="0" on="1"/>
        <pt x="82" y="1505" on="1"/>
        <pt x="289" y="1505" on="1"/>
        <pt x="289" y="0" on="1"/>
      </contour>
    </TTGlyph>
    <TTGlyph name="less" xMin="74" yMin="174" xMax="985" yMax="1284">
      <contour>
        <pt x="74" y="649" on="1"/>
        <pt x="74" y="809" on="1"/>
        <pt x="985" y="1284" on="1"/>
        <pt x="985" y="1085" on="1"/>
        <pt x="287" y="729" on="1"/>
        <pt x="985" y="373" on="1"/>
        <pt x="985" y="174" on="1"/>
      </contour>
    </TTGlyph>
    <TTGlyph name="lslash" xMin="31" yMin="0" xMax="438" yMax="1505">
      <contour>
        <pt x="31" y="561" on="1"/>
        <pt x="31" y="782" on="1"/>
        <pt x="131" y="860" on="1"/>
        <pt x="131" y="1505" on="1"/>
        <pt x="338" y="1505" on="1"/>
        <pt x="338" y="1022" on="1"/>
        <pt x="438" y="1100" on="1"/>
        <pt x="438" y="879" on="1"/>
        <pt x="338" y="801" on="1"/>
        <pt x="338" y="0" on="1"/>
        <pt x="131" y="0" on="1"/>
        <pt x="131" y="639" on="1"/>
      </contour>
    </TTGlyph>
    <TTGlyph name="m" xMin="82" yMin="0" xMax="944" yMax="1137">
      <contour>
        <pt x="82" y="0" on="1"/>
        <pt x="82" y="1120" on="1"/>
        <pt x="289" y="1120" on="1"/>
        <pt x="289" y="1026" on="1"/>
        <pt x="291" y="1026" on="0"/>
        <pt x="352" y="1087" on="0"/>
        <pt x="428" y="1137" on="0"/>
        <pt x="461" y="1137" on="1"/>
        <pt x="561" y="1137" on="0"/>
        <pt x="600" y="1012" on="1"/>
        <pt x="604" y="1016" on="0"/>
        <pt x="682" y="1090" on="0"/>
        <pt x="756" y="1137" on="0"/>
        <pt x="788" y="1137" on="1"/>
        <pt x="864" y="1137" on="0"/>
        <pt x="944" y="999" on="0"/>
        <pt x="944" y="918" on="1"/>
        <pt x="944" y="0" on="1"/>
        <pt x="750" y="0" on="1"/>
        <pt x="750" y="887" on="1"/>
        <pt x="750" y="936" on="0"/>
        <pt x="694" y="936" on="1"/>
        <pt x="653" y="936" on="0"/>
        <pt x="616" y="883" on="1"/>
        <pt x="616" y="0" on="1"/>
        <pt x="422" y="0" on="1"/>
        <pt x="422" y="887" on="1"/>
        <pt x="422" y="936" on="0"/>
        <pt x="367" y="936" on="1"/>
        <pt x="326" y="936" on="0"/>
        <pt x="289" y="883" on="1"/>
        <pt x="289" y="0" on="1"/>
      </contour>
    </TTGlyph>
    <TTGlyph name="macron" xMin="313" yMin="1315" xMax="711" yMax="1477">
      <contour>
        <pt x="313" y="1315" on="1"/>
        <pt x="313" y="1477" on="1"/>
        <pt x="711" y="1477" on="1"/>
        <pt x="711" y="1315" on="1"/>
      </contour>
    </TTGlyph>
    <TTGlyph name="minus" xMin="74" yMin="649" xMax="702" yMax="821">
      <contour>
        <pt x="74" y="649" on="1"/>
        <pt x="74" y="821" on="1"/>
        <pt x="702" y="821" on="1"/>
        <pt x="702" y="649" on="1"/>
      </contour>
    </TTGlyph>
    <TTGlyph name="n" xMin="82" yMin="0" xMax="612" yMax="1137">
      <contour>
        <pt x="82" y="0" on="1"/>
        <pt x="82" y="1120" on="1"/>
        <pt x="289" y="1120" on="1"/>
        <pt x="289" y="1026" on="1"/>
        <pt x="321" y="1058" on="1"/>
        <pt x="351" y="1088" on="0"/>
        <pt x="424" y="1137" on="0"/>
        <pt x="457" y="1137" on="1"/>
        <pt x="533" y="1137" on="0"/>
        <pt x="612" y="999" on="0"/>
        <pt x="612" y="918" on="1"/>
        <pt x="612" y="0" on="1"/>
        <pt x="406" y="0" on="1"/>
        <pt x="406" y="887" on="1"/>
        <pt x="406" y="936" on="0"/>
        <pt x="356" y="936" on="1"/>
        <pt x="315" y="936" on="0"/>
        <pt x="289" y="883" on="1"/>
        <pt x="289" y="0" on="1"/>
      </contour>
    </TTGlyph>
    <TTGlyph name="nine" xMin="57" yMin="-16" xMax="635" yMax="1522">
      <contour>
        <pt x="57" y="340" on="1"/>
        <pt x="57" y="434" on="1"/>
        <pt x="279" y="434" on="1"/>
        <pt x="279" y="272" on="0"/>
        <pt x="301" y="176" on="0"/>
        <pt x="346" y="176" on="1"/>
        <pt x="385" y="176" on="0"/>
        <pt x="414" y="250" on="0"/>
        <pt x="414" y="340" on="1"/>
        <pt x="414" y="623" on="1"/>
        <pt x="355" y="586" on="0"/>
        <pt x="303" y="586" on="1"/>
        <pt x="223" y="586" on="0"/>
        <pt x="117" y="657" on="0"/>
        <pt x="72" y="772" on="0"/>
        <pt x="57" y="860" on="0"/>
        <pt x="57" y="903" on="1"/>
        <pt x="57" y="1196" on="1"/>
        <pt x="57" y="1237" on="0"/>
        <pt x="74" y="1323" on="0"/>
        <pt x="125" y="1444" on="0"/>
        <pt x="252" y="1522" on="0"/>
        <pt x="440" y="1522" on="0"/>
        <pt x="567" y="1444" on="0"/>
        <pt x="618" y="1323" on="0"/>
        <pt x="635" y="1237" on="0"/>
        <pt x="635" y="1196" on="1"/>
        <pt x="635" y="340" on="1"/>
        <pt x="635" y="-16" on="0"/>
        <pt x="57" y="-16" on="0"/>
      </contour>
      <contour>
        <pt x="279" y="825" on="1"/>
        <pt x="279" y="807" on="0"/>
        <pt x="315" y="758" on="0"/>
        <pt x="377" y="758" on="0"/>
        <pt x="412" y="799" on="0"/>
        <pt x="414" y="819" on="1"/>
        <pt x="414" y="1262" on="1"/>
        <pt x="414" y="1282" on="0"/>
        <pt x="379" y="1329" on="0"/>
        <pt x="346" y="1329" on="1"/>
        <pt x="315" y="1329" on="0"/>
        <pt x="279" y="1280" on="0"/>
        <pt x="279" y="1262" on="1"/>
      </contour>
    </TTGlyph>
    <TTGlyph name="ntilde" xMin="82" yMin="0" xMax="612" yMax="1495">
      <contour>
        <pt x="82" y="0" on="1"/>
        <pt x="82" y="1120" on="1"/>
        <pt x="289" y="1120" on="1"/>
        <pt x="289" y="1026" on="1"/>
        <pt x="321" y="1058" on="1"/>
        <pt x="351" y="1088" on="0"/>
        <pt x="424" y="1137" on="0"/>
        <pt x="457" y="1137" on="1"/>
        <pt x="533" y="1137" on="0"/>
        <pt x="612" y="999" on="0"/>
        <pt x="612" y="918" on="1"/>
        <pt x="612" y="0" on="1"/>
        <pt x="406" y="0" on="1"/>
        <pt x="406" y="887" on="1"/>
        <pt x="406" y="936" on="0"/>
        <pt x="356" y="936" on="1"/>
        <pt x="315" y="936" on="0"/>
        <pt x="289" y="883" on="1"/>
        <pt x="289" y="0" on="1"/>
      </contour>
      <contour>
        <pt x="147" y="1305" on="1"/>
        <pt x="147" y="1456" on="1"/>
        <pt x="196" y="1495" on="0"/>
        <pt x="256" y="1495" on="1"/>
        <pt x="289" y="1495" on="0"/>
        <pt x="406" y="1458" on="0"/>
        <pt x="436" y="1456" on="1"/>
        <pt x="461" y="1456" on="0"/>
        <pt x="516" y="1473" on="0"/>
        <pt x="530" y="1481" on="1"/>
        <pt x="545" y="1489" on="1"/>
        <pt x="545" y="1337" on="1"/>
        <pt x="494" y="1298" on="0"/>
        <pt x="436" y="1298" on="1"/>
        <pt x="405" y="1298" on="0"/>
        <pt x="289" y="1337" on="0"/>
        <pt x="256" y="1337" on="1"/>
        <pt x="231" y="1337" on="0"/>
        <pt x="176" y="1321" on="0"/>
        <pt x="162" y="1313" on="1"/>
      </contour>
    </TTGlyph>
    <TTGlyph name="numbersign" xMin="49" yMin="0" xMax="1184" yMax="1505">
      <contour>
        <pt x="49" y="438" on="1"/>
        <pt x="76" y="633" on="1"/>
        <pt x="274" y="633" on="1"/>
        <pt x="311" y="891" on="1"/>
        <pt x="115" y="891" on="1"/>
        <pt x="141" y="1085" on="1"/>
        <pt x="338" y="1085" on="1"/>
        <pt x="395" y="1505" on="1"/>
        <pt x="592" y="1505" on="1"/>
        <pt x="535" y="1085" on="1"/>
        <pt x="795" y="1085" on="1"/>
        <pt x="852" y="1505" on="1"/>
        <pt x="1049" y="1505" on="1"/>
        <pt x="991" y="1085" on="1"/>
        <pt x="1184" y="1085" on="1"/>
        <pt x="1157" y="891" on="1"/>
        <pt x="965" y="891" on="1"/>
        <pt x="928" y="633" on="1"/>
        <pt x="1118" y="633" on="1"/>
        <pt x="1092" y="438" on="1"/>
        <pt x="901" y="438" on="1"/>
        <pt x="842" y="0" on="1"/>
        <pt x="645" y="0" on="1"/>
        <pt x="705" y="438" on="1"/>
        <pt x="444" y="438" on="1"/>
        <pt x="385" y="0" on="1"/>
        <pt x="188" y="0" on="1"/>
        <pt x="248" y="438" on="1"/>
      </contour>
      <contour>
        <pt x="471" y="633" on="1"/>
        <pt x="731" y="633" on="1"/>
        <pt x="768" y="891" on="1"/>
        <pt x="508" y="891" on="1"/>
      </contour>
    </TTGlyph>
    <TTGlyph name="o" xMin="63" yMin="-16" xMax="594" yMax="1137">
      <contour>
        <pt x="63" y="279" on="1"/>
        <pt x="63" y="842" on="1"/>
        <pt x="63" y="854" on="0"/>
        <pt x="66" y="893" on="0"/>
        <pt x="94" y="995" on="0"/>
        <pt x="143" y="1073" on="0"/>
        <pt x="254" y="1137" on="0"/>
        <pt x="328" y="1137" on="1"/>
        <pt x="527" y="1137" on="0"/>
        <pt x="580" y="940" on="1"/>
        <pt x="594" y="889" on="0"/>
        <pt x="594" y="848" on="1"/>
        <pt x="594" y="272" on="1"/>
        <pt x="594" y="260" on="0"/>
        <pt x="592" y="221" on="0"/>
        <pt x="563" y="123" on="0"/>
        <pt x="512" y="45" on="0"/>
        <pt x="403" y="-16" on="0"/>
        <pt x="328" y="-16" on="1"/>
        <pt x="254" y="-16" on="0"/>
        <pt x="143" y="45" on="0"/>
        <pt x="94" y="131" on="0"/>
        <pt x="66" y="217" on="0"/>
        <pt x="66" y="248" on="1"/>
      </contour>
      <contour>
        <pt x="257" y="259" on="1"/>
        <pt x="257" y="250" on="0"/>
        <pt x="260" y="239" on="1"/>
        <pt x="264" y="222" on="0"/>
        <pt x="276" y="188" on="0"/>
        <pt x="307" y="166" on="0"/>
        <pt x="328" y="166" on="1"/>
        <pt x="398" y="176" on="0"/>
        <pt x="399" y="279" on="1"/>
        <pt x="399" y="842" on="1"/>
        <pt x="397" y="842" on="0"/>
        <pt x="399" y="853" on="1"/>
        <pt x="400" y="857" on="0"/>
        <pt x="400" y="861" on="1"/>
        <pt x="400" y="870" on="0"/>
        <pt x="397" y="882" on="1"/>
        <pt x="393" y="899" on="0"/>
        <pt x="381" y="932" on="0"/>
        <pt x="350" y="956" on="0"/>
        <pt x="328" y="956" on="1"/>
        <pt x="260" y="946" on="0"/>
        <pt x="258" y="842" on="1"/>
        <pt x="258" y="279" on="1"/>
        <pt x="259" y="278" on="0"/>
        <pt x="259" y="272" on="0"/>
        <pt x="257" y="260" on="0"/>
      </contour>
    </TTGlyph>
    <TTGlyph name="oacute" xMin="63" yMin="-16" xMax="594" yMax="1489">
      <contour>
        <pt x="63" y="279" on="1"/>
        <pt x="63" y="842" on="1"/>
        <pt x="63" y="854" on="0"/>
        <pt x="66" y="893" on="0"/>
        <pt x="94" y="995" on="0"/>
        <pt x="143" y="1073" on="0"/>
        <pt x="254" y="1137" on="0"/>
        <pt x="328" y="1137" on="1"/>
        <pt x="527" y="1137" on="0"/>
        <pt x="580" y="940" on="1"/>
        <pt x="594" y="889" on="0"/>
        <pt x="594" y="848" on="1"/>
        <pt x="594" y="272" on="1"/>
        <pt x="594" y="260" on="0"/>
        <pt x="592" y="221" on="0"/>
        <pt x="563" y="123" on="0"/>
        <pt x="512" y="45" on="0"/>
        <pt x="403" y="-16" on="0"/>
        <pt x="328" y="-16" on="1"/>
        <pt x="254" y="-16" on="0"/>
        <pt x="143" y="45" on="0"/>
        <pt x="94" y="131" on="0"/>
        <pt x="66" y="217" on="0"/>
        <pt x="66" y="248" on="1"/>
      </contour>
      <contour>
        <pt x="260" y="279" on="0"/>
        <pt x="256" y="256" on="0"/>
        <pt x="264" y="221" on="0"/>
        <pt x="276" y="188" on="0"/>
        <pt x="307" y="166" on="0"/>
        <pt x="328" y="166" on="1"/>
        <pt x="398" y="176" on="0"/>
        <pt x="399" y="279" on="1"/>
        <pt x="399" y="842" on="1"/>
        <pt x="397" y="842" on="0"/>
        <pt x="401" y="864" on="0"/>
        <pt x="393" y="899" on="0"/>
        <pt x="381" y="932" on="0"/>
        <pt x="350" y="956" on="0"/>
        <pt x="328" y="956" on="1"/>
        <pt x="260" y="946" on="0"/>
        <pt x="258" y="842" on="1"/>
        <pt x="258" y="279" on="1"/>
      </contour>
      <contour>
        <pt x="260" y="1305" on="1"/>
        <pt x="367" y="1489" on="1"/>
        <pt x="582" y="1489" on="1"/>
        <pt x="420" y="1305" on="1"/>
      </contour>
    </TTGlyph>
    <TTGlyph name="ocircumflex" xMin="63" yMin="-16" xMax="594" yMax="1489">
      <contour>
        <pt x="63" y="279" on="1"/>
        <pt x="63" y="842" on="1"/>
        <pt x="63" y="854" on="0"/>
        <pt x="66" y="893" on="0"/>
        <pt x="94" y="995" on="0"/>
        <pt x="143" y="1073" on="0"/>
        <pt x="254" y="1137" on="0"/>
        <pt x="328" y="1137" on="1"/>
        <pt x="527" y="1137" on="0"/>
        <pt x="580" y="940" on="1"/>
        <pt x="594" y="889" on="0"/>
        <pt x="594" y="848" on="1"/>
        <pt x="594" y="272" on="1"/>
        <pt x="594" y="260" on="0"/>
        <pt x="592" y="221" on="0"/>
        <pt x="563" y="123" on="0"/>
        <pt x="512" y="45" on="0"/>
        <pt x="403" y="-16" on="0"/>
        <pt x="328" y="-16" on="1"/>
        <pt x="254" y="-16" on="0"/>
        <pt x="143" y="45" on="0"/>
        <pt x="94" y="131" on="0"/>
        <pt x="66" y="217" on="0"/>
        <pt x="66" y="248" on="1"/>
      </contour>
      <contour>
        <pt x="78" y="1305" on="1"/>
        <pt x="219" y="1489" on="1"/>
        <pt x="438" y="1489" on="1"/>
        <pt x="580" y="1305" on="1"/>
        <pt x="391" y="1305" on="1"/>
        <pt x="328" y="1376" on="1"/>
        <pt x="266" y="1305" on="1"/>
      </contour>
      <contour>
        <pt x="260" y="279" on="0"/>
        <pt x="256" y="256" on="0"/>
        <pt x="264" y="221" on="0"/>
        <pt x="276" y="188" on="0"/>
        <pt x="307" y="166" on="0"/>
        <pt x="328" y="166" on="1"/>
        <pt x="398" y="176" on="0"/>
        <pt x="399" y="279" on="1"/>
        <pt x="399" y="842" on="1"/>
        <pt x="397" y="842" on="0"/>
        <pt x="401" y="864" on="0"/>
        <pt x="393" y="899" on="0"/>
        <pt x="381" y="932" on="0"/>
        <pt x="350" y="956" on="0"/>
        <pt x="328" y="956" on="1"/>
        <pt x="260" y="946" on="0"/>
        <pt x="258" y="842" on="1"/>
        <pt x="258" y="279" on="1"/>
      </contour>
    </TTGlyph>
    <TTGlyph name="odieresis" xMin="63" yMin="-16" xMax="594" yMax="1505">
      <contour>
        <pt x="63" y="279" on="1"/>
        <pt x="63" y="842" on="1"/>
        <pt x="63" y="854" on="0"/>
        <pt x="66" y="893" on="0"/>
        <pt x="94" y="995" on="0"/>
        <pt x="143" y="1073" on="0"/>
        <pt x="254" y="1137" on="0"/>
        <pt x="328" y="1137" on="1"/>
        <pt x="527" y="1137" on="0"/>
        <pt x="580" y="940" on="1"/>
        <pt x="594" y="889" on="0"/>
        <pt x="594" y="848" on="1"/>
        <pt x="594" y="272" on="1"/>
        <pt x="594" y="260" on="0"/>
        <pt x="592" y="221" on="0"/>
        <pt x="563" y="123" on="0"/>
        <pt x="512" y="45" on="0"/>
        <pt x="403" y="-16" on="0"/>
        <pt x="328" y="-16" on="1"/>
        <pt x="254" y="-16" on="0"/>
        <pt x="143" y="45" on="0"/>
        <pt x="94" y="131" on="0"/>
        <pt x="66" y="217" on="0"/>
        <pt x="66" y="248" on="1"/>
      </contour>
      <contour>
        <pt x="90" y="1305" on="1"/>
        <pt x="90" y="1505" on="1"/>
        <pt x="281" y="1505" on="1"/>
        <pt x="281" y="1305" on="1"/>
      </contour>
      <contour>
        <pt x="260" y="279" on="0"/>
        <pt x="256" y="256" on="0"/>
        <pt x="264" y="221" on="0"/>
        <pt x="276" y="188" on="0"/>
        <pt x="307" y="166" on="0"/>
        <pt x="328" y="166" on="1"/>
        <pt x="398" y="176" on="0"/>
        <pt x="399" y="279" on="1"/>
        <pt x="399" y="842" on="1"/>
        <pt x="397" y="842" on="0"/>
        <pt x="401" y="864" on="0"/>
        <pt x="393" y="899" on="0"/>
        <pt x="381" y="932" on="0"/>
        <pt x="350" y="956" on="0"/>
        <pt x="328" y="956" on="1"/>
        <pt x="260" y="946" on="0"/>
        <pt x="258" y="842" on="1"/>
        <pt x="258" y="279" on="1"/>
      </contour>
      <contour>
        <pt x="379" y="1305" on="1"/>
        <pt x="379" y="1505" on="1"/>
        <pt x="569" y="1505" on="1"/>
        <pt x="569" y="1305" on="1"/>
      </contour>
    </TTGlyph>
    <TTGlyph name="oe" xMin="63" yMin="-16" xMax="936" yMax="1137">
      <contour>
        <pt x="63" y="279" on="1"/>
        <pt x="63" y="842" on="1"/>
        <pt x="63" y="854" on="0"/>
        <pt x="66" y="893" on="0"/>
        <pt x="94" y="995" on="0"/>
        <pt x="143" y="1073" on="0"/>
        <pt x="254" y="1137" on="0"/>
        <pt x="328" y="1137" on="1"/>
        <pt x="434" y="1137" on="0"/>
        <pt x="500" y="1077" on="1"/>
        <pt x="566" y="1136" on="0"/>
        <pt x="670" y="1137" on="1"/>
        <pt x="869" y="1137" on="0"/>
        <pt x="922" y="940" on="1"/>
        <pt x="936" y="889" on="0"/>
        <pt x="936" y="848" on="1"/>
        <pt x="936" y="522" on="1"/>
        <pt x="594" y="522" on="1"/>
        <pt x="594" y="272" on="1"/>
        <pt x="594" y="256" on="0"/>
        <pt x="602" y="215" on="0"/>
        <pt x="639" y="166" on="0"/>
        <pt x="670" y="166" on="1"/>
        <pt x="740" y="176" on="0"/>
        <pt x="743" y="279" on="1"/>
        <pt x="743" y="401" on="1"/>
        <pt x="936" y="401" on="1"/>
        <pt x="936" y="272" on="1"/>
        <pt x="936" y="260" on="0"/>
        <pt x="932" y="221" on="0"/>
        <pt x="903" y="123" on="0"/>
        <pt x="854" y="45" on="0"/>
        <pt x="743" y="-16" on="0"/>
        <pt x="668" y="-16" on="1"/>
        <pt x="562" y="-16" on="0"/>
        <pt x="498" y="41" on="1"/>
        <pt x="430" y="-16" on="0"/>
        <pt x="328" y="-16" on="1"/>
        <pt x="254" y="-16" on="0"/>
        <pt x="143" y="45" on="0"/>
        <pt x="94" y="131" on="0"/>
        <pt x="66" y="217" on="0"/>
        <pt x="66" y="248" on="1"/>
      </contour>
      <contour>
        <pt x="260" y="279" on="0"/>
        <pt x="256" y="256" on="0"/>
        <pt x="264" y="221" on="0"/>
        <pt x="276" y="188" on="0"/>
        <pt x="307" y="166" on="0"/>
        <pt x="328" y="166" on="1"/>
        <pt x="398" y="176" on="0"/>
        <pt x="399" y="279" on="1"/>
        <pt x="399" y="842" on="1"/>
        <pt x="397" y="842" on="0"/>
        <pt x="401" y="864" on="0"/>
        <pt x="393" y="899" on="0"/>
        <pt x="381" y="932" on="0"/>
        <pt x="350" y="956" on="0"/>
        <pt x="328" y="956" on="1"/>
        <pt x="260" y="946" on="0"/>
        <pt x="258" y="842" on="1"/>
        <pt x="258" y="279" on="1"/>
      </contour>
      <contour>
        <pt x="594" y="684" on="1"/>
        <pt x="743" y="684" on="1"/>
        <pt x="743" y="842" on="1"/>
        <pt x="743" y="854" on="0"/>
        <pt x="741" y="893" on="0"/>
        <pt x="705" y="956" on="0"/>
        <pt x="670" y="956" on="1"/>
        <pt x="627" y="956" on="0"/>
        <pt x="594" y="881" on="0"/>
        <pt x="594" y="848" on="1"/>
      </contour>
    </TTGlyph>
    <TTGlyph name="ogonek" xMin="348" yMin="-385" xMax="678" yMax="0">
      <contour>
        <pt x="348" y="-211" on="1"/>
        <pt x="348" y="-107" on="0"/>
        <pt x="475" y="-6" on="1"/>
        <pt x="483" y="0" on="1"/>
        <pt x="582" y="0" on="1"/>
        <pt x="572" y="-8" on="0"/>
        <pt x="541" y="-37" on="0"/>
        <pt x="489" y="-127" on="0"/>
        <pt x="489" y="-170" on="1"/>
        <pt x="489" y="-211" on="0"/>
        <pt x="551" y="-248" on="0"/>
        <pt x="633" y="-248" on="0"/>
        <pt x="678" y="-229" on="1"/>
        <pt x="662" y="-367" on="1"/>
        <pt x="607" y="-385" on="0"/>
        <pt x="557" y="-385" on="1"/>
        <pt x="461" y="-385" on="0"/>
        <pt x="348" y="-283" on="0"/>
      </contour>
    </TTGlyph>
    <TTGlyph name="ograve" xMin="63" yMin="-16" xMax="594" yMax="1489">
      <contour>
        <pt x="63" y="279" on="1"/>
        <pt x="63" y="842" on="1"/>
        <pt x="63" y="854" on="0"/>
        <pt x="66" y="893" on="0"/>
        <pt x="94" y="995" on="0"/>
        <pt x="143" y="1073" on="0"/>
        <pt x="254" y="1137" on="0"/>
        <pt x="328" y="1137" on="1"/>
        <pt x="527" y="1137" on="0"/>
        <pt x="580" y="940" on="1"/>
        <pt x="594" y="889" on="0"/>
        <pt x="594" y="848" on="1"/>
        <pt x="594" y="272" on="1"/>
        <pt x="594" y="260" on="0"/>
        <pt x="592" y="221" on="0"/>
        <pt x="563" y="123" on="0"/>
        <pt x="512" y="45" on="0"/>
        <pt x="403" y="-16" on="0"/>
        <pt x="328" y="-16" on="1"/>
        <pt x="254" y="-16" on="0"/>
        <pt x="143" y="45" on="0"/>
        <pt x="94" y="131" on="0"/>
        <pt x="66" y="217" on="0"/>
        <pt x="66" y="248" on="1"/>
      </contour>
      <contour>
        <pt x="98" y="1489" on="1"/>
        <pt x="313" y="1489" on="1"/>
        <pt x="420" y="1305" on="1"/>
        <pt x="260" y="1305" on="1"/>
      </contour>
      <contour>
        <pt x="260" y="279" on="0"/>
        <pt x="256" y="256" on="0"/>
        <pt x="264" y="221" on="0"/>
        <pt x="276" y="188" on="0"/>
        <pt x="307" y="166" on="0"/>
        <pt x="328" y="166" on="1"/>
        <pt x="398" y="176" on="0"/>
        <pt x="399" y="279" on="1"/>
        <pt x="399" y="842" on="1"/>
        <pt x="397" y="842" on="0"/>
        <pt x="401" y="864" on="0"/>
        <pt x="393" y="899" on="0"/>
        <pt x="381" y="932" on="0"/>
        <pt x="350" y="956" on="0"/>
        <pt x="328" y="956" on="1"/>
        <pt x="260" y="946" on="0"/>
        <pt x="258" y="842" on="1"/>
        <pt x="258" y="279" on="1"/>
      </contour>
    </TTGlyph>
    <TTGlyph name="one" xMin="25" yMin="0" xMax="393" yMax="1505">
      <contour>
        <pt x="25" y="1180" on="1"/>
        <pt x="25" y="1321" on="1"/>
        <pt x="76" y="1331" on="0"/>
        <pt x="162" y="1376" on="0"/>
        <pt x="213" y="1427" on="0"/>
        <pt x="248" y="1475" on="0"/>
        <pt x="254" y="1491" on="1"/>
        <pt x="260" y="1505" on="1"/>
        <pt x="393" y="1505" on="1"/>
        <pt x="393" y="0" on="1"/>
        <pt x="172" y="0" on="1"/>
        <pt x="172" y="1180" on="1"/>
      </contour>
    </TTGlyph>
    <TTGlyph name="oslash" xMin="63" yMin="-78" xMax="594" yMax="1198">
      <contour>
        <pt x="63" y="279" on="1"/>
        <pt x="63" y="842" on="1"/>
        <pt x="63" y="854" on="0"/>
        <pt x="66" y="893" on="0"/>
        <pt x="94" y="995" on="0"/>
        <pt x="143" y="1073" on="0"/>
        <pt x="254" y="1137" on="0"/>
        <pt x="328" y="1137" on="1"/>
        <pt x="379" y="1137" on="0"/>
        <pt x="434" y="1118" on="1"/>
        <pt x="455" y="1198" on="1"/>
        <pt x="530" y="1198" on="1"/>
        <pt x="500" y="1077" on="1"/>
        <pt x="588" y="993" on="0"/>
        <pt x="594" y="848" on="1"/>
        <pt x="594" y="272" on="1"/>
        <pt x="594" y="260" on="0"/>
        <pt x="592" y="221" on="0"/>
        <pt x="563" y="123" on="0"/>
        <pt x="512" y="45" on="0"/>
        <pt x="403" y="-16" on="0"/>
        <pt x="328" y="-16" on="1"/>
        <pt x="271" y="-16" on="0"/>
        <pt x="225" y="0" on="1"/>
        <pt x="205" y="-78" on="1"/>
        <pt x="125" y="-78" on="1"/>
        <pt x="156" y="43" on="1"/>
        <pt x="115" y="82" on="0"/>
        <pt x="68" y="199" on="0"/>
        <pt x="66" y="238" on="1"/>
      </contour>
      <contour>
        <pt x="258" y="436" on="1"/>
        <pt x="383" y="922" on="1"/>
        <pt x="365" y="957" on="0"/>
        <pt x="328" y="956" on="1"/>
        <pt x="260" y="946" on="0"/>
        <pt x="258" y="842" on="1"/>
      </contour>
      <contour>
        <pt x="274" y="197" on="1"/>
        <pt x="290" y="166" on="0"/>
        <pt x="328" y="166" on="1"/>
        <pt x="398" y="176" on="0"/>
        <pt x="399" y="279" on="1"/>
        <pt x="399" y="682" on="1"/>
      </contour>
    </TTGlyph>
    <TTGlyph name="otilde" xMin="63" yMin="-16" xMax="594" yMax="1495">
      <contour>
        <pt x="63" y="279" on="1"/>
        <pt x="63" y="842" on="1"/>
        <pt x="63" y="854" on="0"/>
        <pt x="66" y="893" on="0"/>
        <pt x="94" y="995" on="0"/>
        <pt x="143" y="1073" on="0"/>
        <pt x="254" y="1137" on="0"/>
        <pt x="328" y="1137" on="1"/>
        <pt x="527" y="1137" on="0"/>
        <pt x="580" y="940" on="1"/>
        <pt x="594" y="889" on="0"/>
        <pt x="594" y="848" on="1"/>
        <pt x="594" y="272" on="1"/>
        <pt x="594" y="260" on="0"/>
        <pt x="592" y="221" on="0"/>
        <pt x="563" y="123" on="0"/>
        <pt x="512" y="45" on="0"/>
        <pt x="403" y="-16" on="0"/>
        <pt x="328" y="-16" on="1"/>
        <pt x="254" y="-16" on="0"/>
        <pt x="143" y="45" on="0"/>
        <pt x="94" y="131" on="0"/>
        <pt x="66" y="217" on="0"/>
        <pt x="66" y="248" on="1"/>
      </contour>
      <contour>
        <pt x="131" y="1305" on="1"/>
        <pt x="131" y="1456" on="1"/>
        <pt x="180" y="1495" on="0"/>
        <pt x="240" y="1495" on="1"/>
        <pt x="273" y="1495" on="0"/>
        <pt x="389" y="1458" on="0"/>
        <pt x="420" y="1456" on="1"/>
        <pt x="445" y="1456" on="0"/>
        <pt x="500" y="1473" on="0"/>
        <pt x="514" y="1481" on="1"/>
        <pt x="528" y="1489" on="1"/>
        <pt x="528" y="1337" on="1"/>
        <pt x="477" y="1298" on="0"/>
        <pt x="420" y="1298" on="1"/>
        <pt x="389" y="1298" on="0"/>
        <pt x="272" y="1337" on="0"/>
        <pt x="240" y="1337" on="1"/>
        <pt x="215" y="1337" on="0"/>
        <pt x="160" y="1321" on="0"/>
        <pt x="145" y="1313" on="1"/>
      </contour>
      <contour>
        <pt x="260" y="279" on="0"/>
        <pt x="256" y="256" on="0"/>
        <pt x="264" y="221" on="0"/>
        <pt x="276" y="188" on="0"/>
        <pt x="307" y="166" on="0"/>
        <pt x="328" y="166" on="1"/>
        <pt x="398" y="176" on="0"/>
        <pt x="399" y="279" on="1"/>
        <pt x="399" y="842" on="1"/>
        <pt x="397" y="842" on="0"/>
        <pt x="401" y="864" on="0"/>
        <pt x="393" y="899" on="0"/>
        <pt x="381" y="932" on="0"/>
        <pt x="350" y="956" on="0"/>
        <pt x="328" y="956" on="1"/>
        <pt x="260" y="946" on="0"/>
        <pt x="258" y="842" on="1"/>
        <pt x="258" y="279" on="1"/>
      </contour>
    </TTGlyph>
    <TTGlyph name="p" xMin="82" yMin="-385" xMax="612" yMax="1137">
      <contour>
        <pt x="82" y="-385" on="1"/>
        <pt x="82" y="1120" on="1"/>
        <pt x="289" y="1120" on="1"/>
        <pt x="289" y="1047" on="1"/>
        <pt x="377" y="1137" on="0"/>
        <pt x="453" y="1137" on="1"/>
        <pt x="531" y="1137" on="0"/>
        <pt x="612" y="999" on="0"/>
        <pt x="612" y="918" on="1"/>
        <pt x="612" y="203" on="1"/>
        <pt x="612" y="121" on="0"/>
        <pt x="530" y="-16" on="0"/>
        <pt x="453" y="-16" on="1"/>
        <pt x="420" y="-16" on="0"/>
        <pt x="338" y="29" on="0"/>
        <pt x="313" y="51" on="1"/>
        <pt x="289" y="74" on="1"/>
        <pt x="289" y="-385" on="1"/>
      </contour>
      <contour>
        <pt x="289" y="246" on="1"/>
        <pt x="289" y="221" on="0"/>
        <pt x="328" y="178" on="0"/>
        <pt x="373" y="178" on="0"/>
        <pt x="406" y="217" on="0"/>
        <pt x="406" y="246" on="1"/>
        <pt x="406" y="874" on="1"/>
        <pt x="406" y="903" on="0"/>
        <pt x="373" y="942" on="0"/>
        <pt x="328" y="942" on="0"/>
        <pt x="289" y="903" on="0"/>
        <pt x="289" y="874" on="1"/>
      </contour>
    </TTGlyph>
    <TTGlyph name="parenleft" xMin="66" yMin="-297" xMax="520" yMax="1589">
      <contour>
        <pt x="66" y="502" on="0"/>
        <pt x="66" y="788" on="0"/>
        <pt x="125" y="1087" on="0"/>
        <pt x="213" y="1311" on="0"/>
        <pt x="299" y="1495" on="0"/>
        <pt x="328" y="1542" on="1"/>
        <pt x="358" y="1589" on="1"/>
        <pt x="520" y="1505" on="1"/>
        <pt x="510" y="1491" on="0"/>
        <pt x="475" y="1438" on="0"/>
        <pt x="385" y="1262" on="0"/>
        <pt x="317" y="1073" on="0"/>
        <pt x="262" y="786" on="0"/>
        <pt x="262" y="504" on="0"/>
        <pt x="315" y="221" on="0"/>
        <pt x="391" y="23" on="0"/>
        <pt x="467" y="-135" on="0"/>
        <pt x="494" y="-174" on="1"/>
        <pt x="520" y="-213" on="1"/>
        <pt x="358" y="-297" on="1"/>
        <pt x="346" y="-279" on="0"/>
        <pt x="307" y="-215" on="0"/>
        <pt x="207" y="-12" on="0"/>
        <pt x="129" y="199" on="0"/>
      </contour>
    </TTGlyph>
    <TTGlyph name="parenright" xMin="41" yMin="-297" xMax="496" yMax="1589">
      <contour>
        <pt x="41" y="-213" on="1"/>
        <pt x="51" y="-199" on="0"/>
        <pt x="86" y="-145" on="0"/>
        <pt x="176" y="31" on="0"/>
        <pt x="244" y="217" on="0"/>
        <pt x="299" y="504" on="0"/>
        <pt x="299" y="786" on="0"/>
        <pt x="246" y="1069" on="0"/>
        <pt x="170" y="1268" on="0"/>
        <pt x="94" y="1427" on="0"/>
        <pt x="68" y="1466" on="1"/>
        <pt x="41" y="1505" on="1"/>
        <pt x="203" y="1589" on="1"/>
        <pt x="215" y="1571" on="0"/>
        <pt x="254" y="1507" on="0"/>
        <pt x="354" y="1303" on="0"/>
        <pt x="432" y="1094" on="0"/>
        <pt x="496" y="788" on="0"/>
        <pt x="496" y="502" on="0"/>
        <pt x="436" y="203" on="0"/>
        <pt x="348" y="-20" on="0"/>
        <pt x="262" y="-203" on="0"/>
        <pt x="233" y="-250" on="1"/>
        <pt x="203" y="-297" on="1"/>
      </contour>
    </TTGlyph>
    <TTGlyph name="percent" xMin="55" yMin="-16" xMax="948" yMax="1522">
      <contour>
        <pt x="55" y="911" on="1"/>
        <pt x="55" y="1348" on="1"/>
        <pt x="55" y="1354" on="0"/>
        <pt x="57" y="1378" on="0"/>
        <pt x="74" y="1438" on="0"/>
        <pt x="104" y="1485" on="0"/>
        <pt x="170" y="1522" on="0"/>
        <pt x="215" y="1522" on="1"/>
        <pt x="285" y="1522" on="0"/>
        <pt x="365" y="1434" on="0"/>
        <pt x="369" y="1391" on="1"/>
        <pt x="373" y="1348" on="1"/>
        <pt x="373" y="911" on="1"/>
        <pt x="373" y="905" on="0"/>
        <pt x="371" y="881" on="0"/>
        <pt x="354" y="819" on="0"/>
        <pt x="324" y="774" on="0"/>
        <pt x="260" y="735" on="0"/>
        <pt x="215" y="735" on="1"/>
        <pt x="86" y="735" on="0"/>
        <pt x="59" y="870" on="1"/>
      </contour>
      <contour>
        <pt x="158" y="0" on="1"/>
        <pt x="711" y="1505" on="1"/>
        <pt x="842" y="1505" on="1"/>
        <pt x="295" y="0" on="1"/>
      </contour>
      <contour>
        <pt x="178" y="911" on="1"/>
        <pt x="174" y="856" on="0"/>
        <pt x="215" y="856" on="1"/>
        <pt x="231" y="856" on="0"/>
        <pt x="250" y="885" on="0"/>
        <pt x="250" y="897" on="1"/>
        <pt x="250" y="911" on="1"/>
        <pt x="250" y="1348" on="1"/>
        <pt x="252" y="1403" on="0"/>
        <pt x="215" y="1403" on="1"/>
        <pt x="197" y="1403" on="0"/>
        <pt x="178" y="1376" on="0"/>
        <pt x="178" y="1362" on="1"/>
        <pt x="178" y="1348" on="1"/>
      </contour>
      <contour>
        <pt x="631" y="158" on="1"/>
        <pt x="631" y="594" on="1"/>
        <pt x="631" y="600" on="0"/>
        <pt x="633" y="625" on="0"/>
        <pt x="649" y="686" on="0"/>
        <pt x="680" y="731" on="0"/>
        <pt x="745" y="770" on="0"/>
        <pt x="791" y="770" on="1"/>
        <pt x="916" y="770" on="0"/>
        <pt x="944" y="635" on="1"/>
        <pt x="948" y="594" on="1"/>
        <pt x="948" y="158" on="1"/>
        <pt x="948" y="152" on="0"/>
        <pt x="946" y="127" on="0"/>
        <pt x="930" y="68" on="0"/>
        <pt x="899" y="20" on="0"/>
        <pt x="836" y="-16" on="0"/>
        <pt x="791" y="-16" on="1"/>
        <pt x="719" y="-16" on="0"/>
        <pt x="639" y="70" on="0"/>
        <pt x="635" y="115" on="1"/>
      </contour>
      <contour>
        <pt x="754" y="158" on="1"/>
        <pt x="750" y="101" on="0"/>
        <pt x="791" y="100" on="1"/>
        <pt x="828" y="100" on="0"/>
        <pt x="825" y="158" on="1"/>
        <pt x="825" y="594" on="1"/>
        <pt x="827" y="649" on="0"/>
        <pt x="791" y="649" on="1"/>
        <pt x="773" y="649" on="0"/>
        <pt x="754" y="623" on="0"/>
        <pt x="754" y="608" on="1"/>
        <pt x="754" y="594" on="1"/>
      </contour>
    </TTGlyph>
    <TTGlyph name="period" xMin="53" yMin="0" xMax="268" yMax="227">
      <contour>
        <pt x="53" y="0" on="1"/>
        <pt x="53" y="227" on="1"/>
        <pt x="268" y="227" on="1"/>
        <pt x="268" y="0" on="1"/>
      </contour>
    </TTGlyph>
    <TTGlyph name="periodcentered" xMin="0" yMin="649" xMax="215" yMax="877">
      <contour>
        <pt x="0" y="649" on="1"/>
        <pt x="0" y="877" on="1"/>
        <pt x="215" y="877" on="1"/>
        <pt x="215" y="649" on="1"/>
      </contour>
    </TTGlyph>
    <TTGlyph name="plus" xMin="74" yMin="303" xMax="987" yMax="1167">
      <contour>
        <pt x="74" y="649" on="1"/>
        <pt x="74" y="821" on="1"/>
        <pt x="444" y="821" on="1"/>
        <pt x="444" y="1167" on="1"/>
        <pt x="616" y="1167" on="1"/>
        <pt x="616" y="821" on="1"/>
        <pt x="987" y="821" on="1"/>
        <pt x="987" y="649" on="1"/>
        <pt x="616" y="649" on="1"/>
        <pt x="616" y="303" on="1"/>
        <pt x="444" y="303" on="1"/>
        <pt x="444" y="649" on="1"/>
      </contour>
    </TTGlyph>
    <TTGlyph name="q" xMin="74" yMin="-385" xMax="604" yMax="1137">
      <contour>
        <pt x="74" y="203" on="1"/>
        <pt x="74" y="918" on="1"/>
        <pt x="74" y="1000" on="0"/>
        <pt x="156" y="1137" on="0"/>
        <pt x="233" y="1137" on="1"/>
        <pt x="266" y="1137" on="0"/>
        <pt x="348" y="1092" on="0"/>
        <pt x="373" y="1069" on="1"/>
        <pt x="397" y="1047" on="1"/>
        <pt x="397" y="1120" on="1"/>
        <pt x="604" y="1120" on="1"/>
        <pt x="604" y="-385" on="1"/>
        <pt x="397" y="-385" on="1"/>
        <pt x="397" y="74" on="1"/>
        <pt x="309" y="-16" on="0"/>
        <pt x="233" y="-16" on="1"/>
        <pt x="155" y="-16" on="0"/>
        <pt x="74" y="121" on="0"/>
      </contour>
      <contour>
        <pt x="281" y="246" on="1"/>
        <pt x="281" y="217" on="0"/>
        <pt x="313" y="178" on="0"/>
        <pt x="358" y="178" on="0"/>
        <pt x="397" y="221" on="0"/>
        <pt x="397" y="246" on="1"/>
        <pt x="397" y="874" on="1"/>
        <pt x="397" y="903" on="0"/>
        <pt x="358" y="942" on="0"/>
        <pt x="313" y="942" on="0"/>
        <pt x="281" y="903" on="0"/>
        <pt x="281" y="874" on="1"/>
      </contour>
    </TTGlyph>
    <TTGlyph name="question" xMin="25" yMin="0" xMax="604" yMax="1513">
      <contour>
        <pt x="25" y="1260" on="1"/>
        <pt x="37" y="1293" on="0"/>
        <pt x="80" y="1364" on="0"/>
        <pt x="156" y="1456" on="0"/>
        <pt x="272" y="1516" on="0"/>
        <pt x="338" y="1513" on="1"/>
        <pt x="420" y="1511" on="0"/>
        <pt x="532" y="1448" on="0"/>
        <pt x="584" y="1348" on="0"/>
        <pt x="604" y="1266" on="0"/>
        <pt x="604" y="1227" on="1"/>
        <pt x="604" y="1145" on="0"/>
        <pt x="524" y="1008" on="1"/>
        <pt x="485" y="945" on="0"/>
        <pt x="449" y="881" on="0"/>
        <pt x="401" y="731" on="0"/>
        <pt x="401" y="662" on="1"/>
        <pt x="401" y="406" on="1"/>
        <pt x="211" y="406" on="1"/>
        <pt x="211" y="662" on="1"/>
        <pt x="211" y="764" on="0"/>
        <pt x="260" y="950" on="0"/>
        <pt x="307" y="1044" on="0"/>
        <pt x="348" y="1114" on="1"/>
        <pt x="391" y="1186" on="0"/>
        <pt x="401" y="1227" on="1"/>
        <pt x="407" y="1254" on="0"/>
        <pt x="373" y="1321" on="0"/>
        <pt x="334" y="1321" on="1"/>
        <pt x="287" y="1323" on="0"/>
        <pt x="217" y="1225" on="0"/>
        <pt x="203" y="1176" on="1"/>
      </contour>
      <contour>
        <pt x="199" y="0" on="1"/>
        <pt x="414" y="0" on="1"/>
        <pt x="414" y="227" on="1"/>
        <pt x="199" y="227" on="1"/>
      </contour>
    </TTGlyph>
    <TTGlyph name="questiondown" xMin="41" yMin="-393" xMax="621" yMax="1120">
      <contour>
        <pt x="41" y="-106" on="1"/>
        <pt x="41" y="-24" on="0"/>
        <pt x="121" y="113" on="1"/>
        <pt x="160" y="176" on="0"/>
        <pt x="197" y="240" on="0"/>
        <pt x="244" y="389" on="0"/>
        <pt x="244" y="459" on="1"/>
        <pt x="244" y="715" on="1"/>
        <pt x="434" y="715" on="1"/>
        <pt x="434" y="459" on="1"/>
        <pt x="434" y="357" on="0"/>
        <pt x="385" y="170" on="0"/>
        <pt x="338" y="76" on="0"/>
        <pt x="297" y="6" on="1"/>
        <pt x="254" y="-66" on="0"/>
        <pt x="244" y="-106" on="1"/>
        <pt x="238" y="-133" on="0"/>
        <pt x="272" y="-201" on="0"/>
        <pt x="311" y="-201" on="1"/>
        <pt x="358" y="-203" on="0"/>
        <pt x="428" y="-104" on="0"/>
        <pt x="442" y="-55" on="1"/>
        <pt x="621" y="-139" on="1"/>
        <pt x="609" y="-172" on="0"/>
        <pt x="565" y="-244" on="0"/>
        <pt x="489" y="-336" on="0"/>
        <pt x="373" y="-395" on="0"/>
        <pt x="307" y="-393" on="1"/>
        <pt x="225" y="-391" on="0"/>
        <pt x="113" y="-328" on="0"/>
        <pt x="61" y="-227" on="0"/>
        <pt x="41" y="-145" on="0"/>
      </contour>
      <contour>
        <pt x="231" y="893" on="1"/>
        <pt x="231" y="1120" on="1"/>
        <pt x="446" y="1120" on="1"/>
        <pt x="446" y="893" on="1"/>
      </contour>
    </TTGlyph>
    <TTGlyph name="quotedbl" xMin="57" yMin="954" xMax="272" yMax="1505">
      <contour>
        <pt x="57" y="1505" on="1"/>
        <pt x="272" y="1505" on="1"/>
        <pt x="242" y="954" on="1"/>
        <pt x="88" y="954" on="1"/>
      </contour>
    </TTGlyph>
    <TTGlyph name="quotedblbase" xMin="53" yMin="-266" xMax="571" yMax="227">
      <contour>
        <pt x="53" y="0" on="1"/>
        <pt x="53" y="227" on="1"/>
        <pt x="268" y="227" on="1"/>
        <pt x="268" y="0" on="1"/>
        <pt x="156" y="-266" on="1"/>
        <pt x="53" y="-266" on="1"/>
        <pt x="125" y="0" on="1"/>
      </contour>
      <contour>
        <pt x="356" y="0" on="1"/>
        <pt x="356" y="227" on="1"/>
        <pt x="571" y="227" on="1"/>
        <pt x="571" y="0" on="1"/>
        <pt x="459" y="-266" on="1"/>
        <pt x="356" y="-266" on="1"/>
        <pt x="428" y="0" on="1"/>
      </contour>
    </TTGlyph>
    <TTGlyph name="quotedblleft" xMin="53" yMin="1012" xMax="571" yMax="1505">
      <contour>
        <pt x="53" y="1012" on="1"/>
        <pt x="53" y="1239" on="1"/>
        <pt x="166" y="1505" on="1"/>
        <pt x="268" y="1505" on="1"/>
        <pt x="197" y="1239" on="1"/>
        <pt x="268" y="1239" on="1"/>
        <pt x="268" y="1012" on="1"/>
      </contour>
      <contour>
        <pt x="356" y="1012" on="1"/>
        <pt x="356" y="1239" on="1"/>
        <pt x="469" y="1505" on="1"/>
        <pt x="571" y="1505" on="1"/>
        <pt x="500" y="1239" on="1"/>
        <pt x="571" y="1239" on="1"/>
        <pt x="571" y="1012" on="1"/>
      </contour>
    </TTGlyph>
    <TTGlyph name="quotedblright" xMin="53" yMin="1012" xMax="571" yMax="1505">
      <contour>
        <pt x="53" y="1012" on="1"/>
        <pt x="125" y="1278" on="1"/>
        <pt x="53" y="1278" on="1"/>
        <pt x="53" y="1505" on="1"/>
        <pt x="268" y="1505" on="1"/>
        <pt x="268" y="1278" on="1"/>
        <pt x="156" y="1012" on="1"/>
      </contour>
      <contour>
        <pt x="356" y="1012" on="1"/>
        <pt x="428" y="1278" on="1"/>
        <pt x="356" y="1278" on="1"/>
        <pt x="356" y="1505" on="1"/>
        <pt x="571" y="1505" on="1"/>
        <pt x="571" y="1278" on="1"/>
        <pt x="459" y="1012" on="1"/>
      </contour>
    </TTGlyph>
    <TTGlyph name="quoteleft" xMin="49" yMin="1012" xMax="264" yMax="1505">
      <contour>
        <pt x="49" y="1012" on="1"/>
        <pt x="49" y="1239" on="1"/>
        <pt x="162" y="1505" on="1"/>
        <pt x="264" y="1505" on="1"/>
        <pt x="193" y="1239" on="1"/>
        <pt x="264" y="1239" on="1"/>
        <pt x="264" y="1012" on="1"/>
      </contour>
    </TTGlyph>
    <TTGlyph name="quoteright" xMin="45" yMin="1012" xMax="260" yMax="1505">
      <contour>
        <pt x="45" y="1012" on="1"/>
        <pt x="117" y="1278" on="1"/>
        <pt x="45" y="1278" on="1"/>
        <pt x="45" y="1505" on="1"/>
        <pt x="260" y="1505" on="1"/>
        <pt x="260" y="1278" on="1"/>
        <pt x="147" y="1012" on="1"/>
      </contour>
    </TTGlyph>
    <TTGlyph name="quotesinglbase" xMin="45" yMin="-266" xMax="260" yMax="227">
      <contour>
        <pt x="45" y="0" on="1"/>
        <pt x="45" y="227" on="1"/>
        <pt x="260" y="227" on="1"/>
        <pt x="260" y="0" on="1"/>
        <pt x="147" y="-266" on="1"/>
        <pt x="45" y="-266" on="1"/>
        <pt x="117" y="0" on="1"/>
      </contour>
    </TTGlyph>
    <TTGlyph name="quotesingle" xMin="45" yMin="1012" xMax="260" yMax="1505">
      <contour>
        <pt x="45" y="1012" on="1"/>
        <pt x="117" y="1278" on="1"/>
        <pt x="45" y="1278" on="1"/>
        <pt x="45" y="1505" on="1"/>
        <pt x="260" y="1505" on="1"/>
        <pt x="260" y="1278" on="1"/>
        <pt x="147" y="1012" on="1"/>
      </contour>
    </TTGlyph>
    <TTGlyph name="r" xMin="82" yMin="0" xMax="496" yMax="1137">
      <contour>
        <pt x="82" y="0" on="1"/>
        <pt x="82" y="1120" on="1"/>
        <pt x="289" y="1120" on="1"/>
        <pt x="289" y="995" on="1"/>
        <pt x="297" y="1036" on="0"/>
        <pt x="397" y="1137" on="0"/>
        <pt x="496" y="1137" on="1"/>
        <pt x="496" y="907" on="1"/>
        <pt x="462" y="918" on="0"/>
        <pt x="432" y="918" on="1"/>
        <pt x="376" y="918" on="0"/>
        <pt x="334" y="881" on="1"/>
        <pt x="289" y="840" on="0"/>
        <pt x="289" y="778" on="1"/>
        <pt x="289" y="0" on="1"/>
      </contour>
    </TTGlyph>
    <TTGlyph name="registered" xMin="53" yMin="-16" xMax="1591" yMax="1522">
      <contour>
        <pt x="53" y="434" on="0"/>
        <pt x="53" y="1069" on="0"/>
        <pt x="504" y="1522" on="0"/>
        <pt x="1139" y="1522" on="0"/>
        <pt x="1591" y="1069" on="0"/>
        <pt x="1591" y="434" on="0"/>
        <pt x="1139" y="-16" on="0"/>
        <pt x="504" y="-16" on="0"/>
      </contour>
      <contour>
        <pt x="172" y="1018" on="0"/>
        <pt x="172" y="485" on="0"/>
        <pt x="555" y="102" on="0"/>
        <pt x="1087" y="102" on="0"/>
        <pt x="1473" y="485" on="0"/>
        <pt x="1473" y="752" on="1"/>
        <pt x="1473" y="1020" on="0"/>
        <pt x="1090" y="1403" on="0"/>
        <pt x="821" y="1403" on="1"/>
        <pt x="555" y="1403" on="0"/>
      </contour>
      <contour>
        <pt x="625" y="313" on="1"/>
        <pt x="625" y="1192" on="1"/>
        <pt x="821" y="1192" on="1"/>
        <pt x="1052" y="1192" on="0"/>
        <pt x="1053" y="934" on="1"/>
        <pt x="1053" y="858" on="0"/>
        <pt x="1020" y="760" on="0"/>
        <pt x="965" y="713" on="1"/>
        <pt x="1071" y="313" on="1"/>
        <pt x="920" y="313" on="1"/>
        <pt x="825" y="678" on="1"/>
        <pt x="770" y="678" on="1"/>
        <pt x="770" y="313" on="1"/>
      </contour>
      <contour>
        <pt x="770" y="805" on="1"/>
        <pt x="815" y="805" on="1"/>
        <pt x="858" y="805" on="0"/>
        <pt x="903" y="848" on="0"/>
        <pt x="913" y="895" on="0"/>
        <pt x="913" y="932" on="1"/>
        <pt x="913" y="971" on="0"/>
        <pt x="903" y="1020" on="0"/>
        <pt x="858" y="1063" on="0"/>
        <pt x="815" y="1063" on="1"/>
        <pt x="770" y="1063" on="1"/>
      </contour>
    </TTGlyph>
    <TTGlyph name="ring" xMin="358" yMin="1278" xMax="664" yMax="1565">
      <contour>
        <pt x="358" y="1360" on="0"/>
        <pt x="358" y="1483" on="0"/>
        <pt x="449" y="1565" on="0"/>
        <pt x="575" y="1565" on="0"/>
        <pt x="664" y="1483" on="0"/>
        <pt x="664" y="1360" on="0"/>
        <pt x="575" y="1278" on="0"/>
        <pt x="449" y="1278" on="0"/>
      </contour>
      <contour>
        <pt x="436" y="1450" on="0"/>
        <pt x="436" y="1393" on="0"/>
        <pt x="483" y="1350" on="0"/>
        <pt x="541" y="1350" on="0"/>
        <pt x="588" y="1393" on="0"/>
        <pt x="588" y="1450" on="0"/>
        <pt x="541" y="1493" on="0"/>
        <pt x="483" y="1493" on="0"/>
      </contour>
    </TTGlyph>
    <TTGlyph name="s" xMin="37" yMin="-16" xMax="590" yMax="1137">
      <contour>
        <pt x="37" y="326" on="1"/>
        <pt x="229" y="326" on="1"/>
        <pt x="229" y="156" on="0"/>
        <pt x="326" y="156" on="1"/>
        <pt x="398" y="156" on="0"/>
        <pt x="397" y="291" on="1"/>
        <pt x="397" y="365" on="0"/>
        <pt x="268" y="489" on="1"/>
        <pt x="200" y="555" on="0"/>
        <pt x="139" y="621" on="0"/>
        <pt x="72" y="758" on="0"/>
        <pt x="72" y="834" on="1"/>
        <pt x="72" y="889" on="0"/>
        <pt x="96" y="987" on="0"/>
        <pt x="150" y="1079" on="0"/>
        <pt x="252" y="1135" on="0"/>
        <pt x="324" y="1137" on="1"/>
        <pt x="330" y="1137" on="0"/>
        <pt x="335" y="1137" on="1"/>
        <pt x="413" y="1137" on="0"/>
        <pt x="466" y="1111" on="1"/>
        <pt x="522" y="1083" on="0"/>
        <pt x="571" y="981" on="0"/>
        <pt x="588" y="893" on="0"/>
        <pt x="588" y="834" on="1"/>
        <pt x="395" y="834" on="1"/>
        <pt x="395" y="965" on="0"/>
        <pt x="328" y="965" on="1"/>
        <pt x="265" y="963" on="0"/>
        <pt x="264" y="834" on="1"/>
        <pt x="264" y="801" on="0"/>
        <pt x="311" y="721" on="0"/>
        <pt x="354" y="676" on="0"/>
        <pt x="399" y="633" on="1"/>
        <pt x="589" y="451" on="0"/>
        <pt x="590" y="291" on="1"/>
        <pt x="590" y="168" on="0"/>
        <pt x="461" y="-16" on="0"/>
        <pt x="326" y="-16" on="1"/>
        <pt x="254" y="-16" on="0"/>
        <pt x="145" y="33" on="0"/>
        <pt x="84" y="104" on="0"/>
        <pt x="47" y="203" on="0"/>
        <pt x="37" y="283" on="0"/>
      </contour>
    </TTGlyph>
    <TTGlyph name="scaron" xMin="37" yMin="-16" xMax="590" yMax="1489">
      <contour>
        <pt x="37" y="326" on="1"/>
        <pt x="229" y="326" on="1"/>
        <pt x="229" y="156" on="0"/>
        <pt x="326" y="156" on="1"/>
        <pt x="398" y="156" on="0"/>
        <pt x="397" y="291" on="1"/>
        <pt x="397" y="365" on="0"/>
        <pt x="268" y="489" on="1"/>
        <pt x="200" y="555" on="0"/>
        <pt x="139" y="621" on="0"/>
        <pt x="72" y="758" on="0"/>
        <pt x="72" y="834" on="1"/>
        <pt x="72" y="889" on="0"/>
        <pt x="96" y="987" on="0"/>
        <pt x="150" y="1079" on="0"/>
        <pt x="252" y="1135" on="0"/>
        <pt x="324" y="1137" on="1"/>
        <pt x="410" y="1139" on="0"/>
        <pt x="522" y="1083" on="0"/>
        <pt x="571" y="981" on="0"/>
        <pt x="588" y="893" on="0"/>
        <pt x="588" y="834" on="1"/>
        <pt x="395" y="834" on="1"/>
        <pt x="395" y="965" on="0"/>
        <pt x="328" y="965" on="1"/>
        <pt x="265" y="963" on="0"/>
        <pt x="264" y="834" on="1"/>
        <pt x="264" y="801" on="0"/>
        <pt x="311" y="721" on="0"/>
        <pt x="354" y="676" on="0"/>
        <pt x="399" y="633" on="1"/>
        <pt x="589" y="451" on="0"/>
        <pt x="590" y="291" on="1"/>
        <pt x="590" y="168" on="0"/>
        <pt x="461" y="-16" on="0"/>
        <pt x="326" y="-16" on="1"/>
        <pt x="254" y="-16" on="0"/>
        <pt x="145" y="33" on="0"/>
        <pt x="84" y="104" on="0"/>
        <pt x="47" y="203" on="0"/>
        <pt x="37" y="283" on="0"/>
      </contour>
      <contour>
        <pt x="66" y="1489" on="1"/>
        <pt x="254" y="1489" on="1"/>
        <pt x="315" y="1417" on="1"/>
        <pt x="379" y="1489" on="1"/>
        <pt x="567" y="1489" on="1"/>
        <pt x="426" y="1305" on="1"/>
        <pt x="207" y="1305" on="1"/>
      </contour>
    </TTGlyph>
    <TTGlyph name="semicolon" xMin="74" yMin="-266" xMax="289" yMax="1120">
      <contour>
        <pt x="74" y="0" on="1"/>
        <pt x="74" y="227" on="1"/>
        <pt x="289" y="227" on="1"/>
        <pt x="289" y="0" on="1"/>
        <pt x="176" y="-266" on="1"/>
        <pt x="74" y="-266" on="1"/>
        <pt x="145" y="0" on="1"/>
      </contour>
      <contour>
        <pt x="74" y="893" on="1"/>
        <pt x="74" y="1120" on="1"/>
        <pt x="289" y="1120" on="1"/>
        <pt x="289" y="893" on="1"/>
      </contour>
    </TTGlyph>
    <TTGlyph name="seven" xMin="8" yMin="0" xMax="565" yMax="1505">
      <contour>
        <pt x="8" y="1286" on="1"/>
        <pt x="8" y="1505" on="1"/>
        <pt x="565" y="1505" on="1"/>
        <pt x="565" y="1284" on="1"/>
        <pt x="344" y="0" on="1"/>
        <pt x="115" y="0" on="1"/>
        <pt x="340" y="1286" on="1"/>
      </contour>
    </TTGlyph>
    <TTGlyph name="six" xMin="66" yMin="-16" xMax="643" yMax="1522">
      <contour>
        <pt x="66" y="309" on="1"/>
        <pt x="66" y="1165" on="1"/>
        <pt x="66" y="1521" on="0"/>
        <pt x="643" y="1522" on="0"/>
        <pt x="643" y="1165" on="1"/>
        <pt x="643" y="1071" on="1"/>
        <pt x="422" y="1071" on="1"/>
        <pt x="422" y="1233" on="0"/>
        <pt x="399" y="1329" on="0"/>
        <pt x="354" y="1329" on="1"/>
        <pt x="315" y="1329" on="0"/>
        <pt x="287" y="1255" on="0"/>
        <pt x="287" y="1165" on="1"/>
        <pt x="287" y="897" on="1"/>
        <pt x="346" y="934" on="0"/>
        <pt x="397" y="934" on="1"/>
        <pt x="477" y="934" on="0"/>
        <pt x="584" y="862" on="0"/>
        <pt x="629" y="748" on="0"/>
        <pt x="643" y="659" on="0"/>
        <pt x="643" y="616" on="1"/>
        <pt x="643" y="309" on="1"/>
        <pt x="643" y="268" on="0"/>
        <pt x="627" y="182" on="0"/>
        <pt x="575" y="61" on="0"/>
        <pt x="449" y="-16" on="0"/>
        <pt x="260" y="-16" on="0"/>
        <pt x="133" y="61" on="0"/>
        <pt x="82" y="182" on="0"/>
        <pt x="66" y="268" on="0"/>
      </contour>
      <contour>
        <pt x="287" y="244" on="1"/>
        <pt x="287" y="224" on="0"/>
        <pt x="322" y="176" on="0"/>
        <pt x="354" y="176" on="1"/>
        <pt x="385" y="176" on="0"/>
        <pt x="422" y="225" on="0"/>
        <pt x="422" y="244" on="1"/>
        <pt x="422" y="694" on="1"/>
        <pt x="422" y="712" on="0"/>
        <pt x="385" y="762" on="0"/>
        <pt x="324" y="762" on="0"/>
        <pt x="289" y="721" on="0"/>
        <pt x="287" y="700" on="1"/>
      </contour>
    </TTGlyph>
    <TTGlyph name="slash" xMin="8" yMin="-147" xMax="713" yMax="1505">
      <contour>
        <pt x="8" y="-147" on="1"/>
        <pt x="551" y="1505" on="1"/>
        <pt x="713" y="1505" on="1"/>
        <pt x="176" y="-147" on="1"/>
      </contour>
    </TTGlyph>
</ttFont>
